<?xml version="1.0" encoding="utf-8" standalone="no"?>
<!DOCTYPE svg PUBLIC "-//W3C//DTD SVG 1.1//EN"
  "http://www.w3.org/Graphics/SVG/1.1/DTD/svg11.dtd">
<!-- Created with matplotlib (https://matplotlib.org/) -->
<svg height="119.055118pt" version="1.1" viewBox="0 0 119.055118 119.055118" width="119.055118pt" xmlns="http://www.w3.org/2000/svg" xmlns:xlink="http://www.w3.org/1999/xlink">
 <metadata>
  <rdf:RDF xmlns:cc="http://creativecommons.org/ns#" xmlns:dc="http://purl.org/dc/elements/1.1/" xmlns:rdf="http://www.w3.org/1999/02/22-rdf-syntax-ns#">
   <cc:Work>
    <dc:type rdf:resource="http://purl.org/dc/dcmitype/StillImage"/>
    <dc:date>2020-11-05T01:29:52.748795</dc:date>
    <dc:format>image/svg+xml</dc:format>
    <dc:creator>
     <cc:Agent>
      <dc:title>Matplotlib v3.3.0, https://matplotlib.org/</dc:title>
     </cc:Agent>
    </dc:creator>
   </cc:Work>
  </rdf:RDF>
 </metadata>
 <defs>
  <style type="text/css">*{stroke-linecap:butt;stroke-linejoin:round;}</style>
 </defs>
 <g id="figure_1">
  <g id="patch_1">
   <path d="M 0 119.055118 
L 119.055118 119.055118 
L 119.055118 0 
L 0 0 
z
" style="fill:none;"/>
  </g>
  <g id="axes_1">
   <g id="patch_2">
    <path d="M 26.72 92.335118 
L 110.415118 92.335118 
L 110.415118 8.64 
L 26.72 8.64 
z
" style="fill:none;"/>
   </g>
   <g id="matplotlib.axis_1">
    <g id="xtick_1">
     <g id="line2d_1">
      <defs>
       <path d="M 0 0 
L 0 -3 
" id="medc3514574" style="stroke:#000000;stroke-width:0.5;"/>
      </defs>
      <g>
       <use style="stroke:#000000;stroke-width:0.5;" x="50.089047" xlink:href="#medc3514574" y="92.335118"/>
      </g>
     </g>
     <g id="text_1">
      <!-- −200 -->
      <g transform="translate(40.205297 99.413868)scale(0.08 -0.08)">
       <defs>
        <path d="M 9.515625 35.5 
L 65.875 35.5 
L 65.875 27.203125 
L 9.515625 27.203125 
z
" id="DejaVuSansCondensed-8722"/>
        <path d="M 17.28125 8.296875 
L 48.25 8.296875 
L 48.25 0 
L 6.59375 0 
L 6.59375 8.296875 
Q 11.625 14.109375 20.359375 23.890625 
Q 29.109375 33.6875 31.34375 36.53125 
Q 35.59375 41.84375 37.28125 45.53125 
Q 38.96875 49.21875 38.96875 52.78125 
Q 38.96875 58.59375 35.296875 62.25 
Q 31.640625 65.921875 25.734375 65.921875 
Q 21.578125 65.921875 16.9375 64.3125 
Q 12.3125 62.703125 7.03125 59.421875 
L 7.03125 69.390625 
Q 12.40625 71.78125 17.0625 73 
Q 21.734375 74.21875 25.59375 74.21875 
Q 35.796875 74.21875 41.84375 68.546875 
Q 47.90625 62.890625 47.90625 53.421875 
Q 47.90625 48.921875 46.390625 44.890625 
Q 44.875 40.875 40.875 35.40625 
Q 39.75 33.984375 33.859375 27.21875 
Q 27.984375 20.453125 17.28125 8.296875 
z
" id="DejaVuSansCondensed-50"/>
        <path d="M 28.609375 66.40625 
Q 21.78125 66.40625 18.3125 58.90625 
Q 14.84375 51.421875 14.84375 36.375 
Q 14.84375 21.390625 18.3125 13.890625 
Q 21.78125 6.390625 28.609375 6.390625 
Q 35.5 6.390625 38.9375 13.890625 
Q 42.390625 21.390625 42.390625 36.375 
Q 42.390625 51.421875 38.9375 58.90625 
Q 35.5 66.40625 28.609375 66.40625 
z
M 28.609375 74.21875 
Q 39.65625 74.21875 45.453125 64.515625 
Q 51.265625 54.828125 51.265625 36.375 
Q 51.265625 17.96875 45.453125 8.265625 
Q 39.65625 -1.421875 28.609375 -1.421875 
Q 17.578125 -1.421875 11.765625 8.265625 
Q 5.953125 17.96875 5.953125 36.375 
Q 5.953125 54.828125 11.765625 64.515625 
Q 17.578125 74.21875 28.609375 74.21875 
z
" id="DejaVuSansCondensed-48"/>
       </defs>
       <use xlink:href="#DejaVuSansCondensed-8722"/>
       <use x="75.390625" xlink:href="#DejaVuSansCondensed-50"/>
       <use x="132.617188" xlink:href="#DejaVuSansCondensed-48"/>
       <use x="189.84375" xlink:href="#DejaVuSansCondensed-48"/>
      </g>
     </g>
    </g>
    <g id="xtick_2">
     <g id="line2d_2">
      <g>
       <use style="stroke:#000000;stroke-width:0.5;" x="89.458889" xlink:href="#medc3514574" y="92.335118"/>
      </g>
     </g>
     <g id="text_2">
      <!-- −150 -->
      <g transform="translate(79.575139 99.413868)scale(0.08 -0.08)">
       <defs>
        <path d="M 11.1875 8.296875 
L 25.6875 8.296875 
L 25.6875 63.921875 
L 9.859375 60.40625 
L 9.859375 69.390625 
L 25.59375 72.90625 
L 34.46875 72.90625 
L 34.46875 8.296875 
L 48.96875 8.296875 
L 48.96875 0 
L 11.1875 0 
z
" id="DejaVuSansCondensed-49"/>
        <path d="M 9.71875 72.90625 
L 44.578125 72.90625 
L 44.578125 64.59375 
L 17.828125 64.59375 
L 17.828125 46.734375 
Q 19.78125 47.46875 21.703125 47.828125 
Q 23.640625 48.1875 25.59375 48.1875 
Q 36.578125 48.1875 43 41.5 
Q 49.421875 34.8125 49.421875 23.390625 
Q 49.421875 11.625 42.828125 5.09375 
Q 36.234375 -1.421875 24.21875 -1.421875 
Q 20.0625 -1.421875 15.796875 -0.640625 
Q 11.53125 0.140625 6.9375 1.703125 
L 6.9375 11.625 
Q 10.890625 9.234375 15.109375 8.0625 
Q 19.34375 6.890625 24.03125 6.890625 
Q 31.640625 6.890625 36.078125 11.328125 
Q 40.53125 15.765625 40.53125 23.390625 
Q 40.53125 31 36.078125 35.4375 
Q 31.640625 39.890625 24.03125 39.890625 
Q 20.453125 39.890625 16.90625 39.015625 
Q 13.375 38.140625 9.71875 36.28125 
z
" id="DejaVuSansCondensed-53"/>
       </defs>
       <use xlink:href="#DejaVuSansCondensed-8722"/>
       <use x="75.390625" xlink:href="#DejaVuSansCondensed-49"/>
       <use x="132.617188" xlink:href="#DejaVuSansCondensed-53"/>
       <use x="189.84375" xlink:href="#DejaVuSansCondensed-48"/>
      </g>
     </g>
    </g>
    <g id="text_3">
     <!-- $\mathcal{L}$(human choices) -->
     <g transform="translate(35.767559 108.156368)scale(0.08 -0.08)">
      <defs>
       <path d="M 3.71875 -2.203125 
Q 3.078125 -2.203125 3.078125 -1.515625 
Q 3.078125 -1.125 3.421875 -0.59375 
Q 4.15625 0.59375 5.609375 2.03125 
Q 7.078125 3.46875 7.71875 4.296875 
Q 10.25 7.953125 11.71875 10.796875 
Q 14.265625 16.0625 16.109375 22.90625 
Q 18.84375 33.796875 21.0625 40.578125 
Q 23.296875 47.359375 26.90625 53.421875 
Q 29.734375 58.109375 33.875 61.984375 
Q 38.03125 65.875 43.078125 68.1875 
Q 48.140625 70.515625 53.421875 70.515625 
L 54 70.515625 
Q 56.59375 70.515625 58.34375 69.21875 
Q 60.109375 67.921875 61.015625 65.75 
Q 61.921875 63.578125 61.921875 61.078125 
Q 61.921875 57.28125 60.6875 55.8125 
Q 57.234375 52.046875 52.484375 51.421875 
L 51.90625 51.421875 
Q 51.3125 51.421875 51.3125 52.09375 
Q 51.3125 52.203125 51.5625 53.609375 
Q 51.8125 55.03125 51.8125 56 
Q 51.8125 59.234375 50.1875 61.625 
Q 48.578125 64.015625 45.40625 64.015625 
Q 41.703125 64.015625 41.703125 63.375 
Q 38.96875 61.46875 36.453125 57.046875 
Q 33.9375 52.640625 32.046875 47.484375 
Q 30.171875 42.328125 28.703125 37.125 
Q 27.25 31.9375 26.125 27.390625 
Q 24.90625 22.46875 22.96875 17.9375 
Q 21.046875 13.421875 18.40625 9.421875 
Q 19.578125 9.8125 21.296875 9.8125 
L 21.921875 9.8125 
Q 25.390625 9.8125 28.859375 9.109375 
Q 32.328125 8.40625 37.15625 7.03125 
Q 42 5.671875 45.21875 5 
Q 48.4375 4.34375 52 4.296875 
Q 53.078125 4.296875 53.75 5.265625 
Q 54.4375 6.25 55.09375 7.984375 
Q 55.765625 9.71875 56.203125 10.296875 
Q 57.71875 11.96875 59.90625 13.1875 
Q 62.109375 14.40625 64.3125 14.703125 
L 64.890625 14.703125 
Q 65.1875 14.703125 65.375 14.5 
Q 65.578125 14.3125 65.578125 14.015625 
Q 65.578125 14.015625 65.484375 13.71875 
Q 64.5 9.8125 60.890625 6.03125 
Q 57.28125 2.25 52.65625 0.015625 
Q 48.046875 -2.203125 44.1875 -2.203125 
L 43.609375 -2.203125 
Q 40.140625 -2.203125 36.8125 -1.5625 
Q 33.5 -0.921875 28.65625 0.4375 
Q 23.828125 1.8125 20.375 2.53125 
Q 16.9375 3.265625 13.484375 3.328125 
Q 9.03125 -1.5625 4.296875 -2.203125 
z
" id="Cmsy10-76"/>
       <path d="M 27.9375 75.875 
Q 22.015625 64.65625 19.15625 53.65625 
Q 16.3125 42.671875 16.3125 31.390625 
Q 16.3125 20.125 19.1875 9.0625 
Q 22.078125 -2 27.9375 -13.1875 
L 20.90625 -13.1875 
Q 14.265625 -1.703125 10.984375 9.375 
Q 7.71875 20.453125 7.71875 31.390625 
Q 7.71875 42.28125 10.984375 53.3125 
Q 14.265625 64.359375 20.90625 75.875 
z
" id="DejaVuSansCondensed-40"/>
       <path d="M 49.421875 33.015625 
L 49.421875 0 
L 41.3125 0 
L 41.3125 32.71875 
Q 41.3125 40.484375 38.578125 44.328125 
Q 35.84375 48.1875 30.421875 48.1875 
Q 23.875 48.1875 20.09375 43.546875 
Q 16.3125 38.921875 16.3125 30.90625 
L 16.3125 0 
L 8.15625 0 
L 8.15625 75.984375 
L 16.3125 75.984375 
L 16.3125 46.1875 
Q 19.1875 51.125 23.109375 53.5625 
Q 27.046875 56 32.234375 56 
Q 40.671875 56 45.046875 50.171875 
Q 49.421875 44.34375 49.421875 33.015625 
z
" id="DejaVuSansCondensed-104"/>
       <path d="M 7.671875 21.578125 
L 7.671875 54.6875 
L 15.71875 54.6875 
L 15.71875 21.921875 
Q 15.71875 14.15625 18.453125 10.265625 
Q 21.1875 6.390625 26.609375 6.390625 
Q 33.203125 6.390625 36.984375 11.03125 
Q 40.765625 15.671875 40.765625 23.6875 
L 40.765625 54.6875 
L 48.875 54.6875 
L 48.875 0 
L 40.765625 0 
L 40.765625 8.40625 
Q 37.84375 3.421875 33.953125 1 
Q 30.078125 -1.421875 24.90625 -1.421875 
Q 16.453125 -1.421875 12.0625 4.4375 
Q 7.671875 10.296875 7.671875 21.578125 
z
M 27.984375 56 
z
" id="DejaVuSansCondensed-117"/>
       <path d="M 46.78125 44.1875 
Q 49.859375 50.25 54.046875 53.125 
Q 58.25 56 63.96875 56 
Q 71.6875 56 75.859375 50.015625 
Q 80.03125 44.046875 80.03125 33.015625 
L 80.03125 0 
L 71.875 0 
L 71.875 32.71875 
Q 71.875 40.578125 69.375 44.375 
Q 66.890625 48.1875 61.71875 48.1875 
Q 55.46875 48.1875 51.796875 43.546875 
Q 48.140625 38.921875 48.140625 30.90625 
L 48.140625 0 
L 40.046875 0 
L 40.046875 32.71875 
Q 40.046875 40.625 37.53125 44.40625 
Q 35.015625 48.1875 29.78125 48.1875 
Q 23.578125 48.1875 19.9375 43.53125 
Q 16.3125 38.875 16.3125 30.90625 
L 16.3125 0 
L 8.15625 0 
L 8.15625 54.6875 
L 16.3125 54.6875 
L 16.3125 46.1875 
Q 19.09375 51.21875 22.953125 53.609375 
Q 26.8125 56 32.125 56 
Q 37.5 56 41.25 52.96875 
Q 45.015625 49.953125 46.78125 44.1875 
z
" id="DejaVuSansCondensed-109"/>
       <path d="M 30.859375 27.484375 
Q 21.046875 27.484375 17.265625 25 
Q 13.484375 22.515625 13.484375 16.5 
Q 13.484375 11.71875 16.3125 8.90625 
Q 19.140625 6.109375 24.03125 6.109375 
Q 30.765625 6.109375 34.8125 11.40625 
Q 38.875 16.703125 38.875 25.484375 
L 38.875 27.484375 
z
M 46.96875 31.203125 
L 46.96875 0 
L 38.875 0 
L 38.875 8.296875 
Q 36.140625 3.328125 32 0.953125 
Q 27.875 -1.421875 21.875 -1.421875 
Q 14.3125 -1.421875 9.859375 3.296875 
Q 5.421875 8.015625 5.421875 15.921875 
Q 5.421875 25.140625 10.953125 29.828125 
Q 16.5 34.515625 27.546875 34.515625 
L 38.875 34.515625 
L 38.875 35.40625 
Q 38.875 41.609375 35.203125 45 
Q 31.546875 48.390625 24.90625 48.390625 
Q 20.703125 48.390625 16.703125 47.265625 
Q 12.703125 46.140625 8.984375 43.890625 
L 8.984375 52.203125 
Q 13.421875 54.109375 17.59375 55.046875 
Q 21.78125 56 25.734375 56 
Q 36.421875 56 41.6875 49.84375 
Q 46.96875 43.703125 46.96875 31.203125 
z
" id="DejaVuSansCondensed-97"/>
       <path d="M 49.421875 33.015625 
L 49.421875 0 
L 41.3125 0 
L 41.3125 32.71875 
Q 41.3125 40.484375 38.578125 44.328125 
Q 35.84375 48.1875 30.421875 48.1875 
Q 23.875 48.1875 20.09375 43.546875 
Q 16.3125 38.921875 16.3125 30.90625 
L 16.3125 0 
L 8.15625 0 
L 8.15625 54.6875 
L 16.3125 54.6875 
L 16.3125 46.1875 
Q 19.1875 51.125 23.109375 53.5625 
Q 27.046875 56 32.234375 56 
Q 40.671875 56 45.046875 50.171875 
Q 49.421875 44.34375 49.421875 33.015625 
z
" id="DejaVuSansCondensed-110"/>
       <path id="DejaVuSansCondensed-32"/>
       <path d="M 43.890625 52.59375 
L 43.890625 44.1875 
Q 40.484375 46.296875 37.03125 47.34375 
Q 33.59375 48.390625 30.078125 48.390625 
Q 22.171875 48.390625 17.828125 42.84375 
Q 13.484375 37.3125 13.484375 27.296875 
Q 13.484375 17.28125 17.828125 11.734375 
Q 22.171875 6.203125 30.078125 6.203125 
Q 33.59375 6.203125 37.03125 7.25 
Q 40.484375 8.296875 43.890625 10.40625 
L 43.890625 2.09375 
Q 40.53125 0.34375 36.890625 -0.53125 
Q 33.25 -1.421875 29.203125 -1.421875 
Q 18.0625 -1.421875 11.515625 6.34375 
Q 4.984375 14.109375 4.984375 27.296875 
Q 4.984375 40.671875 11.59375 48.328125 
Q 18.21875 56 29.6875 56 
Q 33.453125 56 37.015625 55.140625 
Q 40.578125 54.296875 43.890625 52.59375 
z
" id="DejaVuSansCondensed-99"/>
       <path d="M 27.546875 48.390625 
Q 21.046875 48.390625 17.265625 42.75 
Q 13.484375 37.109375 13.484375 27.296875 
Q 13.484375 17.484375 17.234375 11.84375 
Q 21 6.203125 27.546875 6.203125 
Q 34.03125 6.203125 37.78125 11.859375 
Q 41.546875 17.53125 41.546875 27.296875 
Q 41.546875 37.015625 37.78125 42.703125 
Q 34.03125 48.390625 27.546875 48.390625 
z
M 27.546875 56 
Q 38.09375 56 44.109375 48.375 
Q 50.140625 40.765625 50.140625 27.296875 
Q 50.140625 13.875 44.109375 6.21875 
Q 38.09375 -1.421875 27.546875 -1.421875 
Q 16.9375 -1.421875 10.953125 6.21875 
Q 4.984375 13.875 4.984375 27.296875 
Q 4.984375 40.765625 10.953125 48.375 
Q 16.9375 56 27.546875 56 
z
" id="DejaVuSansCondensed-111"/>
       <path d="M 8.5 54.6875 
L 16.546875 54.6875 
L 16.546875 0 
L 8.5 0 
z
M 8.5 75.984375 
L 16.546875 75.984375 
L 16.546875 64.59375 
L 8.5 64.59375 
z
" id="DejaVuSansCondensed-105"/>
       <path d="M 50.59375 29.59375 
L 50.59375 25.203125 
L 13.375 25.203125 
Q 13.921875 15.921875 18.4375 11.0625 
Q 22.953125 6.203125 30.953125 6.203125 
Q 35.640625 6.203125 40.015625 7.46875 
Q 44.390625 8.734375 48.6875 11.28125 
L 48.6875 2.78125 
Q 44.34375 0.734375 39.765625 -0.34375 
Q 35.203125 -1.421875 30.515625 -1.421875 
Q 18.703125 -1.421875 11.84375 6.1875 
Q 4.984375 13.8125 4.984375 26.8125 
Q 4.984375 40.234375 11.5 48.109375 
Q 18.015625 56 29.109375 56 
Q 39.015625 56 44.796875 48.890625 
Q 50.59375 41.796875 50.59375 29.59375 
z
M 42.484375 32.234375 
Q 42.390625 39.59375 38.765625 43.984375 
Q 35.15625 48.390625 29.203125 48.390625 
Q 22.40625 48.390625 18.328125 44.140625 
Q 14.265625 39.890625 13.671875 32.171875 
z
" id="DejaVuSansCondensed-101"/>
       <path d="M 39.84375 53.078125 
L 39.84375 44.578125 
Q 36.421875 46.53125 32.734375 47.5 
Q 29.046875 48.484375 25.09375 48.484375 
Q 19.09375 48.484375 16.0625 46.4375 
Q 13.03125 44.390625 13.03125 40.28125 
Q 13.03125 37.15625 15.203125 35.375 
Q 17.390625 33.59375 23.875 31.984375 
L 26.609375 31.296875 
Q 35.25 29.25 38.859375 25.515625 
Q 42.484375 21.78125 42.484375 15.09375 
Q 42.484375 7.46875 37.0625 3.015625 
Q 31.640625 -1.421875 22.171875 -1.421875 
Q 18.21875 -1.421875 13.921875 -0.5625 
Q 9.625 0.296875 4.890625 2 
L 4.890625 11.28125 
Q 9.375 8.6875 13.71875 7.390625 
Q 18.0625 6.109375 22.3125 6.109375 
Q 28.03125 6.109375 31.109375 8.28125 
Q 34.1875 10.453125 34.1875 14.40625 
Q 34.1875 18.0625 31.953125 20.015625 
Q 29.734375 21.96875 22.21875 23.78125 
L 19.4375 24.515625 
Q 11.921875 26.265625 8.5625 29.90625 
Q 5.21875 33.546875 5.21875 39.890625 
Q 5.21875 47.609375 10.15625 51.796875 
Q 15.09375 56 24.125 56 
Q 28.609375 56 32.5625 55.265625 
Q 36.53125 54.546875 39.84375 53.078125 
z
" id="DejaVuSansCondensed-115"/>
       <path d="M 7.234375 75.875 
L 14.265625 75.875 
Q 20.84375 64.359375 24.109375 53.3125 
Q 27.390625 42.28125 27.390625 31.390625 
Q 27.390625 20.453125 24.109375 9.375 
Q 20.84375 -1.703125 14.265625 -13.1875 
L 7.234375 -13.1875 
Q 13.03125 -2 15.90625 9.0625 
Q 18.796875 20.125 18.796875 31.390625 
Q 18.796875 42.671875 15.90625 53.65625 
Q 13.03125 64.65625 7.234375 75.875 
z
" id="DejaVuSansCondensed-41"/>
      </defs>
      <use transform="translate(0 0.015625)" xlink:href="#Cmsy10-76"/>
      <use transform="translate(68.896484 0.015625)" xlink:href="#DejaVuSansCondensed-40"/>
      <use transform="translate(104.003906 0.015625)" xlink:href="#DejaVuSansCondensed-104"/>
      <use transform="translate(161.035156 0.015625)" xlink:href="#DejaVuSansCondensed-117"/>
      <use transform="translate(218.066406 0.015625)" xlink:href="#DejaVuSansCondensed-109"/>
      <use transform="translate(305.712891 0.015625)" xlink:href="#DejaVuSansCondensed-97"/>
      <use transform="translate(360.839844 0.015625)" xlink:href="#DejaVuSansCondensed-110"/>
      <use transform="translate(417.871094 0.015625)" xlink:href="#DejaVuSansCondensed-32"/>
      <use transform="translate(446.435547 0.015625)" xlink:href="#DejaVuSansCondensed-99"/>
      <use transform="translate(495.898438 0.015625)" xlink:href="#DejaVuSansCondensed-104"/>
      <use transform="translate(552.929688 0.015625)" xlink:href="#DejaVuSansCondensed-111"/>
      <use transform="translate(607.958984 0.015625)" xlink:href="#DejaVuSansCondensed-105"/>
      <use transform="translate(632.958984 0.015625)" xlink:href="#DejaVuSansCondensed-99"/>
      <use transform="translate(682.421875 0.015625)" xlink:href="#DejaVuSansCondensed-101"/>
      <use transform="translate(737.792969 0.015625)" xlink:href="#DejaVuSansCondensed-115"/>
      <use transform="translate(784.667969 0.015625)" xlink:href="#DejaVuSansCondensed-41"/>
     </g>
    </g>
   </g>
   <g id="matplotlib.axis_2">
    <g id="ytick_1">
     <g id="line2d_3">
      <defs>
       <path d="M 0 0 
L 3 0 
" id="mb35dc448ce" style="stroke:#000000;stroke-width:0.5;"/>
      </defs>
      <g>
       <use style="stroke:#000000;stroke-width:0.5;" x="26.72" xlink:href="#mb35dc448ce" y="68.966071"/>
      </g>
     </g>
     <g id="text_4">
      <!-- −200 -->
      <g transform="translate(24.05625 78.849821)rotate(-90)scale(0.08 -0.08)">
       <use xlink:href="#DejaVuSansCondensed-8722"/>
       <use x="75.390625" xlink:href="#DejaVuSansCondensed-50"/>
       <use x="132.617188" xlink:href="#DejaVuSansCondensed-48"/>
       <use x="189.84375" xlink:href="#DejaVuSansCondensed-48"/>
      </g>
     </g>
    </g>
    <g id="ytick_2">
     <g id="line2d_4">
      <g>
       <use style="stroke:#000000;stroke-width:0.5;" x="26.72" xlink:href="#mb35dc448ce" y="29.596229"/>
      </g>
     </g>
     <g id="text_5">
      <!-- −150 -->
      <g transform="translate(24.05625 39.479979)rotate(-90)scale(0.08 -0.08)">
       <use xlink:href="#DejaVuSansCondensed-8722"/>
       <use x="75.390625" xlink:href="#DejaVuSansCondensed-49"/>
       <use x="132.617188" xlink:href="#DejaVuSansCondensed-53"/>
       <use x="189.84375" xlink:href="#DejaVuSansCondensed-48"/>
      </g>
     </g>
    </g>
    <g id="text_6">
     <!-- $\mathcal{L}$(shuffled choices) -->
     <g transform="translate(15.31375 85.207559)rotate(-90)scale(0.08 -0.08)">
      <defs>
       <path d="M 33.40625 75.984375 
L 33.40625 68.5 
L 25.6875 68.5 
Q 21.296875 68.5 19.609375 66.546875 
Q 17.921875 64.59375 17.921875 59.515625 
L 17.921875 54.6875 
L 31.25 54.6875 
L 31.25 47.703125 
L 17.921875 47.703125 
L 17.921875 0 
L 9.8125 0 
L 9.8125 47.703125 
L 2.046875 47.703125 
L 2.046875 54.6875 
L 9.8125 54.6875 
L 9.8125 58.5 
Q 9.8125 67.625 13.625 71.796875 
Q 17.4375 75.984375 25.734375 75.984375 
z
" id="DejaVuSansCondensed-102"/>
       <path d="M 8.5 75.984375 
L 16.546875 75.984375 
L 16.546875 0 
L 8.5 0 
z
" id="DejaVuSansCondensed-108"/>
       <path d="M 40.875 46.390625 
L 40.875 75.984375 
L 48.96875 75.984375 
L 48.96875 0 
L 40.875 0 
L 40.875 8.203125 
Q 38.328125 3.328125 34.4375 0.953125 
Q 30.5625 -1.421875 25.09375 -1.421875 
Q 16.15625 -1.421875 10.5625 6.484375 
Q 4.984375 14.40625 4.984375 27.296875 
Q 4.984375 40.1875 10.5625 48.09375 
Q 16.15625 56 25.09375 56 
Q 30.5625 56 34.4375 53.625 
Q 38.328125 51.265625 40.875 46.390625 
z
M 13.328125 27.296875 
Q 13.328125 17.390625 16.984375 11.75 
Q 20.65625 6.109375 27.046875 6.109375 
Q 33.5 6.109375 37.1875 11.75 
Q 40.875 17.390625 40.875 27.296875 
Q 40.875 37.203125 37.1875 42.84375 
Q 33.5 48.484375 27.046875 48.484375 
Q 20.65625 48.484375 16.984375 42.84375 
Q 13.328125 37.203125 13.328125 27.296875 
z
" id="DejaVuSansCondensed-100"/>
      </defs>
      <use transform="translate(0 0.015625)" xlink:href="#Cmsy10-76"/>
      <use transform="translate(68.896484 0.015625)" xlink:href="#DejaVuSansCondensed-40"/>
      <use transform="translate(104.003906 0.015625)" xlink:href="#DejaVuSansCondensed-115"/>
      <use transform="translate(150.878906 0.015625)" xlink:href="#DejaVuSansCondensed-104"/>
      <use transform="translate(207.910156 0.015625)" xlink:href="#DejaVuSansCondensed-117"/>
      <use transform="translate(264.941406 0.015625)" xlink:href="#DejaVuSansCondensed-102"/>
      <use transform="translate(296.582031 0.015625)" xlink:href="#DejaVuSansCondensed-102"/>
      <use transform="translate(328.222656 0.015625)" xlink:href="#DejaVuSansCondensed-108"/>
      <use transform="translate(353.222656 0.015625)" xlink:href="#DejaVuSansCondensed-101"/>
      <use transform="translate(408.59375 0.015625)" xlink:href="#DejaVuSansCondensed-100"/>
      <use transform="translate(465.722656 0.015625)" xlink:href="#DejaVuSansCondensed-32"/>
      <use transform="translate(494.287109 0.015625)" xlink:href="#DejaVuSansCondensed-99"/>
      <use transform="translate(543.75 0.015625)" xlink:href="#DejaVuSansCondensed-104"/>
      <use transform="translate(600.78125 0.015625)" xlink:href="#DejaVuSansCondensed-111"/>
      <use transform="translate(655.810547 0.015625)" xlink:href="#DejaVuSansCondensed-105"/>
      <use transform="translate(680.810547 0.015625)" xlink:href="#DejaVuSansCondensed-99"/>
      <use transform="translate(730.273438 0.015625)" xlink:href="#DejaVuSansCondensed-101"/>
      <use transform="translate(785.644531 0.015625)" xlink:href="#DejaVuSansCondensed-115"/>
      <use transform="translate(832.519531 0.015625)" xlink:href="#DejaVuSansCondensed-41"/>
     </g>
    </g>
   </g>
   <g id="PathCollection_1">
    <defs>
     <path d="M 0 1.118034 
C 0.296506 1.118034 0.580908 1.000231 0.790569 0.790569 
C 1.000231 0.580908 1.118034 0.296506 1.118034 0 
C 1.118034 -0.296506 1.000231 -0.580908 0.790569 -0.790569 
C 0.580908 -1.000231 0.296506 -1.118034 0 -1.118034 
C -0.296506 -1.118034 -0.580908 -1.000231 -0.790569 -0.790569 
C -1.000231 -0.580908 -1.118034 -0.296506 -1.118034 0 
C -1.118034 0.296506 -1.000231 0.580908 -0.790569 0.790569 
C -0.580908 1.000231 -0.296506 1.118034 0 1.118034 
z
" id="mfc892e4956" style="stroke:#000000;stroke-opacity:0.5;stroke-width:0.5;"/>
    </defs>
    <g clip-path="url(#pf8a1e65db9)">
     <use style="fill:#808080;fill-opacity:0.5;stroke:#000000;stroke-opacity:0.5;stroke-width:0.5;" x="97.273975" xlink:href="#mfc892e4956" y="46.724272"/>
     <use style="fill:#808080;fill-opacity:0.5;stroke:#000000;stroke-opacity:0.5;stroke-width:0.5;" x="63.678218" xlink:href="#mfc892e4956" y="69.640706"/>
     <use style="fill:#808080;fill-opacity:0.5;stroke:#000000;stroke-opacity:0.5;stroke-width:0.5;" x="82.078219" xlink:href="#mfc892e4956" y="64.410444"/>
     <use style="fill:#808080;fill-opacity:0.5;stroke:#000000;stroke-opacity:0.5;stroke-width:0.5;" x="43.823128" xlink:href="#mfc892e4956" y="82.06342"/>
     <use style="fill:#808080;fill-opacity:0.5;stroke:#000000;stroke-opacity:0.5;stroke-width:0.5;" x="73.116008" xlink:href="#mfc892e4956" y="78.073594"/>
     <use style="fill:#808080;fill-opacity:0.5;stroke:#000000;stroke-opacity:0.5;stroke-width:0.5;" x="58.762678" xlink:href="#mfc892e4956" y="80.801728"/>
     <use style="fill:#808080;fill-opacity:0.5;stroke:#000000;stroke-opacity:0.5;stroke-width:0.5;" x="106.857829" xlink:href="#mfc892e4956" y="41.341324"/>
     <use style="fill:#808080;fill-opacity:0.5;stroke:#000000;stroke-opacity:0.5;stroke-width:0.5;" x="39.325902" xlink:href="#mfc892e4956" y="87.841138"/>
     <use style="fill:#808080;fill-opacity:0.5;stroke:#000000;stroke-opacity:0.5;stroke-width:0.5;" x="81.073175" xlink:href="#mfc892e4956" y="74.723491"/>
     <use style="fill:#808080;fill-opacity:0.5;stroke:#000000;stroke-opacity:0.5;stroke-width:0.5;" x="43.724057" xlink:href="#mfc892e4956" y="88.777829"/>
     <use style="fill:#808080;fill-opacity:0.5;stroke:#000000;stroke-opacity:0.5;stroke-width:0.5;" x="82.549299" xlink:href="#mfc892e4956" y="50.041342"/>
     <use style="fill:#808080;fill-opacity:0.5;stroke:#000000;stroke-opacity:0.5;stroke-width:0.5;" x="63.864319" xlink:href="#mfc892e4956" y="69.45618"/>
    </g>
   </g>
   <g id="line2d_5">
    <path clip-path="url(#pf8a1e65db9)" d="M 30.27729 88.777829 
L 106.857829 12.19729 
" style="fill:none;stroke:#808080;stroke-dasharray:0.5,0.825;stroke-dashoffset:0;stroke-width:0.5;"/>
   </g>
   <g id="patch_3">
    <path d="M 26.72 92.335118 
L 26.72 8.64 
" style="fill:none;stroke:#000000;stroke-linecap:square;stroke-linejoin:miter;stroke-width:0.5;"/>
   </g>
   <g id="patch_4">
    <path d="M 26.72 92.335118 
L 110.415118 92.335118 
" style="fill:none;stroke:#000000;stroke-linecap:square;stroke-linejoin:miter;stroke-width:0.5;"/>
   </g>
  </g>
 </g>
 <defs>
  <clipPath id="pf8a1e65db9">
   <rect height="83.695118" width="83.695118" x="26.72" y="8.64"/>
  </clipPath>
 </defs>
</svg>
