<?xml version="1.0" encoding="utf-8" standalone="no"?>
<!DOCTYPE svg PUBLIC "-//W3C//DTD SVG 1.1//EN"
  "http://www.w3.org/Graphics/SVG/1.1/DTD/svg11.dtd">
<!-- Created with matplotlib (https://matplotlib.org/) -->
<svg height="158.740157pt" version="1.1" viewBox="0 0 141.732283 158.740157" width="141.732283pt" xmlns="http://www.w3.org/2000/svg" xmlns:xlink="http://www.w3.org/1999/xlink">
 <metadata>
  <rdf:RDF xmlns:cc="http://creativecommons.org/ns#" xmlns:dc="http://purl.org/dc/elements/1.1/" xmlns:rdf="http://www.w3.org/1999/02/22-rdf-syntax-ns#">
   <cc:Work>
    <dc:type rdf:resource="http://purl.org/dc/dcmitype/StillImage"/>
    <dc:date>2020-11-05T01:29:54.273826</dc:date>
    <dc:format>image/svg+xml</dc:format>
    <dc:creator>
     <cc:Agent>
      <dc:title>Matplotlib v3.3.0, https://matplotlib.org/</dc:title>
     </cc:Agent>
    </dc:creator>
   </cc:Work>
  </rdf:RDF>
 </metadata>
 <defs>
  <style type="text/css">*{stroke-linecap:butt;stroke-linejoin:round;}</style>
 </defs>
 <g id="figure_1">
  <g id="patch_1">
   <path d="M 0 158.740157 
L 141.732283 158.740157 
L 141.732283 0 
L 0 0 
z
" style="fill:none;"/>
  </g>
  <g id="axes_1">
   <g id="patch_2">
    <path d="M 27.378 131.060157 
L 133.092283 131.060157 
L 133.092283 11.76 
L 27.378 11.76 
z
" style="fill:none;"/>
   </g>
   <g id="matplotlib.axis_1">
    <g id="xtick_1">
     <g id="line2d_1">
      <defs>
       <path d="M 0 0 
L 0 -3 
" id="m19a75f976b" style="stroke:#000000;stroke-width:0.5;"/>
      </defs>
      <g>
       <use style="stroke:#000000;stroke-width:0.5;" x="52.673606" xlink:href="#m19a75f976b" y="131.060157"/>
      </g>
     </g>
     <g id="text_1">
      <!-- −50 -->
      <g transform="translate(45.079231 138.138907)scale(0.08 -0.08)">
       <defs>
        <path d="M 9.515625 35.5 
L 65.875 35.5 
L 65.875 27.203125 
L 9.515625 27.203125 
z
" id="DejaVuSansCondensed-8722"/>
        <path d="M 9.71875 72.90625 
L 44.578125 72.90625 
L 44.578125 64.59375 
L 17.828125 64.59375 
L 17.828125 46.734375 
Q 19.78125 47.46875 21.703125 47.828125 
Q 23.640625 48.1875 25.59375 48.1875 
Q 36.578125 48.1875 43 41.5 
Q 49.421875 34.8125 49.421875 23.390625 
Q 49.421875 11.625 42.828125 5.09375 
Q 36.234375 -1.421875 24.21875 -1.421875 
Q 20.0625 -1.421875 15.796875 -0.640625 
Q 11.53125 0.140625 6.9375 1.703125 
L 6.9375 11.625 
Q 10.890625 9.234375 15.109375 8.0625 
Q 19.34375 6.890625 24.03125 6.890625 
Q 31.640625 6.890625 36.078125 11.328125 
Q 40.53125 15.765625 40.53125 23.390625 
Q 40.53125 31 36.078125 35.4375 
Q 31.640625 39.890625 24.03125 39.890625 
Q 20.453125 39.890625 16.90625 39.015625 
Q 13.375 38.140625 9.71875 36.28125 
z
" id="DejaVuSansCondensed-53"/>
        <path d="M 28.609375 66.40625 
Q 21.78125 66.40625 18.3125 58.90625 
Q 14.84375 51.421875 14.84375 36.375 
Q 14.84375 21.390625 18.3125 13.890625 
Q 21.78125 6.390625 28.609375 6.390625 
Q 35.5 6.390625 38.9375 13.890625 
Q 42.390625 21.390625 42.390625 36.375 
Q 42.390625 51.421875 38.9375 58.90625 
Q 35.5 66.40625 28.609375 66.40625 
z
M 28.609375 74.21875 
Q 39.65625 74.21875 45.453125 64.515625 
Q 51.265625 54.828125 51.265625 36.375 
Q 51.265625 17.96875 45.453125 8.265625 
Q 39.65625 -1.421875 28.609375 -1.421875 
Q 17.578125 -1.421875 11.765625 8.265625 
Q 5.953125 17.96875 5.953125 36.375 
Q 5.953125 54.828125 11.765625 64.515625 
Q 17.578125 74.21875 28.609375 74.21875 
z
" id="DejaVuSansCondensed-48"/>
       </defs>
       <use xlink:href="#DejaVuSansCondensed-8722"/>
       <use x="75.390625" xlink:href="#DejaVuSansCondensed-53"/>
       <use x="132.617188" xlink:href="#DejaVuSansCondensed-48"/>
      </g>
     </g>
    </g>
    <g id="xtick_2">
     <g id="line2d_2">
      <g>
       <use style="stroke:#000000;stroke-width:0.5;" x="87.707874" xlink:href="#m19a75f976b" y="131.060157"/>
      </g>
     </g>
     <g id="text_2">
      <!-- 0 -->
      <g transform="translate(85.418499 138.138907)scale(0.08 -0.08)">
       <use xlink:href="#DejaVuSansCondensed-48"/>
      </g>
     </g>
    </g>
    <g id="xtick_3">
     <g id="line2d_3">
      <g>
       <use style="stroke:#000000;stroke-width:0.5;" x="122.742142" xlink:href="#m19a75f976b" y="131.060157"/>
      </g>
     </g>
     <g id="text_3">
      <!-- 50 -->
      <g transform="translate(118.163392 138.138907)scale(0.08 -0.08)">
       <use xlink:href="#DejaVuSansCondensed-53"/>
       <use x="57.226562" xlink:href="#DejaVuSansCondensed-48"/>
      </g>
     </g>
    </g>
    <g id="text_4">
     <!-- logit$(\,P(S\,|\,\bf{X}$$)\,)$ -->
     <g transform="translate(56.435142 146.962657)scale(0.08 -0.08)">
      <defs>
       <path d="M 8.5 75.984375 
L 16.546875 75.984375 
L 16.546875 0 
L 8.5 0 
z
" id="DejaVuSansCondensed-108"/>
       <path d="M 27.546875 48.390625 
Q 21.046875 48.390625 17.265625 42.75 
Q 13.484375 37.109375 13.484375 27.296875 
Q 13.484375 17.484375 17.234375 11.84375 
Q 21 6.203125 27.546875 6.203125 
Q 34.03125 6.203125 37.78125 11.859375 
Q 41.546875 17.53125 41.546875 27.296875 
Q 41.546875 37.015625 37.78125 42.703125 
Q 34.03125 48.390625 27.546875 48.390625 
z
M 27.546875 56 
Q 38.09375 56 44.109375 48.375 
Q 50.140625 40.765625 50.140625 27.296875 
Q 50.140625 13.875 44.109375 6.21875 
Q 38.09375 -1.421875 27.546875 -1.421875 
Q 16.9375 -1.421875 10.953125 6.21875 
Q 4.984375 13.875 4.984375 27.296875 
Q 4.984375 40.765625 10.953125 48.375 
Q 16.9375 56 27.546875 56 
z
" id="DejaVuSansCondensed-111"/>
       <path d="M 40.875 27.984375 
Q 40.875 37.75 37.234375 43.109375 
Q 33.59375 48.484375 27.046875 48.484375 
Q 20.5625 48.484375 16.9375 43.109375 
Q 13.328125 37.75 13.328125 27.984375 
Q 13.328125 18.265625 16.9375 12.890625 
Q 20.5625 7.515625 27.046875 7.515625 
Q 33.59375 7.515625 37.234375 12.890625 
Q 40.875 18.265625 40.875 27.984375 
z
M 48.96875 6.78125 
Q 48.96875 -7.171875 43.375 -13.984375 
Q 37.796875 -20.796875 26.265625 -20.796875 
Q 22.015625 -20.796875 18.234375 -20.09375 
Q 14.453125 -19.390625 10.890625 -17.921875 
L 10.890625 -9.1875 
Q 14.453125 -11.328125 17.921875 -12.34375 
Q 21.390625 -13.375 25 -13.375 
Q 32.953125 -13.375 36.90625 -8.765625 
Q 40.875 -4.15625 40.875 5.171875 
L 40.875 9.625 
Q 38.375 4.78125 34.46875 2.390625 
Q 30.5625 0 25.09375 0 
Q 16.015625 0 10.5 7.65625 
Q 4.984375 15.328125 4.984375 27.984375 
Q 4.984375 40.671875 10.5 48.328125 
Q 16.015625 56 25.09375 56 
Q 30.5625 56 34.46875 53.609375 
Q 38.375 51.21875 40.875 46.390625 
L 40.875 54.6875 
L 48.96875 54.6875 
z
" id="DejaVuSansCondensed-103"/>
       <path d="M 8.5 54.6875 
L 16.546875 54.6875 
L 16.546875 0 
L 8.5 0 
z
M 8.5 75.984375 
L 16.546875 75.984375 
L 16.546875 64.59375 
L 8.5 64.59375 
z
" id="DejaVuSansCondensed-105"/>
       <path d="M 16.5 70.21875 
L 16.5 54.6875 
L 33.15625 54.6875 
L 33.15625 47.703125 
L 16.5 47.703125 
L 16.5 18.015625 
Q 16.5 11.328125 18.140625 9.421875 
Q 19.78125 7.515625 24.8125 7.515625 
L 33.15625 7.515625 
L 33.15625 0 
L 24.8125 0 
Q 15.484375 0 11.90625 3.875 
Q 8.34375 7.765625 8.34375 18.015625 
L 8.34375 47.703125 
L 2.4375 47.703125 
L 2.4375 54.6875 
L 8.34375 54.6875 
L 8.34375 70.21875 
z
" id="DejaVuSansCondensed-116"/>
       <path d="M 27.9375 75.875 
Q 22.015625 64.65625 19.15625 53.65625 
Q 16.3125 42.671875 16.3125 31.390625 
Q 16.3125 20.125 19.1875 9.0625 
Q 22.078125 -2 27.9375 -13.1875 
L 20.90625 -13.1875 
Q 14.265625 -1.703125 10.984375 9.375 
Q 7.71875 20.453125 7.71875 31.390625 
Q 7.71875 42.28125 10.984375 53.3125 
Q 14.265625 64.359375 20.90625 75.875 
z
" id="DejaVuSansCondensed-40"/>
       <path d="M 14.59375 65.296875 
L 38.703125 65.296875 
Q 60.5 65.296875 60.5 50.5 
Q 60.5 46.5 58.640625 42.640625 
Q 56.796875 38.796875 53.703125 36.203125 
Q 46.796875 30.5 33.203125 30.5 
Q 27.703125 30.5 24.203125 31.296875 
L 18.90625 12 
Q 17.5 6.59375 17.5 5.703125 
Q 17.5 3.90625 19 2.953125 
Q 20.5 2 24.40625 1.59375 
L 24.40625 0 
L 0 0 
L 0 1.59375 
Q 4.296875 2.203125 5.640625 3.546875 
Q 7 4.90625 8.40625 9.796875 
L 20 51.203125 
Q 21.703125 57.296875 21.703125 59.5 
Q 21.703125 61.5 20.296875 62.34375 
Q 18.90625 63.203125 14.59375 63.703125 
z
M 32 59.203125 
L 25.09375 34.703125 
Q 28 34.203125 30.296875 34.203125 
Q 39 34.203125 43.09375 36.59375 
Q 50.203125 40.59375 50.203125 50 
Q 50.203125 62.296875 37.203125 62.296875 
Q 32.796875 62.296875 32 59.203125 
z
" id="STIXGeneral-Italic-80"/>
       <path d="M 50.796875 66.703125 
L 46.796875 46.703125 
L 45 47 
Q 45 55.296875 42.5 59.296875 
Q 40 63.296875 33.09375 63.296875 
Q 27.90625 63.296875 24.90625 60.640625 
Q 21.90625 58 21.90625 53.296875 
Q 21.90625 49.5 23.5 46.953125 
Q 25.09375 44.40625 31.796875 37.703125 
Q 38.5 30.90625 40.796875 26.796875 
Q 43.09375 22.703125 43.09375 17.703125 
Q 43.09375 9.203125 37.34375 3.703125 
Q 31.59375 -1.796875 22.90625 -1.796875 
Q 19.09375 -1.796875 12.5 0.5 
Q 9.296875 1.703125 7.796875 1.703125 
Q 4.5 1.703125 3.5 -1.5 
L 1.703125 -1.5 
L 5.09375 20.90625 
L 7.09375 20.703125 
Q 6.90625 19.796875 6.90625 18.40625 
Q 6.90625 11.09375 10.953125 6.390625 
Q 15 1.703125 21.296875 1.703125 
Q 27.09375 1.703125 30.75 5.25 
Q 34.40625 8.796875 34.40625 14.5 
Q 34.40625 17.796875 33.09375 20.4375 
Q 31.796875 23.09375 28.40625 26.796875 
L 24.5 31 
Q 24.203125 31.296875 22.796875 32.84375 
Q 21.40625 34.40625 20.59375 35.203125 
Q 16.09375 40 14.59375 43.046875 
Q 13.09375 46.09375 13.09375 50.203125 
Q 13.09375 57.796875 18.25 62.1875 
Q 23.40625 66.59375 30.90625 66.59375 
Q 36.09375 66.59375 39.40625 65.203125 
Q 42.296875 64.09375 44 64.09375 
Q 45.703125 64.09375 46.59375 64.59375 
Q 47.5 65.09375 48.5 66.703125 
z
" id="STIXGeneral-Italic-83"/>
       <path d="M 18.890625 76.421875 
L 18.890625 -23.578125 
L 11.421875 -23.578125 
L 11.421875 76.421875 
z
" id="DejaVuSansCondensed-124"/>
       <path d="M 69.40625 66.90625 
L 69.40625 64.40625 
Q 66.59375 64 64.640625 62.796875 
Q 62.703125 61.59375 59.5 58.296875 
L 39.59375 37.796875 
L 47.09375 14.09375 
Q 49.203125 7.5 51.25 5.296875 
Q 53.296875 3.09375 58.59375 2.5 
L 58.59375 0 
L 27.90625 0 
L 27.90625 2.5 
Q 32.09375 2.90625 33.34375 3.59375 
Q 34.59375 4.296875 34.59375 6.296875 
Q 34.59375 9.296875 30.90625 20.40625 
L 28.90625 26.40625 
L 15.90625 12 
Q 12.703125 8.5 12.703125 6.5 
Q 12.703125 3.09375 19 2.5 
L 19 0 
L -2.40625 0 
L -2.40625 2.5 
Q -1.40625 2.703125 -0.65625 2.890625 
Q 0.09375 3.09375 1.046875 3.6875 
Q 2 4.296875 2.703125 4.75 
Q 3.40625 5.203125 4.65625 6.34375 
Q 5.90625 7.5 6.75 8.34375 
Q 7.59375 9.203125 9.34375 11.09375 
Q 11.09375 13 12.34375 14.34375 
Q 13.59375 15.703125 16.1875 18.546875 
Q 18.796875 21.40625 20.703125 23.5 
L 27.5 30.90625 
L 19.203125 57.796875 
Q 18 61.796875 16.296875 62.84375 
Q 14.59375 63.90625 9.90625 64.40625 
L 9.90625 66.90625 
L 40.40625 66.90625 
L 40.40625 64.40625 
L 37.5 64.09375 
Q 35 63.90625 34 63.203125 
Q 33 62.5 33 60.796875 
Q 33 58.703125 36.5 47.59375 
L 38.203125 42.09375 
L 47.59375 52 
Q 54.59375 59.40625 54.59375 61.796875 
Q 54.59375 63.90625 51.296875 64.203125 
L 49.203125 64.40625 
L 49.203125 66.90625 
z
" id="STIXGeneral-BoldItalic-88"/>
       <path d="M 7.234375 75.875 
L 14.265625 75.875 
Q 20.84375 64.359375 24.109375 53.3125 
Q 27.390625 42.28125 27.390625 31.390625 
Q 27.390625 20.453125 24.109375 9.375 
Q 20.84375 -1.703125 14.265625 -13.1875 
L 7.234375 -13.1875 
Q 13.03125 -2 15.90625 9.0625 
Q 18.796875 20.125 18.796875 31.390625 
Q 18.796875 42.671875 15.90625 53.65625 
Q 13.03125 64.65625 7.234375 75.875 
z
" id="DejaVuSansCondensed-41"/>
      </defs>
      <use transform="translate(0 0.578125)" xlink:href="#DejaVuSansCondensed-108"/>
      <use transform="translate(25 0.578125)" xlink:href="#DejaVuSansCondensed-111"/>
      <use transform="translate(80.029297 0.578125)" xlink:href="#DejaVuSansCondensed-103"/>
      <use transform="translate(137.158203 0.578125)" xlink:href="#DejaVuSansCondensed-105"/>
      <use transform="translate(162.158203 0.578125)" xlink:href="#DejaVuSansCondensed-116"/>
      <use transform="translate(197.412109 0.578125)" xlink:href="#DejaVuSansCondensed-40"/>
      <use transform="translate(244.553102 0.578125)" xlink:href="#STIXGeneral-Italic-80"/>
      <use transform="translate(305.653093 0.578125)" xlink:href="#DejaVuSansCondensed-40"/>
      <use transform="translate(340.760515 0.578125)" xlink:href="#STIXGeneral-Italic-83"/>
      <use transform="translate(402.794071 0.578125)" xlink:href="#DejaVuSansCondensed-124"/>
      <use transform="translate(445.149907 0.578125)" xlink:href="#STIXGeneral-BoldItalic-88"/>
      <use transform="translate(511.849904 0.578125)" xlink:href="#DejaVuSansCondensed-41"/>
      <use transform="translate(558.990897 0.578125)" xlink:href="#DejaVuSansCondensed-41"/>
     </g>
    </g>
   </g>
   <g id="matplotlib.axis_2">
    <g id="ytick_1">
     <g id="line2d_4">
      <defs>
       <path d="M 0 0 
L 3 0 
" id="ma128fafa09" style="stroke:#000000;stroke-width:0.5;"/>
      </defs>
      <g>
       <use style="stroke:#000000;stroke-width:0.5;" x="27.378" xlink:href="#ma128fafa09" y="131.060157"/>
      </g>
     </g>
     <g id="text_5">
      <!-- Low -->
      <g transform="translate(12.22175 134.099532)scale(0.08 -0.08)">
       <defs>
        <path d="M 8.84375 72.90625 
L 17.71875 72.90625 
L 17.71875 8.296875 
L 49.65625 8.296875 
L 49.65625 0 
L 8.84375 0 
z
" id="DejaVuSansCondensed-76"/>
        <path d="M 3.765625 54.6875 
L 11.859375 54.6875 
L 21.96875 12.015625 
L 32.03125 54.6875 
L 41.546875 54.6875 
L 51.65625 12.015625 
L 61.71875 54.6875 
L 69.828125 54.6875 
L 56.9375 0 
L 47.40625 0 
L 36.8125 44.828125 
L 26.171875 0 
L 16.65625 0 
z
" id="DejaVuSansCondensed-119"/>
       </defs>
       <use xlink:href="#DejaVuSansCondensed-76"/>
       <use x="48.347656" xlink:href="#DejaVuSansCondensed-111"/>
       <use x="103.376953" xlink:href="#DejaVuSansCondensed-119"/>
      </g>
     </g>
    </g>
    <g id="ytick_2">
     <g id="line2d_5">
      <g>
       <use style="stroke:#000000;stroke-width:0.5;" x="27.378" xlink:href="#ma128fafa09" y="11.76"/>
      </g>
     </g>
     <g id="text_6">
      <!-- High -->
      <g transform="translate(9.83175 14.799375)scale(0.08 -0.08)">
       <defs>
        <path d="M 8.84375 72.90625 
L 17.71875 72.90625 
L 17.71875 43.015625 
L 49.953125 43.015625 
L 49.953125 72.90625 
L 58.84375 72.90625 
L 58.84375 0 
L 49.953125 0 
L 49.953125 34.71875 
L 17.71875 34.71875 
L 17.71875 0 
L 8.84375 0 
z
" id="DejaVuSansCondensed-72"/>
        <path d="M 49.421875 33.015625 
L 49.421875 0 
L 41.3125 0 
L 41.3125 32.71875 
Q 41.3125 40.484375 38.578125 44.328125 
Q 35.84375 48.1875 30.421875 48.1875 
Q 23.875 48.1875 20.09375 43.546875 
Q 16.3125 38.921875 16.3125 30.90625 
L 16.3125 0 
L 8.15625 0 
L 8.15625 75.984375 
L 16.3125 75.984375 
L 16.3125 46.1875 
Q 19.1875 51.125 23.109375 53.5625 
Q 27.046875 56 32.234375 56 
Q 40.671875 56 45.046875 50.171875 
Q 49.421875 44.34375 49.421875 33.015625 
z
" id="DejaVuSansCondensed-104"/>
       </defs>
       <use xlink:href="#DejaVuSansCondensed-72"/>
       <use x="67.675781" xlink:href="#DejaVuSansCondensed-105"/>
       <use x="92.675781" xlink:href="#DejaVuSansCondensed-103"/>
       <use x="149.804688" xlink:href="#DejaVuSansCondensed-104"/>
      </g>
     </g>
    </g>
    <g id="text_7">
     <!-- Avg. reported -->
     <g transform="translate(15.20975 95.813829)rotate(-90)scale(0.08 -0.08)">
      <defs>
       <path d="M 30.765625 63.1875 
L 18.703125 26.90625 
L 42.875 26.90625 
z
M 25.734375 72.90625 
L 35.84375 72.90625 
L 60.84375 0 
L 51.609375 0 
L 45.609375 18.703125 
L 16.015625 18.703125 
L 10.0625 0 
L 0.6875 0 
z
" id="DejaVuSansCondensed-65"/>
       <path d="M 2.6875 54.6875 
L 11.234375 54.6875 
L 26.609375 8.796875 
L 42 54.6875 
L 50.59375 54.6875 
L 32.125 0 
L 21.140625 0 
z
" id="DejaVuSansCondensed-118"/>
       <path d="M 9.625 12.40625 
L 18.890625 12.40625 
L 18.890625 0 
L 9.625 0 
z
" id="DejaVuSansCondensed-46"/>
       <path id="DejaVuSansCondensed-32"/>
       <path d="M 37.015625 46.296875 
Q 35.640625 47.171875 34.03125 47.578125 
Q 32.421875 48 30.515625 48 
Q 23.640625 48 19.96875 43.046875 
Q 16.3125 38.09375 16.3125 28.8125 
L 16.3125 0 
L 8.15625 0 
L 8.15625 54.6875 
L 16.3125 54.6875 
L 16.3125 46.1875 
Q 18.84375 51.171875 22.9375 53.578125 
Q 27.046875 56 32.859375 56 
Q 33.6875 56 34.71875 55.875 
Q 35.75 55.765625 36.96875 55.515625 
z
" id="DejaVuSansCondensed-114"/>
       <path d="M 50.59375 29.59375 
L 50.59375 25.203125 
L 13.375 25.203125 
Q 13.921875 15.921875 18.4375 11.0625 
Q 22.953125 6.203125 30.953125 6.203125 
Q 35.640625 6.203125 40.015625 7.46875 
Q 44.390625 8.734375 48.6875 11.28125 
L 48.6875 2.78125 
Q 44.34375 0.734375 39.765625 -0.34375 
Q 35.203125 -1.421875 30.515625 -1.421875 
Q 18.703125 -1.421875 11.84375 6.1875 
Q 4.984375 13.8125 4.984375 26.8125 
Q 4.984375 40.234375 11.5 48.109375 
Q 18.015625 56 29.109375 56 
Q 39.015625 56 44.796875 48.890625 
Q 50.59375 41.796875 50.59375 29.59375 
z
M 42.484375 32.234375 
Q 42.390625 39.59375 38.765625 43.984375 
Q 35.15625 48.390625 29.203125 48.390625 
Q 22.40625 48.390625 18.328125 44.140625 
Q 14.265625 39.890625 13.671875 32.171875 
z
" id="DejaVuSansCondensed-101"/>
       <path d="M 16.3125 8.203125 
L 16.3125 -20.796875 
L 8.15625 -20.796875 
L 8.15625 54.6875 
L 16.3125 54.6875 
L 16.3125 46.390625 
Q 18.84375 51.265625 22.71875 53.625 
Q 26.609375 56 32.03125 56 
Q 41.015625 56 46.609375 48.09375 
Q 52.203125 40.1875 52.203125 27.296875 
Q 52.203125 14.40625 46.609375 6.484375 
Q 41.015625 -1.421875 32.03125 -1.421875 
Q 26.609375 -1.421875 22.71875 0.953125 
Q 18.84375 3.328125 16.3125 8.203125 
z
M 43.796875 27.296875 
Q 43.796875 37.203125 40.125 42.84375 
Q 36.46875 48.484375 30.078125 48.484375 
Q 23.640625 48.484375 19.96875 42.84375 
Q 16.3125 37.203125 16.3125 27.296875 
Q 16.3125 17.390625 19.96875 11.75 
Q 23.640625 6.109375 30.078125 6.109375 
Q 36.46875 6.109375 40.125 11.75 
Q 43.796875 17.390625 43.796875 27.296875 
z
" id="DejaVuSansCondensed-112"/>
       <path d="M 40.875 46.390625 
L 40.875 75.984375 
L 48.96875 75.984375 
L 48.96875 0 
L 40.875 0 
L 40.875 8.203125 
Q 38.328125 3.328125 34.4375 0.953125 
Q 30.5625 -1.421875 25.09375 -1.421875 
Q 16.15625 -1.421875 10.5625 6.484375 
Q 4.984375 14.40625 4.984375 27.296875 
Q 4.984375 40.1875 10.5625 48.09375 
Q 16.15625 56 25.09375 56 
Q 30.5625 56 34.4375 53.625 
Q 38.328125 51.265625 40.875 46.390625 
z
M 13.328125 27.296875 
Q 13.328125 17.390625 16.984375 11.75 
Q 20.65625 6.109375 27.046875 6.109375 
Q 33.5 6.109375 37.1875 11.75 
Q 40.875 17.390625 40.875 27.296875 
Q 40.875 37.203125 37.1875 42.84375 
Q 33.5 48.484375 27.046875 48.484375 
Q 20.65625 48.484375 16.984375 42.84375 
Q 13.328125 37.203125 13.328125 27.296875 
z
" id="DejaVuSansCondensed-100"/>
      </defs>
      <use xlink:href="#DejaVuSansCondensed-65"/>
      <use x="55.648438" xlink:href="#DejaVuSansCondensed-118"/>
      <use x="108.871094" xlink:href="#DejaVuSansCondensed-103"/>
      <use x="166" xlink:href="#DejaVuSansCondensed-46"/>
      <use x="194.564453" xlink:href="#DejaVuSansCondensed-32"/>
      <use x="223.128906" xlink:href="#DejaVuSansCondensed-114"/>
      <use x="257.841797" xlink:href="#DejaVuSansCondensed-101"/>
      <use x="313.212891" xlink:href="#DejaVuSansCondensed-112"/>
      <use x="370.341797" xlink:href="#DejaVuSansCondensed-111"/>
      <use x="425.371094" xlink:href="#DejaVuSansCondensed-114"/>
      <use x="462.333984" xlink:href="#DejaVuSansCondensed-116"/>
      <use x="497.587891" xlink:href="#DejaVuSansCondensed-101"/>
      <use x="552.958984" xlink:href="#DejaVuSansCondensed-100"/>
     </g>
     <!-- confidence -->
     <g transform="translate(24.168 91.111954)rotate(-90)scale(0.08 -0.08)">
      <defs>
       <path d="M 43.890625 52.59375 
L 43.890625 44.1875 
Q 40.484375 46.296875 37.03125 47.34375 
Q 33.59375 48.390625 30.078125 48.390625 
Q 22.171875 48.390625 17.828125 42.84375 
Q 13.484375 37.3125 13.484375 27.296875 
Q 13.484375 17.28125 17.828125 11.734375 
Q 22.171875 6.203125 30.078125 6.203125 
Q 33.59375 6.203125 37.03125 7.25 
Q 40.484375 8.296875 43.890625 10.40625 
L 43.890625 2.09375 
Q 40.53125 0.34375 36.890625 -0.53125 
Q 33.25 -1.421875 29.203125 -1.421875 
Q 18.0625 -1.421875 11.515625 6.34375 
Q 4.984375 14.109375 4.984375 27.296875 
Q 4.984375 40.671875 11.59375 48.328125 
Q 18.21875 56 29.6875 56 
Q 33.453125 56 37.015625 55.140625 
Q 40.578125 54.296875 43.890625 52.59375 
z
" id="DejaVuSansCondensed-99"/>
       <path d="M 49.421875 33.015625 
L 49.421875 0 
L 41.3125 0 
L 41.3125 32.71875 
Q 41.3125 40.484375 38.578125 44.328125 
Q 35.84375 48.1875 30.421875 48.1875 
Q 23.875 48.1875 20.09375 43.546875 
Q 16.3125 38.921875 16.3125 30.90625 
L 16.3125 0 
L 8.15625 0 
L 8.15625 54.6875 
L 16.3125 54.6875 
L 16.3125 46.1875 
Q 19.1875 51.125 23.109375 53.5625 
Q 27.046875 56 32.234375 56 
Q 40.671875 56 45.046875 50.171875 
Q 49.421875 44.34375 49.421875 33.015625 
z
" id="DejaVuSansCondensed-110"/>
       <path d="M 33.40625 75.984375 
L 33.40625 68.5 
L 25.6875 68.5 
Q 21.296875 68.5 19.609375 66.546875 
Q 17.921875 64.59375 17.921875 59.515625 
L 17.921875 54.6875 
L 31.25 54.6875 
L 31.25 47.703125 
L 17.921875 47.703125 
L 17.921875 0 
L 9.8125 0 
L 9.8125 47.703125 
L 2.046875 47.703125 
L 2.046875 54.6875 
L 9.8125 54.6875 
L 9.8125 58.5 
Q 9.8125 67.625 13.625 71.796875 
Q 17.4375 75.984375 25.734375 75.984375 
z
" id="DejaVuSansCondensed-102"/>
      </defs>
      <use xlink:href="#DejaVuSansCondensed-99"/>
      <use x="49.462891" xlink:href="#DejaVuSansCondensed-111"/>
      <use x="104.492188" xlink:href="#DejaVuSansCondensed-110"/>
      <use x="161.523438" xlink:href="#DejaVuSansCondensed-102"/>
      <use x="193.164062" xlink:href="#DejaVuSansCondensed-105"/>
      <use x="218.164062" xlink:href="#DejaVuSansCondensed-100"/>
      <use x="275.292969" xlink:href="#DejaVuSansCondensed-101"/>
      <use x="330.664062" xlink:href="#DejaVuSansCondensed-110"/>
      <use x="387.695312" xlink:href="#DejaVuSansCondensed-99"/>
      <use x="437.158203" xlink:href="#DejaVuSansCondensed-101"/>
     </g>
    </g>
   </g>
   <g id="LineCollection_1">
    <path clip-path="url(#pd7bc79ad7b)" d="M 32.183195 96.748275 
L 32.183195 69.931914 
" style="fill:none;stroke:#006400;stroke-width:0.5;"/>
    <path clip-path="url(#pd7bc79ad7b)" d="M 67.87117 104.753373 
L 67.87117 89.195424 
" style="fill:none;stroke:#006400;stroke-width:0.5;"/>
    <path clip-path="url(#pd7bc79ad7b)" d="M 78.497376 96.889392 
L 78.497376 85.697485 
" style="fill:none;stroke:#006400;stroke-width:0.5;"/>
    <path clip-path="url(#pd7bc79ad7b)" d="M 82.975912 92.171443 
L 82.975912 84.052758 
" style="fill:none;stroke:#006400;stroke-width:0.5;"/>
    <path clip-path="url(#pd7bc79ad7b)" d="M 85.686721 77.319102 
L 85.686721 69.77875 
" style="fill:none;stroke:#006400;stroke-width:0.5;"/>
    <path clip-path="url(#pd7bc79ad7b)" d="M 87.795498 65.583678 
L 87.795498 59.683588 
" style="fill:none;stroke:#006400;stroke-width:0.5;"/>
    <path clip-path="url(#pd7bc79ad7b)" d="M 89.768736 53.728616 
L 89.768736 48.683424 
" style="fill:none;stroke:#006400;stroke-width:0.5;"/>
    <path clip-path="url(#pd7bc79ad7b)" d="M 92.582101 38.723896 
L 92.582101 34.066238 
" style="fill:none;stroke:#006400;stroke-width:0.5;"/>
    <path clip-path="url(#pd7bc79ad7b)" d="M 96.850349 39.921238 
L 96.850349 33.675371 
" style="fill:none;stroke:#006400;stroke-width:0.5;"/>
    <path clip-path="url(#pd7bc79ad7b)" d="M 107.095011 43.935236 
L 107.095011 35.726015 
" style="fill:none;stroke:#006400;stroke-width:0.5;"/>
    <path clip-path="url(#pd7bc79ad7b)" d="M 128.287089 40.218168 
L 128.287089 27.487076 
" style="fill:none;stroke:#006400;stroke-width:0.5;"/>
   </g>
   <g id="line2d_6">
    <defs>
     <path d="M 2 0 
L -2 -0 
" id="m8ba062b2b3" style="stroke:#006400;stroke-width:0.5;"/>
    </defs>
    <g clip-path="url(#pd7bc79ad7b)">
     <use style="fill:#006400;stroke:#006400;stroke-width:0.5;" x="32.183195" xlink:href="#m8ba062b2b3" y="96.748275"/>
     <use style="fill:#006400;stroke:#006400;stroke-width:0.5;" x="67.87117" xlink:href="#m8ba062b2b3" y="104.753373"/>
     <use style="fill:#006400;stroke:#006400;stroke-width:0.5;" x="78.497376" xlink:href="#m8ba062b2b3" y="96.889392"/>
     <use style="fill:#006400;stroke:#006400;stroke-width:0.5;" x="82.975912" xlink:href="#m8ba062b2b3" y="92.171443"/>
     <use style="fill:#006400;stroke:#006400;stroke-width:0.5;" x="85.686721" xlink:href="#m8ba062b2b3" y="77.319102"/>
     <use style="fill:#006400;stroke:#006400;stroke-width:0.5;" x="87.795498" xlink:href="#m8ba062b2b3" y="65.583678"/>
     <use style="fill:#006400;stroke:#006400;stroke-width:0.5;" x="89.768736" xlink:href="#m8ba062b2b3" y="53.728616"/>
     <use style="fill:#006400;stroke:#006400;stroke-width:0.5;" x="92.582101" xlink:href="#m8ba062b2b3" y="38.723896"/>
     <use style="fill:#006400;stroke:#006400;stroke-width:0.5;" x="96.850349" xlink:href="#m8ba062b2b3" y="39.921238"/>
     <use style="fill:#006400;stroke:#006400;stroke-width:0.5;" x="107.095011" xlink:href="#m8ba062b2b3" y="43.935236"/>
     <use style="fill:#006400;stroke:#006400;stroke-width:0.5;" x="128.287089" xlink:href="#m8ba062b2b3" y="40.218168"/>
    </g>
   </g>
   <g id="line2d_7">
    <g clip-path="url(#pd7bc79ad7b)">
     <use style="fill:#006400;stroke:#006400;stroke-width:0.5;" x="32.183195" xlink:href="#m8ba062b2b3" y="69.931914"/>
     <use style="fill:#006400;stroke:#006400;stroke-width:0.5;" x="67.87117" xlink:href="#m8ba062b2b3" y="89.195424"/>
     <use style="fill:#006400;stroke:#006400;stroke-width:0.5;" x="78.497376" xlink:href="#m8ba062b2b3" y="85.697485"/>
     <use style="fill:#006400;stroke:#006400;stroke-width:0.5;" x="82.975912" xlink:href="#m8ba062b2b3" y="84.052758"/>
     <use style="fill:#006400;stroke:#006400;stroke-width:0.5;" x="85.686721" xlink:href="#m8ba062b2b3" y="69.77875"/>
     <use style="fill:#006400;stroke:#006400;stroke-width:0.5;" x="87.795498" xlink:href="#m8ba062b2b3" y="59.683588"/>
     <use style="fill:#006400;stroke:#006400;stroke-width:0.5;" x="89.768736" xlink:href="#m8ba062b2b3" y="48.683424"/>
     <use style="fill:#006400;stroke:#006400;stroke-width:0.5;" x="92.582101" xlink:href="#m8ba062b2b3" y="34.066238"/>
     <use style="fill:#006400;stroke:#006400;stroke-width:0.5;" x="96.850349" xlink:href="#m8ba062b2b3" y="33.675371"/>
     <use style="fill:#006400;stroke:#006400;stroke-width:0.5;" x="107.095011" xlink:href="#m8ba062b2b3" y="35.726015"/>
     <use style="fill:#006400;stroke:#006400;stroke-width:0.5;" x="128.287089" xlink:href="#m8ba062b2b3" y="27.487076"/>
    </g>
   </g>
   <g id="line2d_8">
    <path clip-path="url(#pd7bc79ad7b)" d="M 32.183195 83.340094 
L 67.87117 96.974398 
L 78.497376 91.293438 
L 82.975912 88.112101 
L 85.686721 73.548926 
L 87.795498 62.633633 
L 89.768736 51.20602 
L 92.582101 36.395067 
L 96.850349 36.798305 
L 107.095011 39.830625 
L 128.287089 33.852622 
" style="fill:none;stroke:#006400;stroke-linecap:square;stroke-width:0.5;"/>
    <defs>
     <path d="M 0 0.5 
C 0.132602 0.5 0.25979 0.447317 0.353553 0.353553 
C 0.447317 0.25979 0.5 0.132602 0.5 0 
C 0.5 -0.132602 0.447317 -0.25979 0.353553 -0.353553 
C 0.25979 -0.447317 0.132602 -0.5 0 -0.5 
C -0.132602 -0.5 -0.25979 -0.447317 -0.353553 -0.353553 
C -0.447317 -0.25979 -0.5 -0.132602 -0.5 0 
C -0.5 0.132602 -0.447317 0.25979 -0.353553 0.353553 
C -0.25979 0.447317 -0.132602 0.5 0 0.5 
z
" id="m18f17ce710" style="stroke:#006400;"/>
    </defs>
    <g clip-path="url(#pd7bc79ad7b)">
     <use style="fill:#006400;stroke:#006400;" x="32.183195" xlink:href="#m18f17ce710" y="83.340094"/>
     <use style="fill:#006400;stroke:#006400;" x="67.87117" xlink:href="#m18f17ce710" y="96.974398"/>
     <use style="fill:#006400;stroke:#006400;" x="78.497376" xlink:href="#m18f17ce710" y="91.293438"/>
     <use style="fill:#006400;stroke:#006400;" x="82.975912" xlink:href="#m18f17ce710" y="88.112101"/>
     <use style="fill:#006400;stroke:#006400;" x="85.686721" xlink:href="#m18f17ce710" y="73.548926"/>
     <use style="fill:#006400;stroke:#006400;" x="87.795498" xlink:href="#m18f17ce710" y="62.633633"/>
     <use style="fill:#006400;stroke:#006400;" x="89.768736" xlink:href="#m18f17ce710" y="51.20602"/>
     <use style="fill:#006400;stroke:#006400;" x="92.582101" xlink:href="#m18f17ce710" y="36.395067"/>
     <use style="fill:#006400;stroke:#006400;" x="96.850349" xlink:href="#m18f17ce710" y="36.798305"/>
     <use style="fill:#006400;stroke:#006400;" x="107.095011" xlink:href="#m18f17ce710" y="39.830625"/>
     <use style="fill:#006400;stroke:#006400;" x="128.287089" xlink:href="#m18f17ce710" y="33.852622"/>
    </g>
   </g>
   <g id="patch_3">
    <path d="M 27.378 131.060157 
L 27.378 11.76 
" style="fill:none;stroke:#000000;stroke-linecap:square;stroke-linejoin:miter;stroke-width:0.5;"/>
   </g>
   <g id="patch_4">
    <path d="M 27.378 131.060157 
L 133.092283 131.060157 
" style="fill:none;stroke:#000000;stroke-linecap:square;stroke-linejoin:miter;stroke-width:0.5;"/>
   </g>
   <g id="legend_1">
    <g id="patch_5">
     <path d="M 71.732283 130.260157 
L 130.692283 130.260157 
Q 132.292283 130.260157 132.292283 128.660157 
L 132.292283 122.276407 
Q 132.292283 120.676407 130.692283 120.676407 
L 71.732283 120.676407 
Q 70.132283 120.676407 70.132283 122.276407 
L 70.132283 128.660157 
Q 70.132283 130.260157 71.732283 130.260157 
z
" style="fill:#ffffff;opacity:0.8;stroke:#cccccc;stroke-linejoin:miter;"/>
    </g>
    <g id="LineCollection_2">
     <path d="M 74.932283 126.636407 
L 74.932283 122.636407 
" style="fill:none;stroke:#006400;stroke-width:0.5;"/>
    </g>
    <g id="line2d_9">
     <g>
      <use style="fill:#006400;stroke:#006400;stroke-width:0.5;" x="74.932283" xlink:href="#m8ba062b2b3" y="126.636407"/>
     </g>
    </g>
    <g id="line2d_10">
     <g>
      <use style="fill:#006400;stroke:#006400;stroke-width:0.5;" x="74.932283" xlink:href="#m8ba062b2b3" y="122.636407"/>
     </g>
    </g>
    <g id="line2d_11">
     <path d="M 70.932283 124.636407 
L 78.932283 124.636407 
" style="fill:none;stroke:#006400;stroke-linecap:square;stroke-width:0.5;"/>
    </g>
    <g id="line2d_12">
     <g>
      <use style="fill:#006400;stroke:#006400;" x="74.932283" xlink:href="#m18f17ce710" y="124.636407"/>
     </g>
    </g>
    <g id="text_8">
     <!-- Human $\pm$ sem -->
     <g transform="translate(79.732283 127.796407)scale(0.08 -0.08)">
      <defs>
       <path d="M 7.671875 21.578125 
L 7.671875 54.6875 
L 15.71875 54.6875 
L 15.71875 21.921875 
Q 15.71875 14.15625 18.453125 10.265625 
Q 21.1875 6.390625 26.609375 6.390625 
Q 33.203125 6.390625 36.984375 11.03125 
Q 40.765625 15.671875 40.765625 23.6875 
L 40.765625 54.6875 
L 48.875 54.6875 
L 48.875 0 
L 40.765625 0 
L 40.765625 8.40625 
Q 37.84375 3.421875 33.953125 1 
Q 30.078125 -1.421875 24.90625 -1.421875 
Q 16.453125 -1.421875 12.0625 4.4375 
Q 7.671875 10.296875 7.671875 21.578125 
z
M 27.984375 56 
z
" id="DejaVuSansCondensed-117"/>
       <path d="M 46.78125 44.1875 
Q 49.859375 50.25 54.046875 53.125 
Q 58.25 56 63.96875 56 
Q 71.6875 56 75.859375 50.015625 
Q 80.03125 44.046875 80.03125 33.015625 
L 80.03125 0 
L 71.875 0 
L 71.875 32.71875 
Q 71.875 40.578125 69.375 44.375 
Q 66.890625 48.1875 61.71875 48.1875 
Q 55.46875 48.1875 51.796875 43.546875 
Q 48.140625 38.921875 48.140625 30.90625 
L 48.140625 0 
L 40.046875 0 
L 40.046875 32.71875 
Q 40.046875 40.625 37.53125 44.40625 
Q 35.015625 48.1875 29.78125 48.1875 
Q 23.578125 48.1875 19.9375 43.53125 
Q 16.3125 38.875 16.3125 30.90625 
L 16.3125 0 
L 8.15625 0 
L 8.15625 54.6875 
L 16.3125 54.6875 
L 16.3125 46.1875 
Q 19.09375 51.21875 22.953125 53.609375 
Q 26.8125 56 32.125 56 
Q 37.5 56 41.25 52.96875 
Q 45.015625 49.953125 46.78125 44.1875 
z
" id="DejaVuSansCondensed-109"/>
       <path d="M 30.859375 27.484375 
Q 21.046875 27.484375 17.265625 25 
Q 13.484375 22.515625 13.484375 16.5 
Q 13.484375 11.71875 16.3125 8.90625 
Q 19.140625 6.109375 24.03125 6.109375 
Q 30.765625 6.109375 34.8125 11.40625 
Q 38.875 16.703125 38.875 25.484375 
L 38.875 27.484375 
z
M 46.96875 31.203125 
L 46.96875 0 
L 38.875 0 
L 38.875 8.296875 
Q 36.140625 3.328125 32 0.953125 
Q 27.875 -1.421875 21.875 -1.421875 
Q 14.3125 -1.421875 9.859375 3.296875 
Q 5.421875 8.015625 5.421875 15.921875 
Q 5.421875 25.140625 10.953125 29.828125 
Q 16.5 34.515625 27.546875 34.515625 
L 38.875 34.515625 
L 38.875 35.40625 
Q 38.875 41.609375 35.203125 45 
Q 31.546875 48.390625 24.90625 48.390625 
Q 20.703125 48.390625 16.703125 47.265625 
Q 12.703125 46.140625 8.984375 43.890625 
L 8.984375 52.203125 
Q 13.421875 54.109375 17.59375 55.046875 
Q 21.78125 56 25.734375 56 
Q 36.421875 56 41.6875 49.84375 
Q 46.96875 43.703125 46.96875 31.203125 
z
" id="DejaVuSansCondensed-97"/>
       <path d="M 41.40625 62.703125 
L 41.40625 43.796875 
L 65.875 43.796875 
L 65.875 35.5 
L 41.40625 35.5 
L 41.40625 16.609375 
L 34.03125 16.609375 
L 34.03125 35.5 
L 9.515625 35.5 
L 9.515625 43.796875 
L 34.03125 43.796875 
L 34.03125 62.703125 
z
M 9.515625 8.296875 
L 65.875 8.296875 
L 65.875 0 
L 9.515625 0 
z
" id="DejaVuSansCondensed-177"/>
       <path d="M 39.84375 53.078125 
L 39.84375 44.578125 
Q 36.421875 46.53125 32.734375 47.5 
Q 29.046875 48.484375 25.09375 48.484375 
Q 19.09375 48.484375 16.0625 46.4375 
Q 13.03125 44.390625 13.03125 40.28125 
Q 13.03125 37.15625 15.203125 35.375 
Q 17.390625 33.59375 23.875 31.984375 
L 26.609375 31.296875 
Q 35.25 29.25 38.859375 25.515625 
Q 42.484375 21.78125 42.484375 15.09375 
Q 42.484375 7.46875 37.0625 3.015625 
Q 31.640625 -1.421875 22.171875 -1.421875 
Q 18.21875 -1.421875 13.921875 -0.5625 
Q 9.625 0.296875 4.890625 2 
L 4.890625 11.28125 
Q 9.375 8.6875 13.71875 7.390625 
Q 18.0625 6.109375 22.3125 6.109375 
Q 28.03125 6.109375 31.109375 8.28125 
Q 34.1875 10.453125 34.1875 14.40625 
Q 34.1875 18.0625 31.953125 20.015625 
Q 29.734375 21.96875 22.21875 23.78125 
L 19.4375 24.515625 
Q 11.921875 26.265625 8.5625 29.90625 
Q 5.21875 33.546875 5.21875 39.890625 
Q 5.21875 47.609375 10.15625 51.796875 
Q 15.09375 56 24.125 56 
Q 28.609375 56 32.5625 55.265625 
Q 36.53125 54.546875 39.84375 53.078125 
z
" id="DejaVuSansCondensed-115"/>
      </defs>
      <use transform="translate(0 0.09375)" xlink:href="#DejaVuSansCondensed-72"/>
      <use transform="translate(67.675781 0.09375)" xlink:href="#DejaVuSansCondensed-117"/>
      <use transform="translate(124.707031 0.09375)" xlink:href="#DejaVuSansCondensed-109"/>
      <use transform="translate(212.353516 0.09375)" xlink:href="#DejaVuSansCondensed-97"/>
      <use transform="translate(267.480469 0.09375)" xlink:href="#DejaVuSansCondensed-110"/>
      <use transform="translate(324.511719 0.09375)" xlink:href="#DejaVuSansCondensed-32"/>
      <use transform="translate(353.076172 0.09375)" xlink:href="#DejaVuSansCondensed-177"/>
      <use transform="translate(428.466797 0.09375)" xlink:href="#DejaVuSansCondensed-32"/>
      <use transform="translate(457.03125 0.09375)" xlink:href="#DejaVuSansCondensed-115"/>
      <use transform="translate(503.90625 0.09375)" xlink:href="#DejaVuSansCondensed-101"/>
      <use transform="translate(559.277344 0.09375)" xlink:href="#DejaVuSansCondensed-109"/>
     </g>
    </g>
   </g>
  </g>
 </g>
 <defs>
  <clipPath id="pd7bc79ad7b">
   <rect height="119.300157" width="105.714283" x="27.378" y="11.76"/>
  </clipPath>
 </defs>
</svg>
