<?xml version="1.0" encoding="utf-8" standalone="no"?>
<!DOCTYPE svg PUBLIC "-//W3C//DTD SVG 1.1//EN"
  "http://www.w3.org/Graphics/SVG/1.1/DTD/svg11.dtd">
<!-- Created with matplotlib (https://matplotlib.org/) -->
<svg height="170.07874pt" version="1.1" viewBox="0 0 255.11811 170.07874" width="255.11811pt" xmlns="http://www.w3.org/2000/svg" xmlns:xlink="http://www.w3.org/1999/xlink">
 <metadata>
  <rdf:RDF xmlns:cc="http://creativecommons.org/ns#" xmlns:dc="http://purl.org/dc/elements/1.1/" xmlns:rdf="http://www.w3.org/1999/02/22-rdf-syntax-ns#">
   <cc:Work>
    <dc:type rdf:resource="http://purl.org/dc/dcmitype/StillImage"/>
    <dc:date>2020-11-05T01:30:04.256233</dc:date>
    <dc:format>image/svg+xml</dc:format>
    <dc:creator>
     <cc:Agent>
      <dc:title>Matplotlib v3.3.0, https://matplotlib.org/</dc:title>
     </cc:Agent>
    </dc:creator>
   </cc:Work>
  </rdf:RDF>
 </metadata>
 <defs>
  <style type="text/css">*{stroke-linecap:butt;stroke-linejoin:round;}</style>
 </defs>
 <g id="figure_1">
  <g id="patch_1">
   <path d="M 0 170.07874 
L 255.11811 170.07874 
L 255.11811 0 
L 0 0 
z
" style="fill:none;"/>
  </g>
  <g id="axes_1">
   <g id="patch_2">
    <path d="M 31.25 142.39874 
L 246.47811 142.39874 
L 246.47811 11.76 
L 31.25 11.76 
z
" style="fill:none;"/>
   </g>
   <g id="line2d_1">
    <path clip-path="url(#p1d37403efd)" d="M 41.033096 114.215728 
L 77.689588 98.430427 
L 99.760257 85.83891 
L 120.510509 71.725871 
L 142.359646 56.480006 
L 166.241608 44.327762 
L 186.975859 38.92578 
L 236.695014 31.678752 
" style="fill:none;stroke:#1e90ff;stroke-dasharray:1.85,0.8;stroke-dashoffset:0;stroke-width:0.5;"/>
   </g>
   <g id="line2d_2">
    <path clip-path="url(#p1d37403efd)" d="M 41.033096 118.081649 
L 77.689588 111.56504 
L 99.760257 94.465138 
L 120.510509 71.213167 
L 142.359646 53.061803 
L 166.241608 40.492884 
L 186.975859 32.636335 
L 236.695014 25.059046 
" style="fill:none;stroke:#6a5acd;stroke-linecap:square;stroke-width:0.5;"/>
   </g>
   <g id="matplotlib.axis_1">
    <g id="xtick_1">
     <g id="line2d_3">
      <defs>
       <path d="M 0 0 
L 0 -3 
" id="m77d3d04f81" style="stroke:#000000;stroke-width:0.5;"/>
      </defs>
      <g>
       <use style="stroke:#000000;stroke-width:0.5;" x="41.991959" xlink:href="#m77d3d04f81" y="142.39874"/>
      </g>
     </g>
     <g id="text_1">
      <!-- −6 -->
      <g transform="translate(36.686959 149.47749)scale(0.08 -0.08)">
       <defs>
        <path d="M 9.515625 35.5 
L 65.875 35.5 
L 65.875 27.203125 
L 9.515625 27.203125 
z
" id="DejaVuSansCondensed-8722"/>
        <path d="M 29.6875 40.375 
Q 23.734375 40.375 20.234375 35.828125 
Q 16.75 31.296875 16.75 23.390625 
Q 16.75 15.53125 20.234375 10.953125 
Q 23.734375 6.390625 29.6875 6.390625 
Q 35.6875 6.390625 39.171875 10.953125 
Q 42.671875 15.53125 42.671875 23.390625 
Q 42.671875 31.296875 39.171875 35.828125 
Q 35.6875 40.375 29.6875 40.375 
z
M 47.3125 71.296875 
L 47.3125 62.3125 
Q 44 64.0625 40.578125 64.984375 
Q 37.15625 65.921875 33.84375 65.921875 
Q 25.046875 65.921875 20.40625 59.328125 
Q 15.765625 52.734375 15.140625 39.40625 
Q 17.71875 43.65625 21.625 45.921875 
Q 25.53125 48.1875 30.21875 48.1875 
Q 40.140625 48.1875 45.875 41.515625 
Q 51.609375 34.859375 51.609375 23.390625 
Q 51.609375 12.15625 45.625 5.359375 
Q 39.65625 -1.421875 29.6875 -1.421875 
Q 18.3125 -1.421875 12.296875 8.265625 
Q 6.296875 17.96875 6.296875 36.375 
Q 6.296875 53.65625 13.671875 63.9375 
Q 21.046875 74.21875 33.5 74.21875 
Q 36.8125 74.21875 40.234375 73.484375 
Q 43.65625 72.75 47.3125 71.296875 
z
" id="DejaVuSansCondensed-54"/>
       </defs>
       <use xlink:href="#DejaVuSansCondensed-8722"/>
       <use x="75.390625" xlink:href="#DejaVuSansCondensed-54"/>
      </g>
     </g>
    </g>
    <g id="xtick_2">
     <g id="line2d_4">
      <g>
       <use style="stroke:#000000;stroke-width:0.5;" x="71.986879" xlink:href="#m77d3d04f81" y="142.39874"/>
      </g>
     </g>
     <g id="text_2">
      <!-- −4 -->
      <g transform="translate(66.681879 149.47749)scale(0.08 -0.08)">
       <defs>
        <path d="M 34.03125 64.3125 
L 11.625 25.390625 
L 34.03125 25.390625 
z
M 31.6875 72.90625 
L 42.875 72.90625 
L 42.875 25.390625 
L 52.203125 25.390625 
L 52.203125 17.1875 
L 42.875 17.1875 
L 42.875 0 
L 34.03125 0 
L 34.03125 17.1875 
L 4.390625 17.1875 
L 4.390625 26.703125 
z
" id="DejaVuSansCondensed-52"/>
       </defs>
       <use xlink:href="#DejaVuSansCondensed-8722"/>
       <use x="75.390625" xlink:href="#DejaVuSansCondensed-52"/>
      </g>
     </g>
    </g>
    <g id="xtick_3">
     <g id="line2d_5">
      <g>
       <use style="stroke:#000000;stroke-width:0.5;" x="101.981799" xlink:href="#m77d3d04f81" y="142.39874"/>
      </g>
     </g>
     <g id="text_3">
      <!-- −2 -->
      <g transform="translate(96.676799 149.47749)scale(0.08 -0.08)">
       <defs>
        <path d="M 17.28125 8.296875 
L 48.25 8.296875 
L 48.25 0 
L 6.59375 0 
L 6.59375 8.296875 
Q 11.625 14.109375 20.359375 23.890625 
Q 29.109375 33.6875 31.34375 36.53125 
Q 35.59375 41.84375 37.28125 45.53125 
Q 38.96875 49.21875 38.96875 52.78125 
Q 38.96875 58.59375 35.296875 62.25 
Q 31.640625 65.921875 25.734375 65.921875 
Q 21.578125 65.921875 16.9375 64.3125 
Q 12.3125 62.703125 7.03125 59.421875 
L 7.03125 69.390625 
Q 12.40625 71.78125 17.0625 73 
Q 21.734375 74.21875 25.59375 74.21875 
Q 35.796875 74.21875 41.84375 68.546875 
Q 47.90625 62.890625 47.90625 53.421875 
Q 47.90625 48.921875 46.390625 44.890625 
Q 44.875 40.875 40.875 35.40625 
Q 39.75 33.984375 33.859375 27.21875 
Q 27.984375 20.453125 17.28125 8.296875 
z
" id="DejaVuSansCondensed-50"/>
       </defs>
       <use xlink:href="#DejaVuSansCondensed-8722"/>
       <use x="75.390625" xlink:href="#DejaVuSansCondensed-50"/>
      </g>
     </g>
    </g>
    <g id="xtick_4">
     <g id="line2d_6">
      <g>
       <use style="stroke:#000000;stroke-width:0.5;" x="131.976719" xlink:href="#m77d3d04f81" y="142.39874"/>
      </g>
     </g>
     <g id="text_4">
      <!-- 0 -->
      <g transform="translate(129.687344 149.47749)scale(0.08 -0.08)">
       <defs>
        <path d="M 28.609375 66.40625 
Q 21.78125 66.40625 18.3125 58.90625 
Q 14.84375 51.421875 14.84375 36.375 
Q 14.84375 21.390625 18.3125 13.890625 
Q 21.78125 6.390625 28.609375 6.390625 
Q 35.5 6.390625 38.9375 13.890625 
Q 42.390625 21.390625 42.390625 36.375 
Q 42.390625 51.421875 38.9375 58.90625 
Q 35.5 66.40625 28.609375 66.40625 
z
M 28.609375 74.21875 
Q 39.65625 74.21875 45.453125 64.515625 
Q 51.265625 54.828125 51.265625 36.375 
Q 51.265625 17.96875 45.453125 8.265625 
Q 39.65625 -1.421875 28.609375 -1.421875 
Q 17.578125 -1.421875 11.765625 8.265625 
Q 5.953125 17.96875 5.953125 36.375 
Q 5.953125 54.828125 11.765625 64.515625 
Q 17.578125 74.21875 28.609375 74.21875 
z
" id="DejaVuSansCondensed-48"/>
       </defs>
       <use xlink:href="#DejaVuSansCondensed-48"/>
      </g>
     </g>
    </g>
    <g id="xtick_5">
     <g id="line2d_7">
      <g>
       <use style="stroke:#000000;stroke-width:0.5;" x="161.971638" xlink:href="#m77d3d04f81" y="142.39874"/>
      </g>
     </g>
     <g id="text_5">
      <!-- 2 -->
      <g transform="translate(159.682263 149.47749)scale(0.08 -0.08)">
       <use xlink:href="#DejaVuSansCondensed-50"/>
      </g>
     </g>
    </g>
    <g id="xtick_6">
     <g id="line2d_8">
      <g>
       <use style="stroke:#000000;stroke-width:0.5;" x="191.966558" xlink:href="#m77d3d04f81" y="142.39874"/>
      </g>
     </g>
     <g id="text_6">
      <!-- 4 -->
      <g transform="translate(189.677183 149.47749)scale(0.08 -0.08)">
       <use xlink:href="#DejaVuSansCondensed-52"/>
      </g>
     </g>
    </g>
    <g id="xtick_7">
     <g id="line2d_9">
      <g>
       <use style="stroke:#000000;stroke-width:0.5;" x="221.961478" xlink:href="#m77d3d04f81" y="142.39874"/>
      </g>
     </g>
     <g id="text_7">
      <!-- 6 -->
      <g transform="translate(219.672103 149.47749)scale(0.08 -0.08)">
       <use xlink:href="#DejaVuSansCondensed-54"/>
      </g>
     </g>
    </g>
    <g id="text_8">
     <!-- logit( $P_\mathregular{ideal}(S=C\,|\,\bf{X}$) ) -->
     <g transform="translate(100.664055 158.30124)scale(0.08 -0.08)">
      <defs>
       <path d="M 8.5 75.984375 
L 16.546875 75.984375 
L 16.546875 0 
L 8.5 0 
z
" id="DejaVuSansCondensed-108"/>
       <path d="M 27.546875 48.390625 
Q 21.046875 48.390625 17.265625 42.75 
Q 13.484375 37.109375 13.484375 27.296875 
Q 13.484375 17.484375 17.234375 11.84375 
Q 21 6.203125 27.546875 6.203125 
Q 34.03125 6.203125 37.78125 11.859375 
Q 41.546875 17.53125 41.546875 27.296875 
Q 41.546875 37.015625 37.78125 42.703125 
Q 34.03125 48.390625 27.546875 48.390625 
z
M 27.546875 56 
Q 38.09375 56 44.109375 48.375 
Q 50.140625 40.765625 50.140625 27.296875 
Q 50.140625 13.875 44.109375 6.21875 
Q 38.09375 -1.421875 27.546875 -1.421875 
Q 16.9375 -1.421875 10.953125 6.21875 
Q 4.984375 13.875 4.984375 27.296875 
Q 4.984375 40.765625 10.953125 48.375 
Q 16.9375 56 27.546875 56 
z
" id="DejaVuSansCondensed-111"/>
       <path d="M 40.875 27.984375 
Q 40.875 37.75 37.234375 43.109375 
Q 33.59375 48.484375 27.046875 48.484375 
Q 20.5625 48.484375 16.9375 43.109375 
Q 13.328125 37.75 13.328125 27.984375 
Q 13.328125 18.265625 16.9375 12.890625 
Q 20.5625 7.515625 27.046875 7.515625 
Q 33.59375 7.515625 37.234375 12.890625 
Q 40.875 18.265625 40.875 27.984375 
z
M 48.96875 6.78125 
Q 48.96875 -7.171875 43.375 -13.984375 
Q 37.796875 -20.796875 26.265625 -20.796875 
Q 22.015625 -20.796875 18.234375 -20.09375 
Q 14.453125 -19.390625 10.890625 -17.921875 
L 10.890625 -9.1875 
Q 14.453125 -11.328125 17.921875 -12.34375 
Q 21.390625 -13.375 25 -13.375 
Q 32.953125 -13.375 36.90625 -8.765625 
Q 40.875 -4.15625 40.875 5.171875 
L 40.875 9.625 
Q 38.375 4.78125 34.46875 2.390625 
Q 30.5625 0 25.09375 0 
Q 16.015625 0 10.5 7.65625 
Q 4.984375 15.328125 4.984375 27.984375 
Q 4.984375 40.671875 10.5 48.328125 
Q 16.015625 56 25.09375 56 
Q 30.5625 56 34.46875 53.609375 
Q 38.375 51.21875 40.875 46.390625 
L 40.875 54.6875 
L 48.96875 54.6875 
z
" id="DejaVuSansCondensed-103"/>
       <path d="M 8.5 54.6875 
L 16.546875 54.6875 
L 16.546875 0 
L 8.5 0 
z
M 8.5 75.984375 
L 16.546875 75.984375 
L 16.546875 64.59375 
L 8.5 64.59375 
z
" id="DejaVuSansCondensed-105"/>
       <path d="M 16.5 70.21875 
L 16.5 54.6875 
L 33.15625 54.6875 
L 33.15625 47.703125 
L 16.5 47.703125 
L 16.5 18.015625 
Q 16.5 11.328125 18.140625 9.421875 
Q 19.78125 7.515625 24.8125 7.515625 
L 33.15625 7.515625 
L 33.15625 0 
L 24.8125 0 
Q 15.484375 0 11.90625 3.875 
Q 8.34375 7.765625 8.34375 18.015625 
L 8.34375 47.703125 
L 2.4375 47.703125 
L 2.4375 54.6875 
L 8.34375 54.6875 
L 8.34375 70.21875 
z
" id="DejaVuSansCondensed-116"/>
       <path d="M 27.9375 75.875 
Q 22.015625 64.65625 19.15625 53.65625 
Q 16.3125 42.671875 16.3125 31.390625 
Q 16.3125 20.125 19.1875 9.0625 
Q 22.078125 -2 27.9375 -13.1875 
L 20.90625 -13.1875 
Q 14.265625 -1.703125 10.984375 9.375 
Q 7.71875 20.453125 7.71875 31.390625 
Q 7.71875 42.28125 10.984375 53.3125 
Q 14.265625 64.359375 20.90625 75.875 
z
" id="DejaVuSansCondensed-40"/>
       <path id="DejaVuSansCondensed-32"/>
       <path d="M 14.59375 65.296875 
L 38.703125 65.296875 
Q 60.5 65.296875 60.5 50.5 
Q 60.5 46.5 58.640625 42.640625 
Q 56.796875 38.796875 53.703125 36.203125 
Q 46.796875 30.5 33.203125 30.5 
Q 27.703125 30.5 24.203125 31.296875 
L 18.90625 12 
Q 17.5 6.59375 17.5 5.703125 
Q 17.5 3.90625 19 2.953125 
Q 20.5 2 24.40625 1.59375 
L 24.40625 0 
L 0 0 
L 0 1.59375 
Q 4.296875 2.203125 5.640625 3.546875 
Q 7 4.90625 8.40625 9.796875 
L 20 51.203125 
Q 21.703125 57.296875 21.703125 59.5 
Q 21.703125 61.5 20.296875 62.34375 
Q 18.90625 63.203125 14.59375 63.703125 
z
M 32 59.203125 
L 25.09375 34.703125 
Q 28 34.203125 30.296875 34.203125 
Q 39 34.203125 43.09375 36.59375 
Q 50.203125 40.59375 50.203125 50 
Q 50.203125 62.296875 37.203125 62.296875 
Q 32.796875 62.296875 32 59.203125 
z
" id="STIXGeneral-Italic-80"/>
       <path d="M 40.875 46.390625 
L 40.875 75.984375 
L 48.96875 75.984375 
L 48.96875 0 
L 40.875 0 
L 40.875 8.203125 
Q 38.328125 3.328125 34.4375 0.953125 
Q 30.5625 -1.421875 25.09375 -1.421875 
Q 16.15625 -1.421875 10.5625 6.484375 
Q 4.984375 14.40625 4.984375 27.296875 
Q 4.984375 40.1875 10.5625 48.09375 
Q 16.15625 56 25.09375 56 
Q 30.5625 56 34.4375 53.625 
Q 38.328125 51.265625 40.875 46.390625 
z
M 13.328125 27.296875 
Q 13.328125 17.390625 16.984375 11.75 
Q 20.65625 6.109375 27.046875 6.109375 
Q 33.5 6.109375 37.1875 11.75 
Q 40.875 17.390625 40.875 27.296875 
Q 40.875 37.203125 37.1875 42.84375 
Q 33.5 48.484375 27.046875 48.484375 
Q 20.65625 48.484375 16.984375 42.84375 
Q 13.328125 37.203125 13.328125 27.296875 
z
" id="DejaVuSansCondensed-100"/>
       <path d="M 50.59375 29.59375 
L 50.59375 25.203125 
L 13.375 25.203125 
Q 13.921875 15.921875 18.4375 11.0625 
Q 22.953125 6.203125 30.953125 6.203125 
Q 35.640625 6.203125 40.015625 7.46875 
Q 44.390625 8.734375 48.6875 11.28125 
L 48.6875 2.78125 
Q 44.34375 0.734375 39.765625 -0.34375 
Q 35.203125 -1.421875 30.515625 -1.421875 
Q 18.703125 -1.421875 11.84375 6.1875 
Q 4.984375 13.8125 4.984375 26.8125 
Q 4.984375 40.234375 11.5 48.109375 
Q 18.015625 56 29.109375 56 
Q 39.015625 56 44.796875 48.890625 
Q 50.59375 41.796875 50.59375 29.59375 
z
M 42.484375 32.234375 
Q 42.390625 39.59375 38.765625 43.984375 
Q 35.15625 48.390625 29.203125 48.390625 
Q 22.40625 48.390625 18.328125 44.140625 
Q 14.265625 39.890625 13.671875 32.171875 
z
" id="DejaVuSansCondensed-101"/>
       <path d="M 30.859375 27.484375 
Q 21.046875 27.484375 17.265625 25 
Q 13.484375 22.515625 13.484375 16.5 
Q 13.484375 11.71875 16.3125 8.90625 
Q 19.140625 6.109375 24.03125 6.109375 
Q 30.765625 6.109375 34.8125 11.40625 
Q 38.875 16.703125 38.875 25.484375 
L 38.875 27.484375 
z
M 46.96875 31.203125 
L 46.96875 0 
L 38.875 0 
L 38.875 8.296875 
Q 36.140625 3.328125 32 0.953125 
Q 27.875 -1.421875 21.875 -1.421875 
Q 14.3125 -1.421875 9.859375 3.296875 
Q 5.421875 8.015625 5.421875 15.921875 
Q 5.421875 25.140625 10.953125 29.828125 
Q 16.5 34.515625 27.546875 34.515625 
L 38.875 34.515625 
L 38.875 35.40625 
Q 38.875 41.609375 35.203125 45 
Q 31.546875 48.390625 24.90625 48.390625 
Q 20.703125 48.390625 16.703125 47.265625 
Q 12.703125 46.140625 8.984375 43.890625 
L 8.984375 52.203125 
Q 13.421875 54.109375 17.59375 55.046875 
Q 21.78125 56 25.734375 56 
Q 36.421875 56 41.6875 49.84375 
Q 46.96875 43.703125 46.96875 31.203125 
z
" id="DejaVuSansCondensed-97"/>
       <path d="M 50.796875 66.703125 
L 46.796875 46.703125 
L 45 47 
Q 45 55.296875 42.5 59.296875 
Q 40 63.296875 33.09375 63.296875 
Q 27.90625 63.296875 24.90625 60.640625 
Q 21.90625 58 21.90625 53.296875 
Q 21.90625 49.5 23.5 46.953125 
Q 25.09375 44.40625 31.796875 37.703125 
Q 38.5 30.90625 40.796875 26.796875 
Q 43.09375 22.703125 43.09375 17.703125 
Q 43.09375 9.203125 37.34375 3.703125 
Q 31.59375 -1.796875 22.90625 -1.796875 
Q 19.09375 -1.796875 12.5 0.5 
Q 9.296875 1.703125 7.796875 1.703125 
Q 4.5 1.703125 3.5 -1.5 
L 1.703125 -1.5 
L 5.09375 20.90625 
L 7.09375 20.703125 
Q 6.90625 19.796875 6.90625 18.40625 
Q 6.90625 11.09375 10.953125 6.390625 
Q 15 1.703125 21.296875 1.703125 
Q 27.09375 1.703125 30.75 5.25 
Q 34.40625 8.796875 34.40625 14.5 
Q 34.40625 17.796875 33.09375 20.4375 
Q 31.796875 23.09375 28.40625 26.796875 
L 24.5 31 
Q 24.203125 31.296875 22.796875 32.84375 
Q 21.40625 34.40625 20.59375 35.203125 
Q 16.09375 40 14.59375 43.046875 
Q 13.09375 46.09375 13.09375 50.203125 
Q 13.09375 57.796875 18.25 62.1875 
Q 23.40625 66.59375 30.90625 66.59375 
Q 36.09375 66.59375 39.40625 65.203125 
Q 42.296875 64.09375 44 64.09375 
Q 45.703125 64.09375 46.59375 64.59375 
Q 47.5 65.09375 48.5 66.703125 
z
" id="STIXGeneral-Italic-83"/>
       <path d="M 9.515625 45.40625 
L 65.875 45.40625 
L 65.875 37.203125 
L 9.515625 37.203125 
z
M 9.515625 25.484375 
L 65.875 25.484375 
L 65.875 17.1875 
L 9.515625 17.1875 
z
" id="DejaVuSansCondensed-61"/>
       <path d="M 68.90625 66.40625 
L 65.203125 46.40625 
L 63.40625 46.703125 
Q 61.59375 63 48.5 63 
Q 37.59375 63 28.59375 53.296875 
Q 23.296875 47.703125 20.546875 39.703125 
Q 17.796875 31.703125 17.796875 23.203125 
Q 17.796875 2.703125 35.296875 2.703125 
Q 41.5 2.703125 46.640625 5.296875 
Q 51.796875 7.90625 58.203125 14.59375 
L 60 13.09375 
Q 53.296875 5.203125 46.84375 1.703125 
Q 40.40625 -1.796875 32.703125 -1.796875 
Q 21 -1.796875 13.796875 5.140625 
Q 6.59375 12.09375 6.59375 24.296875 
Q 6.59375 34.59375 11.6875 43.9375 
Q 16.796875 53.296875 25.296875 59.296875 
Q 35.5 66.59375 47.203125 66.59375 
Q 54.09375 66.59375 58.90625 64.90625 
Q 60.90625 64.203125 63 64.203125 
Q 65.703125 64.203125 66.796875 66.40625 
z
" id="STIXGeneral-Italic-67"/>
       <path d="M 18.890625 76.421875 
L 18.890625 -23.578125 
L 11.421875 -23.578125 
L 11.421875 76.421875 
z
" id="DejaVuSansCondensed-124"/>
       <path d="M 69.40625 66.90625 
L 69.40625 64.40625 
Q 66.59375 64 64.640625 62.796875 
Q 62.703125 61.59375 59.5 58.296875 
L 39.59375 37.796875 
L 47.09375 14.09375 
Q 49.203125 7.5 51.25 5.296875 
Q 53.296875 3.09375 58.59375 2.5 
L 58.59375 0 
L 27.90625 0 
L 27.90625 2.5 
Q 32.09375 2.90625 33.34375 3.59375 
Q 34.59375 4.296875 34.59375 6.296875 
Q 34.59375 9.296875 30.90625 20.40625 
L 28.90625 26.40625 
L 15.90625 12 
Q 12.703125 8.5 12.703125 6.5 
Q 12.703125 3.09375 19 2.5 
L 19 0 
L -2.40625 0 
L -2.40625 2.5 
Q -1.40625 2.703125 -0.65625 2.890625 
Q 0.09375 3.09375 1.046875 3.6875 
Q 2 4.296875 2.703125 4.75 
Q 3.40625 5.203125 4.65625 6.34375 
Q 5.90625 7.5 6.75 8.34375 
Q 7.59375 9.203125 9.34375 11.09375 
Q 11.09375 13 12.34375 14.34375 
Q 13.59375 15.703125 16.1875 18.546875 
Q 18.796875 21.40625 20.703125 23.5 
L 27.5 30.90625 
L 19.203125 57.796875 
Q 18 61.796875 16.296875 62.84375 
Q 14.59375 63.90625 9.90625 64.40625 
L 9.90625 66.90625 
L 40.40625 66.90625 
L 40.40625 64.40625 
L 37.5 64.09375 
Q 35 63.90625 34 63.203125 
Q 33 62.5 33 60.796875 
Q 33 58.703125 36.5 47.59375 
L 38.203125 42.09375 
L 47.59375 52 
Q 54.59375 59.40625 54.59375 61.796875 
Q 54.59375 63.90625 51.296875 64.203125 
L 49.203125 64.40625 
L 49.203125 66.90625 
z
" id="STIXGeneral-BoldItalic-88"/>
       <path d="M 7.234375 75.875 
L 14.265625 75.875 
Q 20.84375 64.359375 24.109375 53.3125 
Q 27.390625 42.28125 27.390625 31.390625 
Q 27.390625 20.453125 24.109375 9.375 
Q 20.84375 -1.703125 14.265625 -13.1875 
L 7.234375 -13.1875 
Q 13.03125 -2 15.90625 9.0625 
Q 18.796875 20.125 18.796875 31.390625 
Q 18.796875 42.671875 15.90625 53.65625 
Q 13.03125 64.65625 7.234375 75.875 
z
" id="DejaVuSansCondensed-41"/>
      </defs>
      <use transform="translate(0 0.578125)" xlink:href="#DejaVuSansCondensed-108"/>
      <use transform="translate(25 0.578125)" xlink:href="#DejaVuSansCondensed-111"/>
      <use transform="translate(80.029297 0.578125)" xlink:href="#DejaVuSansCondensed-103"/>
      <use transform="translate(137.158203 0.578125)" xlink:href="#DejaVuSansCondensed-105"/>
      <use transform="translate(162.158203 0.578125)" xlink:href="#DejaVuSansCondensed-116"/>
      <use transform="translate(197.412109 0.578125)" xlink:href="#DejaVuSansCondensed-40"/>
      <use transform="translate(232.519531 0.578125)" xlink:href="#DejaVuSansCondensed-32"/>
      <use transform="translate(261.083984 0.578125)" xlink:href="#STIXGeneral-Italic-80"/>
      <use transform="translate(322.183975 -12.65)scale(0.7)" xlink:href="#DejaVuSansCondensed-105"/>
      <use transform="translate(339.683975 -12.65)scale(0.7)" xlink:href="#DejaVuSansCondensed-100"/>
      <use transform="translate(379.67421 -12.65)scale(0.7)" xlink:href="#DejaVuSansCondensed-101"/>
      <use transform="translate(418.433975 -12.65)scale(0.7)" xlink:href="#DejaVuSansCondensed-97"/>
      <use transform="translate(457.022842 -12.65)scale(0.7)" xlink:href="#DejaVuSansCondensed-108"/>
      <use transform="translate(478.932217 0.578125)" xlink:href="#DejaVuSansCondensed-40"/>
      <use transform="translate(514.039639 0.578125)" xlink:href="#STIXGeneral-Italic-83"/>
      <use transform="translate(578.47962 0.578125)" xlink:href="#DejaVuSansCondensed-61"/>
      <use transform="translate(668.310242 0.578125)" xlink:href="#STIXGeneral-Italic-67"/>
      <use transform="translate(747.04381 0.578125)" xlink:href="#DejaVuSansCondensed-124"/>
      <use transform="translate(789.399646 0.578125)" xlink:href="#STIXGeneral-BoldItalic-88"/>
      <use transform="translate(856.099643 0.578125)" xlink:href="#DejaVuSansCondensed-41"/>
      <use transform="translate(891.207065 0.578125)" xlink:href="#DejaVuSansCondensed-32"/>
      <use transform="translate(919.771518 0.578125)" xlink:href="#DejaVuSansCondensed-41"/>
     </g>
    </g>
   </g>
   <g id="matplotlib.axis_2">
    <g id="ytick_1">
     <g id="line2d_10">
      <defs>
       <path d="M 0 0 
L 3 0 
" id="mf0aa977b87" style="stroke:#000000;stroke-width:0.5;"/>
      </defs>
      <g>
       <use style="stroke:#000000;stroke-width:0.5;" x="31.25" xlink:href="#mf0aa977b87" y="142.39874"/>
      </g>
     </g>
     <g id="text_9">
      <!-- 0.0 -->
      <g transform="translate(18.8075 145.438115)scale(0.08 -0.08)">
       <defs>
        <path d="M 9.625 12.40625 
L 18.890625 12.40625 
L 18.890625 0 
L 9.625 0 
z
" id="DejaVuSansCondensed-46"/>
       </defs>
       <use xlink:href="#DejaVuSansCondensed-48"/>
       <use x="57.226562" xlink:href="#DejaVuSansCondensed-46"/>
       <use x="85.791016" xlink:href="#DejaVuSansCondensed-48"/>
      </g>
     </g>
    </g>
    <g id="ytick_2">
     <g id="line2d_11">
      <g>
       <use style="stroke:#000000;stroke-width:0.5;" x="31.25" xlink:href="#mf0aa977b87" y="116.270992"/>
      </g>
     </g>
     <g id="text_10">
      <!-- 0.2 -->
      <g transform="translate(18.8075 119.310367)scale(0.08 -0.08)">
       <use xlink:href="#DejaVuSansCondensed-48"/>
       <use x="57.226562" xlink:href="#DejaVuSansCondensed-46"/>
       <use x="85.791016" xlink:href="#DejaVuSansCondensed-50"/>
      </g>
     </g>
    </g>
    <g id="ytick_3">
     <g id="line2d_12">
      <g>
       <use style="stroke:#000000;stroke-width:0.5;" x="31.25" xlink:href="#mf0aa977b87" y="90.143244"/>
      </g>
     </g>
     <g id="text_11">
      <!-- 0.4 -->
      <g transform="translate(18.8075 93.182619)scale(0.08 -0.08)">
       <use xlink:href="#DejaVuSansCondensed-48"/>
       <use x="57.226562" xlink:href="#DejaVuSansCondensed-46"/>
       <use x="85.791016" xlink:href="#DejaVuSansCondensed-52"/>
      </g>
     </g>
    </g>
    <g id="ytick_4">
     <g id="line2d_13">
      <g>
       <use style="stroke:#000000;stroke-width:0.5;" x="31.25" xlink:href="#mf0aa977b87" y="64.015496"/>
      </g>
     </g>
     <g id="text_12">
      <!-- 0.6 -->
      <g transform="translate(18.8075 67.054871)scale(0.08 -0.08)">
       <use xlink:href="#DejaVuSansCondensed-48"/>
       <use x="57.226562" xlink:href="#DejaVuSansCondensed-46"/>
       <use x="85.791016" xlink:href="#DejaVuSansCondensed-54"/>
      </g>
     </g>
    </g>
    <g id="ytick_5">
     <g id="line2d_14">
      <g>
       <use style="stroke:#000000;stroke-width:0.5;" x="31.25" xlink:href="#mf0aa977b87" y="37.887748"/>
      </g>
     </g>
     <g id="text_13">
      <!-- 0.8 -->
      <g transform="translate(18.8075 40.927123)scale(0.08 -0.08)">
       <defs>
        <path d="M 28.609375 34.625 
Q 22.265625 34.625 18.65625 30.859375 
Q 15.046875 27.09375 15.046875 20.515625 
Q 15.046875 13.921875 18.65625 10.15625 
Q 22.265625 6.390625 28.609375 6.390625 
Q 34.96875 6.390625 38.59375 10.171875 
Q 42.234375 13.96875 42.234375 20.515625 
Q 42.234375 27.09375 38.59375 30.859375 
Q 34.96875 34.625 28.609375 34.625 
z
M 19.734375 38.8125 
Q 14.015625 40.375 10.84375 44.71875 
Q 7.671875 49.078125 7.671875 55.328125 
Q 7.671875 64.0625 13.25 69.140625 
Q 18.84375 74.21875 28.609375 74.21875 
Q 38.421875 74.21875 43.984375 69.140625 
Q 49.5625 64.0625 49.5625 55.328125 
Q 49.5625 49.078125 46.390625 44.71875 
Q 43.21875 40.375 37.546875 38.8125 
Q 43.953125 37.15625 47.53125 32.3125 
Q 51.125 27.484375 51.125 20.515625 
Q 51.125 9.90625 45.28125 4.234375 
Q 39.453125 -1.421875 28.609375 -1.421875 
Q 17.78125 -1.421875 11.9375 4.234375 
Q 6.109375 9.90625 6.109375 20.515625 
Q 6.109375 27.484375 9.71875 32.3125 
Q 13.328125 37.15625 19.734375 38.8125 
z
M 16.5 54.390625 
Q 16.5 48.734375 19.671875 45.5625 
Q 22.859375 42.390625 28.609375 42.390625 
Q 34.328125 42.390625 37.546875 45.5625 
Q 40.765625 48.734375 40.765625 54.390625 
Q 40.765625 60.0625 37.546875 63.234375 
Q 34.328125 66.40625 28.609375 66.40625 
Q 22.859375 66.40625 19.671875 63.234375 
Q 16.5 60.0625 16.5 54.390625 
z
" id="DejaVuSansCondensed-56"/>
       </defs>
       <use xlink:href="#DejaVuSansCondensed-48"/>
       <use x="57.226562" xlink:href="#DejaVuSansCondensed-46"/>
       <use x="85.791016" xlink:href="#DejaVuSansCondensed-56"/>
      </g>
     </g>
    </g>
    <g id="ytick_6">
     <g id="line2d_15">
      <g>
       <use style="stroke:#000000;stroke-width:0.5;" x="31.25" xlink:href="#mf0aa977b87" y="11.76"/>
      </g>
     </g>
     <g id="text_14">
      <!-- 1.0 -->
      <g transform="translate(18.8075 14.799375)scale(0.08 -0.08)">
       <defs>
        <path d="M 11.1875 8.296875 
L 25.6875 8.296875 
L 25.6875 63.921875 
L 9.859375 60.40625 
L 9.859375 69.390625 
L 25.59375 72.90625 
L 34.46875 72.90625 
L 34.46875 8.296875 
L 48.96875 8.296875 
L 48.96875 0 
L 11.1875 0 
z
" id="DejaVuSansCondensed-49"/>
       </defs>
       <use xlink:href="#DejaVuSansCondensed-49"/>
       <use x="57.226562" xlink:href="#DejaVuSansCondensed-46"/>
       <use x="85.791016" xlink:href="#DejaVuSansCondensed-48"/>
      </g>
     </g>
    </g>
    <g id="text_15">
     <!-- $P$(choice=$C\,|\,\bf{X}$) -->
     <g transform="translate(15.8875 104.51937)rotate(-90)scale(0.08 -0.08)">
      <defs>
       <path d="M 43.890625 52.59375 
L 43.890625 44.1875 
Q 40.484375 46.296875 37.03125 47.34375 
Q 33.59375 48.390625 30.078125 48.390625 
Q 22.171875 48.390625 17.828125 42.84375 
Q 13.484375 37.3125 13.484375 27.296875 
Q 13.484375 17.28125 17.828125 11.734375 
Q 22.171875 6.203125 30.078125 6.203125 
Q 33.59375 6.203125 37.03125 7.25 
Q 40.484375 8.296875 43.890625 10.40625 
L 43.890625 2.09375 
Q 40.53125 0.34375 36.890625 -0.53125 
Q 33.25 -1.421875 29.203125 -1.421875 
Q 18.0625 -1.421875 11.515625 6.34375 
Q 4.984375 14.109375 4.984375 27.296875 
Q 4.984375 40.671875 11.59375 48.328125 
Q 18.21875 56 29.6875 56 
Q 33.453125 56 37.015625 55.140625 
Q 40.578125 54.296875 43.890625 52.59375 
z
" id="DejaVuSansCondensed-99"/>
       <path d="M 49.421875 33.015625 
L 49.421875 0 
L 41.3125 0 
L 41.3125 32.71875 
Q 41.3125 40.484375 38.578125 44.328125 
Q 35.84375 48.1875 30.421875 48.1875 
Q 23.875 48.1875 20.09375 43.546875 
Q 16.3125 38.921875 16.3125 30.90625 
L 16.3125 0 
L 8.15625 0 
L 8.15625 75.984375 
L 16.3125 75.984375 
L 16.3125 46.1875 
Q 19.1875 51.125 23.109375 53.5625 
Q 27.046875 56 32.234375 56 
Q 40.671875 56 45.046875 50.171875 
Q 49.421875 44.34375 49.421875 33.015625 
z
" id="DejaVuSansCondensed-104"/>
      </defs>
      <use transform="translate(0 0.578125)" xlink:href="#STIXGeneral-Italic-80"/>
      <use transform="translate(61.099991 0.578125)" xlink:href="#DejaVuSansCondensed-40"/>
      <use transform="translate(96.207413 0.578125)" xlink:href="#DejaVuSansCondensed-99"/>
      <use transform="translate(145.670303 0.578125)" xlink:href="#DejaVuSansCondensed-104"/>
      <use transform="translate(202.701553 0.578125)" xlink:href="#DejaVuSansCondensed-111"/>
      <use transform="translate(257.73085 0.578125)" xlink:href="#DejaVuSansCondensed-105"/>
      <use transform="translate(282.73085 0.578125)" xlink:href="#DejaVuSansCondensed-99"/>
      <use transform="translate(332.193741 0.578125)" xlink:href="#DejaVuSansCondensed-101"/>
      <use transform="translate(387.564835 0.578125)" xlink:href="#DejaVuSansCondensed-61"/>
      <use transform="translate(462.95546 0.578125)" xlink:href="#STIXGeneral-Italic-67"/>
      <use transform="translate(541.689027 0.578125)" xlink:href="#DejaVuSansCondensed-124"/>
      <use transform="translate(584.044864 0.578125)" xlink:href="#STIXGeneral-BoldItalic-88"/>
      <use transform="translate(650.744861 0.578125)" xlink:href="#DejaVuSansCondensed-41"/>
     </g>
    </g>
   </g>
   <g id="LineCollection_1">
    <path clip-path="url(#p1d37403efd)" d="M 41.033096 123.651593 
L 41.033096 106.140102 
" style="fill:none;stroke:#483d8b;stroke-width:0.5;"/>
    <path clip-path="url(#p1d37403efd)" d="M 77.689588 116.820775 
L 77.689588 105.378976 
" style="fill:none;stroke:#483d8b;stroke-width:0.5;"/>
    <path clip-path="url(#p1d37403efd)" d="M 99.760257 101.404884 
L 99.760257 94.301259 
" style="fill:none;stroke:#483d8b;stroke-width:0.5;"/>
    <path clip-path="url(#p1d37403efd)" d="M 120.510509 71.935584 
L 120.510509 64.105374 
" style="fill:none;stroke:#483d8b;stroke-width:0.5;"/>
    <path clip-path="url(#p1d37403efd)" d="M 142.359646 52.335333 
L 142.359646 44.243299 
" style="fill:none;stroke:#483d8b;stroke-width:0.5;"/>
    <path clip-path="url(#p1d37403efd)" d="M 166.241608 48.19922 
L 166.241608 37.848724 
" style="fill:none;stroke:#483d8b;stroke-width:0.5;"/>
    <path clip-path="url(#p1d37403efd)" d="M 186.975859 46.095503 
L 186.975859 32.846993 
" style="fill:none;stroke:#483d8b;stroke-width:0.5;"/>
    <path clip-path="url(#p1d37403efd)" d="M 236.695014 25.186323 
L 236.695014 17.999724 
" style="fill:none;stroke:#483d8b;stroke-width:0.5;"/>
   </g>
   <g id="line2d_16">
    <defs>
     <path d="M 2 0 
L -2 -0 
" id="m45f317a6e1" style="stroke:#483d8b;stroke-width:0.5;"/>
    </defs>
    <g clip-path="url(#p1d37403efd)">
     <use style="fill:#483d8b;stroke:#483d8b;stroke-width:0.5;" x="41.033096" xlink:href="#m45f317a6e1" y="123.651593"/>
     <use style="fill:#483d8b;stroke:#483d8b;stroke-width:0.5;" x="77.689588" xlink:href="#m45f317a6e1" y="116.820775"/>
     <use style="fill:#483d8b;stroke:#483d8b;stroke-width:0.5;" x="99.760257" xlink:href="#m45f317a6e1" y="101.404884"/>
     <use style="fill:#483d8b;stroke:#483d8b;stroke-width:0.5;" x="120.510509" xlink:href="#m45f317a6e1" y="71.935584"/>
     <use style="fill:#483d8b;stroke:#483d8b;stroke-width:0.5;" x="142.359646" xlink:href="#m45f317a6e1" y="52.335333"/>
     <use style="fill:#483d8b;stroke:#483d8b;stroke-width:0.5;" x="166.241608" xlink:href="#m45f317a6e1" y="48.19922"/>
     <use style="fill:#483d8b;stroke:#483d8b;stroke-width:0.5;" x="186.975859" xlink:href="#m45f317a6e1" y="46.095503"/>
     <use style="fill:#483d8b;stroke:#483d8b;stroke-width:0.5;" x="236.695014" xlink:href="#m45f317a6e1" y="25.186323"/>
    </g>
   </g>
   <g id="line2d_17">
    <g clip-path="url(#p1d37403efd)">
     <use style="fill:#483d8b;stroke:#483d8b;stroke-width:0.5;" x="41.033096" xlink:href="#m45f317a6e1" y="106.140102"/>
     <use style="fill:#483d8b;stroke:#483d8b;stroke-width:0.5;" x="77.689588" xlink:href="#m45f317a6e1" y="105.378976"/>
     <use style="fill:#483d8b;stroke:#483d8b;stroke-width:0.5;" x="99.760257" xlink:href="#m45f317a6e1" y="94.301259"/>
     <use style="fill:#483d8b;stroke:#483d8b;stroke-width:0.5;" x="120.510509" xlink:href="#m45f317a6e1" y="64.105374"/>
     <use style="fill:#483d8b;stroke:#483d8b;stroke-width:0.5;" x="142.359646" xlink:href="#m45f317a6e1" y="44.243299"/>
     <use style="fill:#483d8b;stroke:#483d8b;stroke-width:0.5;" x="166.241608" xlink:href="#m45f317a6e1" y="37.848724"/>
     <use style="fill:#483d8b;stroke:#483d8b;stroke-width:0.5;" x="186.975859" xlink:href="#m45f317a6e1" y="32.846993"/>
     <use style="fill:#483d8b;stroke:#483d8b;stroke-width:0.5;" x="236.695014" xlink:href="#m45f317a6e1" y="17.999724"/>
    </g>
   </g>
   <g id="line2d_18">
    <defs>
     <path d="M 0 0.5 
C 0.132602 0.5 0.25979 0.447317 0.353553 0.353553 
C 0.447317 0.25979 0.5 0.132602 0.5 0 
C 0.5 -0.132602 0.447317 -0.25979 0.353553 -0.353553 
C 0.25979 -0.447317 0.132602 -0.5 0 -0.5 
C -0.132602 -0.5 -0.25979 -0.447317 -0.353553 -0.353553 
C -0.447317 -0.25979 -0.5 -0.132602 -0.5 0 
C -0.5 0.132602 -0.447317 0.25979 -0.353553 0.353553 
C -0.25979 0.447317 -0.132602 0.5 0 0.5 
z
" id="m4fe1f86d07" style="stroke:#483d8b;"/>
    </defs>
    <g clip-path="url(#p1d37403efd)">
     <use style="fill:#483d8b;stroke:#483d8b;" x="41.033096" xlink:href="#m4fe1f86d07" y="114.895847"/>
     <use style="fill:#483d8b;stroke:#483d8b;" x="77.689588" xlink:href="#m4fe1f86d07" y="111.099875"/>
     <use style="fill:#483d8b;stroke:#483d8b;" x="99.760257" xlink:href="#m4fe1f86d07" y="97.853071"/>
     <use style="fill:#483d8b;stroke:#483d8b;" x="120.510509" xlink:href="#m4fe1f86d07" y="68.020479"/>
     <use style="fill:#483d8b;stroke:#483d8b;" x="142.359646" xlink:href="#m4fe1f86d07" y="48.289316"/>
     <use style="fill:#483d8b;stroke:#483d8b;" x="166.241608" xlink:href="#m4fe1f86d07" y="43.023972"/>
     <use style="fill:#483d8b;stroke:#483d8b;" x="186.975859" xlink:href="#m4fe1f86d07" y="39.471248"/>
     <use style="fill:#483d8b;stroke:#483d8b;" x="236.695014" xlink:href="#m4fe1f86d07" y="21.593023"/>
    </g>
   </g>
   <g id="patch_3">
    <path d="M 31.25 142.39874 
L 31.25 11.76 
" style="fill:none;stroke:#000000;stroke-linecap:square;stroke-linejoin:miter;stroke-width:0.5;"/>
   </g>
   <g id="patch_4">
    <path d="M 31.25 142.39874 
L 246.47811 142.39874 
" style="fill:none;stroke:#000000;stroke-linecap:square;stroke-linejoin:miter;stroke-width:0.5;"/>
   </g>
   <g id="legend_1">
    <g id="patch_5">
     <path d="M 183.36561 141.59874 
L 244.07811 141.59874 
Q 245.67811 141.59874 245.67811 139.99874 
L 245.67811 116.04749 
Q 245.67811 114.44749 244.07811 114.44749 
L 183.36561 114.44749 
Q 181.76561 114.44749 181.76561 116.04749 
L 181.76561 139.99874 
Q 181.76561 141.59874 183.36561 141.59874 
z
" style="fill:#ffffff;opacity:0.8;stroke:#cccccc;stroke-linejoin:miter;"/>
    </g>
    <g id="LineCollection_2">
     <path d="M 186.56561 120.40749 
L 186.56561 116.40749 
" style="fill:none;stroke:#483d8b;stroke-width:0.5;"/>
    </g>
    <g id="line2d_19">
     <g>
      <use style="fill:#483d8b;stroke:#483d8b;stroke-width:0.5;" x="186.56561" xlink:href="#m45f317a6e1" y="120.40749"/>
     </g>
    </g>
    <g id="line2d_20">
     <g>
      <use style="fill:#483d8b;stroke:#483d8b;stroke-width:0.5;" x="186.56561" xlink:href="#m45f317a6e1" y="116.40749"/>
     </g>
    </g>
    <g id="line2d_21"/>
    <g id="line2d_22">
     <g>
      <use style="fill:#483d8b;stroke:#483d8b;" x="186.56561" xlink:href="#m4fe1f86d07" y="118.40749"/>
     </g>
    </g>
    <g id="text_16">
     <!-- Human $\pm$ sem -->
     <g transform="translate(191.36561 121.56749)scale(0.08 -0.08)">
      <defs>
       <path d="M 8.84375 72.90625 
L 17.71875 72.90625 
L 17.71875 43.015625 
L 49.953125 43.015625 
L 49.953125 72.90625 
L 58.84375 72.90625 
L 58.84375 0 
L 49.953125 0 
L 49.953125 34.71875 
L 17.71875 34.71875 
L 17.71875 0 
L 8.84375 0 
z
" id="DejaVuSansCondensed-72"/>
       <path d="M 7.671875 21.578125 
L 7.671875 54.6875 
L 15.71875 54.6875 
L 15.71875 21.921875 
Q 15.71875 14.15625 18.453125 10.265625 
Q 21.1875 6.390625 26.609375 6.390625 
Q 33.203125 6.390625 36.984375 11.03125 
Q 40.765625 15.671875 40.765625 23.6875 
L 40.765625 54.6875 
L 48.875 54.6875 
L 48.875 0 
L 40.765625 0 
L 40.765625 8.40625 
Q 37.84375 3.421875 33.953125 1 
Q 30.078125 -1.421875 24.90625 -1.421875 
Q 16.453125 -1.421875 12.0625 4.4375 
Q 7.671875 10.296875 7.671875 21.578125 
z
M 27.984375 56 
z
" id="DejaVuSansCondensed-117"/>
       <path d="M 46.78125 44.1875 
Q 49.859375 50.25 54.046875 53.125 
Q 58.25 56 63.96875 56 
Q 71.6875 56 75.859375 50.015625 
Q 80.03125 44.046875 80.03125 33.015625 
L 80.03125 0 
L 71.875 0 
L 71.875 32.71875 
Q 71.875 40.578125 69.375 44.375 
Q 66.890625 48.1875 61.71875 48.1875 
Q 55.46875 48.1875 51.796875 43.546875 
Q 48.140625 38.921875 48.140625 30.90625 
L 48.140625 0 
L 40.046875 0 
L 40.046875 32.71875 
Q 40.046875 40.625 37.53125 44.40625 
Q 35.015625 48.1875 29.78125 48.1875 
Q 23.578125 48.1875 19.9375 43.53125 
Q 16.3125 38.875 16.3125 30.90625 
L 16.3125 0 
L 8.15625 0 
L 8.15625 54.6875 
L 16.3125 54.6875 
L 16.3125 46.1875 
Q 19.09375 51.21875 22.953125 53.609375 
Q 26.8125 56 32.125 56 
Q 37.5 56 41.25 52.96875 
Q 45.015625 49.953125 46.78125 44.1875 
z
" id="DejaVuSansCondensed-109"/>
       <path d="M 49.421875 33.015625 
L 49.421875 0 
L 41.3125 0 
L 41.3125 32.71875 
Q 41.3125 40.484375 38.578125 44.328125 
Q 35.84375 48.1875 30.421875 48.1875 
Q 23.875 48.1875 20.09375 43.546875 
Q 16.3125 38.921875 16.3125 30.90625 
L 16.3125 0 
L 8.15625 0 
L 8.15625 54.6875 
L 16.3125 54.6875 
L 16.3125 46.1875 
Q 19.1875 51.125 23.109375 53.5625 
Q 27.046875 56 32.234375 56 
Q 40.671875 56 45.046875 50.171875 
Q 49.421875 44.34375 49.421875 33.015625 
z
" id="DejaVuSansCondensed-110"/>
       <path d="M 41.40625 62.703125 
L 41.40625 43.796875 
L 65.875 43.796875 
L 65.875 35.5 
L 41.40625 35.5 
L 41.40625 16.609375 
L 34.03125 16.609375 
L 34.03125 35.5 
L 9.515625 35.5 
L 9.515625 43.796875 
L 34.03125 43.796875 
L 34.03125 62.703125 
z
M 9.515625 8.296875 
L 65.875 8.296875 
L 65.875 0 
L 9.515625 0 
z
" id="DejaVuSansCondensed-177"/>
       <path d="M 39.84375 53.078125 
L 39.84375 44.578125 
Q 36.421875 46.53125 32.734375 47.5 
Q 29.046875 48.484375 25.09375 48.484375 
Q 19.09375 48.484375 16.0625 46.4375 
Q 13.03125 44.390625 13.03125 40.28125 
Q 13.03125 37.15625 15.203125 35.375 
Q 17.390625 33.59375 23.875 31.984375 
L 26.609375 31.296875 
Q 35.25 29.25 38.859375 25.515625 
Q 42.484375 21.78125 42.484375 15.09375 
Q 42.484375 7.46875 37.0625 3.015625 
Q 31.640625 -1.421875 22.171875 -1.421875 
Q 18.21875 -1.421875 13.921875 -0.5625 
Q 9.625 0.296875 4.890625 2 
L 4.890625 11.28125 
Q 9.375 8.6875 13.71875 7.390625 
Q 18.0625 6.109375 22.3125 6.109375 
Q 28.03125 6.109375 31.109375 8.28125 
Q 34.1875 10.453125 34.1875 14.40625 
Q 34.1875 18.0625 31.953125 20.015625 
Q 29.734375 21.96875 22.21875 23.78125 
L 19.4375 24.515625 
Q 11.921875 26.265625 8.5625 29.90625 
Q 5.21875 33.546875 5.21875 39.890625 
Q 5.21875 47.609375 10.15625 51.796875 
Q 15.09375 56 24.125 56 
Q 28.609375 56 32.5625 55.265625 
Q 36.53125 54.546875 39.84375 53.078125 
z
" id="DejaVuSansCondensed-115"/>
      </defs>
      <use transform="translate(0 0.09375)" xlink:href="#DejaVuSansCondensed-72"/>
      <use transform="translate(67.675781 0.09375)" xlink:href="#DejaVuSansCondensed-117"/>
      <use transform="translate(124.707031 0.09375)" xlink:href="#DejaVuSansCondensed-109"/>
      <use transform="translate(212.353516 0.09375)" xlink:href="#DejaVuSansCondensed-97"/>
      <use transform="translate(267.480469 0.09375)" xlink:href="#DejaVuSansCondensed-110"/>
      <use transform="translate(324.511719 0.09375)" xlink:href="#DejaVuSansCondensed-32"/>
      <use transform="translate(353.076172 0.09375)" xlink:href="#DejaVuSansCondensed-177"/>
      <use transform="translate(428.466797 0.09375)" xlink:href="#DejaVuSansCondensed-32"/>
      <use transform="translate(457.03125 0.09375)" xlink:href="#DejaVuSansCondensed-115"/>
      <use transform="translate(503.90625 0.09375)" xlink:href="#DejaVuSansCondensed-101"/>
      <use transform="translate(559.277344 0.09375)" xlink:href="#DejaVuSansCondensed-109"/>
     </g>
    </g>
    <g id="line2d_23">
     <path d="M 182.56561 127.19124 
L 190.56561 127.19124 
" style="fill:none;stroke:#6a5acd;stroke-linecap:square;stroke-width:0.5;"/>
    </g>
    <g id="line2d_24"/>
    <g id="text_17">
     <!-- Fitted model -->
     <g transform="translate(191.36561 130.35124)scale(0.08 -0.08)">
      <defs>
       <path d="M 8.84375 72.90625 
L 46.53125 72.90625 
L 46.53125 64.59375 
L 17.71875 64.59375 
L 17.71875 43.109375 
L 43.75 43.109375 
L 43.75 34.8125 
L 17.71875 34.8125 
L 17.71875 0 
L 8.84375 0 
z
" id="DejaVuSansCondensed-70"/>
      </defs>
      <use xlink:href="#DejaVuSansCondensed-70"/>
      <use x="44.507812" xlink:href="#DejaVuSansCondensed-105"/>
      <use x="69.507812" xlink:href="#DejaVuSansCondensed-116"/>
      <use x="104.761719" xlink:href="#DejaVuSansCondensed-116"/>
      <use x="140.015625" xlink:href="#DejaVuSansCondensed-101"/>
      <use x="195.386719" xlink:href="#DejaVuSansCondensed-100"/>
      <use x="252.515625" xlink:href="#DejaVuSansCondensed-32"/>
      <use x="281.080078" xlink:href="#DejaVuSansCondensed-109"/>
      <use x="368.726562" xlink:href="#DejaVuSansCondensed-111"/>
      <use x="423.755859" xlink:href="#DejaVuSansCondensed-100"/>
      <use x="480.884766" xlink:href="#DejaVuSansCondensed-101"/>
      <use x="536.255859" xlink:href="#DejaVuSansCondensed-108"/>
     </g>
    </g>
    <g id="line2d_25">
     <path d="M 182.56561 135.97499 
L 190.56561 135.97499 
" style="fill:none;stroke:#1e90ff;stroke-dasharray:1.85,0.8;stroke-dashoffset:0;stroke-width:0.5;"/>
    </g>
    <g id="line2d_26"/>
    <g id="text_18">
     <!-- Transfer model -->
     <g transform="translate(191.36561 139.13499)scale(0.08 -0.08)">
      <defs>
       <path d="M -0.203125 72.90625 
L 55.28125 72.90625 
L 55.28125 64.59375 
L 31.984375 64.59375 
L 31.984375 0 
L 23.09375 0 
L 23.09375 64.59375 
L -0.203125 64.59375 
z
" id="DejaVuSansCondensed-84"/>
       <path d="M 37.015625 46.296875 
Q 35.640625 47.171875 34.03125 47.578125 
Q 32.421875 48 30.515625 48 
Q 23.640625 48 19.96875 43.046875 
Q 16.3125 38.09375 16.3125 28.8125 
L 16.3125 0 
L 8.15625 0 
L 8.15625 54.6875 
L 16.3125 54.6875 
L 16.3125 46.1875 
Q 18.84375 51.171875 22.9375 53.578125 
Q 27.046875 56 32.859375 56 
Q 33.6875 56 34.71875 55.875 
Q 35.75 55.765625 36.96875 55.515625 
z
" id="DejaVuSansCondensed-114"/>
       <path d="M 33.40625 75.984375 
L 33.40625 68.5 
L 25.6875 68.5 
Q 21.296875 68.5 19.609375 66.546875 
Q 17.921875 64.59375 17.921875 59.515625 
L 17.921875 54.6875 
L 31.25 54.6875 
L 31.25 47.703125 
L 17.921875 47.703125 
L 17.921875 0 
L 9.8125 0 
L 9.8125 47.703125 
L 2.046875 47.703125 
L 2.046875 54.6875 
L 9.8125 54.6875 
L 9.8125 58.5 
Q 9.8125 67.625 13.625 71.796875 
Q 17.4375 75.984375 25.734375 75.984375 
z
" id="DejaVuSansCondensed-102"/>
      </defs>
      <use xlink:href="#DejaVuSansCondensed-84"/>
      <use x="40.181641" xlink:href="#DejaVuSansCondensed-114"/>
      <use x="77.144531" xlink:href="#DejaVuSansCondensed-97"/>
      <use x="132.271484" xlink:href="#DejaVuSansCondensed-110"/>
      <use x="189.302734" xlink:href="#DejaVuSansCondensed-115"/>
      <use x="236.177734" xlink:href="#DejaVuSansCondensed-102"/>
      <use x="267.818359" xlink:href="#DejaVuSansCondensed-101"/>
      <use x="323.189453" xlink:href="#DejaVuSansCondensed-114"/>
      <use x="360.152344" xlink:href="#DejaVuSansCondensed-32"/>
      <use x="388.716797" xlink:href="#DejaVuSansCondensed-109"/>
      <use x="476.363281" xlink:href="#DejaVuSansCondensed-111"/>
      <use x="531.392578" xlink:href="#DejaVuSansCondensed-100"/>
      <use x="588.521484" xlink:href="#DejaVuSansCondensed-101"/>
      <use x="643.892578" xlink:href="#DejaVuSansCondensed-108"/>
     </g>
    </g>
   </g>
  </g>
 </g>
 <defs>
  <clipPath id="p1d37403efd">
   <rect height="130.63874" width="215.22811" x="31.25" y="11.76"/>
  </clipPath>
 </defs>
</svg>
