<?xml version="1.0" encoding="utf-8" standalone="no"?>
<!DOCTYPE svg PUBLIC "-//W3C//DTD SVG 1.1//EN"
  "http://www.w3.org/Graphics/SVG/1.1/DTD/svg11.dtd">
<!-- Created with matplotlib (https://matplotlib.org/) -->
<svg height="226.771654pt" version="1.1" viewBox="0 0 255.11811 226.771654" width="255.11811pt" xmlns="http://www.w3.org/2000/svg" xmlns:xlink="http://www.w3.org/1999/xlink">
 <metadata>
  <rdf:RDF xmlns:cc="http://creativecommons.org/ns#" xmlns:dc="http://purl.org/dc/elements/1.1/" xmlns:rdf="http://www.w3.org/1999/02/22-rdf-syntax-ns#">
   <cc:Work>
    <dc:type rdf:resource="http://purl.org/dc/dcmitype/StillImage"/>
    <dc:date>2020-11-05T00:04:33.477545</dc:date>
    <dc:format>image/svg+xml</dc:format>
    <dc:creator>
     <cc:Agent>
      <dc:title>Matplotlib v3.3.0, https://matplotlib.org/</dc:title>
     </cc:Agent>
    </dc:creator>
   </cc:Work>
  </rdf:RDF>
 </metadata>
 <defs>
  <style type="text/css">*{stroke-linecap:butt;stroke-linejoin:round;}</style>
 </defs>
 <g id="figure_1">
  <g id="patch_1">
   <path d="M 0 226.771654 
L 255.11811 226.771654 
L 255.11811 0 
L 0 0 
z
" style="fill:none;"/>
  </g>
  <g id="axes_1">
   <g id="patch_2">
    <path d="M 31.25 165.654862 
L 244.418563 165.654862 
L 244.418563 11.76 
L 31.25 11.76 
z
" style="fill:none;"/>
   </g>
   <g id="matplotlib.axis_1"/>
   <g id="matplotlib.axis_2">
    <g id="ytick_1">
     <g id="line2d_1">
      <defs>
       <path d="M 0 0 
L 3 0 
" id="m484690576f" style="stroke:#000000;stroke-width:0.5;"/>
      </defs>
      <g>
       <use style="stroke:#000000;stroke-width:0.5;" x="31.25" xlink:href="#m484690576f" y="165.654862"/>
      </g>
     </g>
     <g id="text_1">
      <!-- 0.0 -->
      <g transform="translate(18.8075 168.694237)scale(0.08 -0.08)">
       <defs>
        <path d="M 28.609375 66.40625 
Q 21.78125 66.40625 18.3125 58.90625 
Q 14.84375 51.421875 14.84375 36.375 
Q 14.84375 21.390625 18.3125 13.890625 
Q 21.78125 6.390625 28.609375 6.390625 
Q 35.5 6.390625 38.9375 13.890625 
Q 42.390625 21.390625 42.390625 36.375 
Q 42.390625 51.421875 38.9375 58.90625 
Q 35.5 66.40625 28.609375 66.40625 
z
M 28.609375 74.21875 
Q 39.65625 74.21875 45.453125 64.515625 
Q 51.265625 54.828125 51.265625 36.375 
Q 51.265625 17.96875 45.453125 8.265625 
Q 39.65625 -1.421875 28.609375 -1.421875 
Q 17.578125 -1.421875 11.765625 8.265625 
Q 5.953125 17.96875 5.953125 36.375 
Q 5.953125 54.828125 11.765625 64.515625 
Q 17.578125 74.21875 28.609375 74.21875 
z
" id="DejaVuSansCondensed-48"/>
        <path d="M 9.625 12.40625 
L 18.890625 12.40625 
L 18.890625 0 
L 9.625 0 
z
" id="DejaVuSansCondensed-46"/>
       </defs>
       <use xlink:href="#DejaVuSansCondensed-48"/>
       <use x="57.226562" xlink:href="#DejaVuSansCondensed-46"/>
       <use x="85.791016" xlink:href="#DejaVuSansCondensed-48"/>
      </g>
     </g>
    </g>
    <g id="ytick_2">
     <g id="line2d_2">
      <g>
       <use style="stroke:#000000;stroke-width:0.5;" x="31.25" xlink:href="#m484690576f" y="134.875889"/>
      </g>
     </g>
     <g id="text_2">
      <!-- 0.2 -->
      <g transform="translate(18.8075 137.915264)scale(0.08 -0.08)">
       <defs>
        <path d="M 17.28125 8.296875 
L 48.25 8.296875 
L 48.25 0 
L 6.59375 0 
L 6.59375 8.296875 
Q 11.625 14.109375 20.359375 23.890625 
Q 29.109375 33.6875 31.34375 36.53125 
Q 35.59375 41.84375 37.28125 45.53125 
Q 38.96875 49.21875 38.96875 52.78125 
Q 38.96875 58.59375 35.296875 62.25 
Q 31.640625 65.921875 25.734375 65.921875 
Q 21.578125 65.921875 16.9375 64.3125 
Q 12.3125 62.703125 7.03125 59.421875 
L 7.03125 69.390625 
Q 12.40625 71.78125 17.0625 73 
Q 21.734375 74.21875 25.59375 74.21875 
Q 35.796875 74.21875 41.84375 68.546875 
Q 47.90625 62.890625 47.90625 53.421875 
Q 47.90625 48.921875 46.390625 44.890625 
Q 44.875 40.875 40.875 35.40625 
Q 39.75 33.984375 33.859375 27.21875 
Q 27.984375 20.453125 17.28125 8.296875 
z
" id="DejaVuSansCondensed-50"/>
       </defs>
       <use xlink:href="#DejaVuSansCondensed-48"/>
       <use x="57.226562" xlink:href="#DejaVuSansCondensed-46"/>
       <use x="85.791016" xlink:href="#DejaVuSansCondensed-50"/>
      </g>
     </g>
    </g>
    <g id="ytick_3">
     <g id="line2d_3">
      <g>
       <use style="stroke:#000000;stroke-width:0.5;" x="31.25" xlink:href="#m484690576f" y="104.096917"/>
      </g>
     </g>
     <g id="text_3">
      <!-- 0.4 -->
      <g transform="translate(18.8075 107.136292)scale(0.08 -0.08)">
       <defs>
        <path d="M 34.03125 64.3125 
L 11.625 25.390625 
L 34.03125 25.390625 
z
M 31.6875 72.90625 
L 42.875 72.90625 
L 42.875 25.390625 
L 52.203125 25.390625 
L 52.203125 17.1875 
L 42.875 17.1875 
L 42.875 0 
L 34.03125 0 
L 34.03125 17.1875 
L 4.390625 17.1875 
L 4.390625 26.703125 
z
" id="DejaVuSansCondensed-52"/>
       </defs>
       <use xlink:href="#DejaVuSansCondensed-48"/>
       <use x="57.226562" xlink:href="#DejaVuSansCondensed-46"/>
       <use x="85.791016" xlink:href="#DejaVuSansCondensed-52"/>
      </g>
     </g>
    </g>
    <g id="ytick_4">
     <g id="line2d_4">
      <g>
       <use style="stroke:#000000;stroke-width:0.5;" x="31.25" xlink:href="#m484690576f" y="73.317945"/>
      </g>
     </g>
     <g id="text_4">
      <!-- 0.6 -->
      <g transform="translate(18.8075 76.35732)scale(0.08 -0.08)">
       <defs>
        <path d="M 29.6875 40.375 
Q 23.734375 40.375 20.234375 35.828125 
Q 16.75 31.296875 16.75 23.390625 
Q 16.75 15.53125 20.234375 10.953125 
Q 23.734375 6.390625 29.6875 6.390625 
Q 35.6875 6.390625 39.171875 10.953125 
Q 42.671875 15.53125 42.671875 23.390625 
Q 42.671875 31.296875 39.171875 35.828125 
Q 35.6875 40.375 29.6875 40.375 
z
M 47.3125 71.296875 
L 47.3125 62.3125 
Q 44 64.0625 40.578125 64.984375 
Q 37.15625 65.921875 33.84375 65.921875 
Q 25.046875 65.921875 20.40625 59.328125 
Q 15.765625 52.734375 15.140625 39.40625 
Q 17.71875 43.65625 21.625 45.921875 
Q 25.53125 48.1875 30.21875 48.1875 
Q 40.140625 48.1875 45.875 41.515625 
Q 51.609375 34.859375 51.609375 23.390625 
Q 51.609375 12.15625 45.625 5.359375 
Q 39.65625 -1.421875 29.6875 -1.421875 
Q 18.3125 -1.421875 12.296875 8.265625 
Q 6.296875 17.96875 6.296875 36.375 
Q 6.296875 53.65625 13.671875 63.9375 
Q 21.046875 74.21875 33.5 74.21875 
Q 36.8125 74.21875 40.234375 73.484375 
Q 43.65625 72.75 47.3125 71.296875 
z
" id="DejaVuSansCondensed-54"/>
       </defs>
       <use xlink:href="#DejaVuSansCondensed-48"/>
       <use x="57.226562" xlink:href="#DejaVuSansCondensed-46"/>
       <use x="85.791016" xlink:href="#DejaVuSansCondensed-54"/>
      </g>
     </g>
    </g>
    <g id="ytick_5">
     <g id="line2d_5">
      <g>
       <use style="stroke:#000000;stroke-width:0.5;" x="31.25" xlink:href="#m484690576f" y="42.538972"/>
      </g>
     </g>
     <g id="text_5">
      <!-- 0.8 -->
      <g transform="translate(18.8075 45.578347)scale(0.08 -0.08)">
       <defs>
        <path d="M 28.609375 34.625 
Q 22.265625 34.625 18.65625 30.859375 
Q 15.046875 27.09375 15.046875 20.515625 
Q 15.046875 13.921875 18.65625 10.15625 
Q 22.265625 6.390625 28.609375 6.390625 
Q 34.96875 6.390625 38.59375 10.171875 
Q 42.234375 13.96875 42.234375 20.515625 
Q 42.234375 27.09375 38.59375 30.859375 
Q 34.96875 34.625 28.609375 34.625 
z
M 19.734375 38.8125 
Q 14.015625 40.375 10.84375 44.71875 
Q 7.671875 49.078125 7.671875 55.328125 
Q 7.671875 64.0625 13.25 69.140625 
Q 18.84375 74.21875 28.609375 74.21875 
Q 38.421875 74.21875 43.984375 69.140625 
Q 49.5625 64.0625 49.5625 55.328125 
Q 49.5625 49.078125 46.390625 44.71875 
Q 43.21875 40.375 37.546875 38.8125 
Q 43.953125 37.15625 47.53125 32.3125 
Q 51.125 27.484375 51.125 20.515625 
Q 51.125 9.90625 45.28125 4.234375 
Q 39.453125 -1.421875 28.609375 -1.421875 
Q 17.78125 -1.421875 11.9375 4.234375 
Q 6.109375 9.90625 6.109375 20.515625 
Q 6.109375 27.484375 9.71875 32.3125 
Q 13.328125 37.15625 19.734375 38.8125 
z
M 16.5 54.390625 
Q 16.5 48.734375 19.671875 45.5625 
Q 22.859375 42.390625 28.609375 42.390625 
Q 34.328125 42.390625 37.546875 45.5625 
Q 40.765625 48.734375 40.765625 54.390625 
Q 40.765625 60.0625 37.546875 63.234375 
Q 34.328125 66.40625 28.609375 66.40625 
Q 22.859375 66.40625 19.671875 63.234375 
Q 16.5 60.0625 16.5 54.390625 
z
" id="DejaVuSansCondensed-56"/>
       </defs>
       <use xlink:href="#DejaVuSansCondensed-48"/>
       <use x="57.226562" xlink:href="#DejaVuSansCondensed-46"/>
       <use x="85.791016" xlink:href="#DejaVuSansCondensed-56"/>
      </g>
     </g>
    </g>
    <g id="ytick_6">
     <g id="line2d_6">
      <g>
       <use style="stroke:#000000;stroke-width:0.5;" x="31.25" xlink:href="#m484690576f" y="11.76"/>
      </g>
     </g>
     <g id="text_6">
      <!-- 1.0 -->
      <g transform="translate(18.8075 14.799375)scale(0.08 -0.08)">
       <defs>
        <path d="M 11.1875 8.296875 
L 25.6875 8.296875 
L 25.6875 63.921875 
L 9.859375 60.40625 
L 9.859375 69.390625 
L 25.59375 72.90625 
L 34.46875 72.90625 
L 34.46875 8.296875 
L 48.96875 8.296875 
L 48.96875 0 
L 11.1875 0 
z
" id="DejaVuSansCondensed-49"/>
       </defs>
       <use xlink:href="#DejaVuSansCondensed-49"/>
       <use x="57.226562" xlink:href="#DejaVuSansCondensed-46"/>
       <use x="85.791016" xlink:href="#DejaVuSansCondensed-48"/>
      </g>
     </g>
    </g>
    <g id="text_7">
     <!-- $P$(choice=$C\,|\,\bf{X}$) -->
     <g transform="translate(15.8875 116.147431)rotate(-90)scale(0.08 -0.08)">
      <defs>
       <path d="M 14.59375 65.296875 
L 38.703125 65.296875 
Q 60.5 65.296875 60.5 50.5 
Q 60.5 46.5 58.640625 42.640625 
Q 56.796875 38.796875 53.703125 36.203125 
Q 46.796875 30.5 33.203125 30.5 
Q 27.703125 30.5 24.203125 31.296875 
L 18.90625 12 
Q 17.5 6.59375 17.5 5.703125 
Q 17.5 3.90625 19 2.953125 
Q 20.5 2 24.40625 1.59375 
L 24.40625 0 
L 0 0 
L 0 1.59375 
Q 4.296875 2.203125 5.640625 3.546875 
Q 7 4.90625 8.40625 9.796875 
L 20 51.203125 
Q 21.703125 57.296875 21.703125 59.5 
Q 21.703125 61.5 20.296875 62.34375 
Q 18.90625 63.203125 14.59375 63.703125 
z
M 32 59.203125 
L 25.09375 34.703125 
Q 28 34.203125 30.296875 34.203125 
Q 39 34.203125 43.09375 36.59375 
Q 50.203125 40.59375 50.203125 50 
Q 50.203125 62.296875 37.203125 62.296875 
Q 32.796875 62.296875 32 59.203125 
z
" id="STIXGeneral-Italic-80"/>
       <path d="M 27.9375 75.875 
Q 22.015625 64.65625 19.15625 53.65625 
Q 16.3125 42.671875 16.3125 31.390625 
Q 16.3125 20.125 19.1875 9.0625 
Q 22.078125 -2 27.9375 -13.1875 
L 20.90625 -13.1875 
Q 14.265625 -1.703125 10.984375 9.375 
Q 7.71875 20.453125 7.71875 31.390625 
Q 7.71875 42.28125 10.984375 53.3125 
Q 14.265625 64.359375 20.90625 75.875 
z
" id="DejaVuSansCondensed-40"/>
       <path d="M 43.890625 52.59375 
L 43.890625 44.1875 
Q 40.484375 46.296875 37.03125 47.34375 
Q 33.59375 48.390625 30.078125 48.390625 
Q 22.171875 48.390625 17.828125 42.84375 
Q 13.484375 37.3125 13.484375 27.296875 
Q 13.484375 17.28125 17.828125 11.734375 
Q 22.171875 6.203125 30.078125 6.203125 
Q 33.59375 6.203125 37.03125 7.25 
Q 40.484375 8.296875 43.890625 10.40625 
L 43.890625 2.09375 
Q 40.53125 0.34375 36.890625 -0.53125 
Q 33.25 -1.421875 29.203125 -1.421875 
Q 18.0625 -1.421875 11.515625 6.34375 
Q 4.984375 14.109375 4.984375 27.296875 
Q 4.984375 40.671875 11.59375 48.328125 
Q 18.21875 56 29.6875 56 
Q 33.453125 56 37.015625 55.140625 
Q 40.578125 54.296875 43.890625 52.59375 
z
" id="DejaVuSansCondensed-99"/>
       <path d="M 49.421875 33.015625 
L 49.421875 0 
L 41.3125 0 
L 41.3125 32.71875 
Q 41.3125 40.484375 38.578125 44.328125 
Q 35.84375 48.1875 30.421875 48.1875 
Q 23.875 48.1875 20.09375 43.546875 
Q 16.3125 38.921875 16.3125 30.90625 
L 16.3125 0 
L 8.15625 0 
L 8.15625 75.984375 
L 16.3125 75.984375 
L 16.3125 46.1875 
Q 19.1875 51.125 23.109375 53.5625 
Q 27.046875 56 32.234375 56 
Q 40.671875 56 45.046875 50.171875 
Q 49.421875 44.34375 49.421875 33.015625 
z
" id="DejaVuSansCondensed-104"/>
       <path d="M 27.546875 48.390625 
Q 21.046875 48.390625 17.265625 42.75 
Q 13.484375 37.109375 13.484375 27.296875 
Q 13.484375 17.484375 17.234375 11.84375 
Q 21 6.203125 27.546875 6.203125 
Q 34.03125 6.203125 37.78125 11.859375 
Q 41.546875 17.53125 41.546875 27.296875 
Q 41.546875 37.015625 37.78125 42.703125 
Q 34.03125 48.390625 27.546875 48.390625 
z
M 27.546875 56 
Q 38.09375 56 44.109375 48.375 
Q 50.140625 40.765625 50.140625 27.296875 
Q 50.140625 13.875 44.109375 6.21875 
Q 38.09375 -1.421875 27.546875 -1.421875 
Q 16.9375 -1.421875 10.953125 6.21875 
Q 4.984375 13.875 4.984375 27.296875 
Q 4.984375 40.765625 10.953125 48.375 
Q 16.9375 56 27.546875 56 
z
" id="DejaVuSansCondensed-111"/>
       <path d="M 8.5 54.6875 
L 16.546875 54.6875 
L 16.546875 0 
L 8.5 0 
z
M 8.5 75.984375 
L 16.546875 75.984375 
L 16.546875 64.59375 
L 8.5 64.59375 
z
" id="DejaVuSansCondensed-105"/>
       <path d="M 50.59375 29.59375 
L 50.59375 25.203125 
L 13.375 25.203125 
Q 13.921875 15.921875 18.4375 11.0625 
Q 22.953125 6.203125 30.953125 6.203125 
Q 35.640625 6.203125 40.015625 7.46875 
Q 44.390625 8.734375 48.6875 11.28125 
L 48.6875 2.78125 
Q 44.34375 0.734375 39.765625 -0.34375 
Q 35.203125 -1.421875 30.515625 -1.421875 
Q 18.703125 -1.421875 11.84375 6.1875 
Q 4.984375 13.8125 4.984375 26.8125 
Q 4.984375 40.234375 11.5 48.109375 
Q 18.015625 56 29.109375 56 
Q 39.015625 56 44.796875 48.890625 
Q 50.59375 41.796875 50.59375 29.59375 
z
M 42.484375 32.234375 
Q 42.390625 39.59375 38.765625 43.984375 
Q 35.15625 48.390625 29.203125 48.390625 
Q 22.40625 48.390625 18.328125 44.140625 
Q 14.265625 39.890625 13.671875 32.171875 
z
" id="DejaVuSansCondensed-101"/>
       <path d="M 9.515625 45.40625 
L 65.875 45.40625 
L 65.875 37.203125 
L 9.515625 37.203125 
z
M 9.515625 25.484375 
L 65.875 25.484375 
L 65.875 17.1875 
L 9.515625 17.1875 
z
" id="DejaVuSansCondensed-61"/>
       <path d="M 68.90625 66.40625 
L 65.203125 46.40625 
L 63.40625 46.703125 
Q 61.59375 63 48.5 63 
Q 37.59375 63 28.59375 53.296875 
Q 23.296875 47.703125 20.546875 39.703125 
Q 17.796875 31.703125 17.796875 23.203125 
Q 17.796875 2.703125 35.296875 2.703125 
Q 41.5 2.703125 46.640625 5.296875 
Q 51.796875 7.90625 58.203125 14.59375 
L 60 13.09375 
Q 53.296875 5.203125 46.84375 1.703125 
Q 40.40625 -1.796875 32.703125 -1.796875 
Q 21 -1.796875 13.796875 5.140625 
Q 6.59375 12.09375 6.59375 24.296875 
Q 6.59375 34.59375 11.6875 43.9375 
Q 16.796875 53.296875 25.296875 59.296875 
Q 35.5 66.59375 47.203125 66.59375 
Q 54.09375 66.59375 58.90625 64.90625 
Q 60.90625 64.203125 63 64.203125 
Q 65.703125 64.203125 66.796875 66.40625 
z
" id="STIXGeneral-Italic-67"/>
       <path d="M 18.890625 76.421875 
L 18.890625 -23.578125 
L 11.421875 -23.578125 
L 11.421875 76.421875 
z
" id="DejaVuSansCondensed-124"/>
       <path d="M 69.40625 66.90625 
L 69.40625 64.40625 
Q 66.59375 64 64.640625 62.796875 
Q 62.703125 61.59375 59.5 58.296875 
L 39.59375 37.796875 
L 47.09375 14.09375 
Q 49.203125 7.5 51.25 5.296875 
Q 53.296875 3.09375 58.59375 2.5 
L 58.59375 0 
L 27.90625 0 
L 27.90625 2.5 
Q 32.09375 2.90625 33.34375 3.59375 
Q 34.59375 4.296875 34.59375 6.296875 
Q 34.59375 9.296875 30.90625 20.40625 
L 28.90625 26.40625 
L 15.90625 12 
Q 12.703125 8.5 12.703125 6.5 
Q 12.703125 3.09375 19 2.5 
L 19 0 
L -2.40625 0 
L -2.40625 2.5 
Q -1.40625 2.703125 -0.65625 2.890625 
Q 0.09375 3.09375 1.046875 3.6875 
Q 2 4.296875 2.703125 4.75 
Q 3.40625 5.203125 4.65625 6.34375 
Q 5.90625 7.5 6.75 8.34375 
Q 7.59375 9.203125 9.34375 11.09375 
Q 11.09375 13 12.34375 14.34375 
Q 13.59375 15.703125 16.1875 18.546875 
Q 18.796875 21.40625 20.703125 23.5 
L 27.5 30.90625 
L 19.203125 57.796875 
Q 18 61.796875 16.296875 62.84375 
Q 14.59375 63.90625 9.90625 64.40625 
L 9.90625 66.90625 
L 40.40625 66.90625 
L 40.40625 64.40625 
L 37.5 64.09375 
Q 35 63.90625 34 63.203125 
Q 33 62.5 33 60.796875 
Q 33 58.703125 36.5 47.59375 
L 38.203125 42.09375 
L 47.59375 52 
Q 54.59375 59.40625 54.59375 61.796875 
Q 54.59375 63.90625 51.296875 64.203125 
L 49.203125 64.40625 
L 49.203125 66.90625 
z
" id="STIXGeneral-BoldItalic-88"/>
       <path d="M 7.234375 75.875 
L 14.265625 75.875 
Q 20.84375 64.359375 24.109375 53.3125 
Q 27.390625 42.28125 27.390625 31.390625 
Q 27.390625 20.453125 24.109375 9.375 
Q 20.84375 -1.703125 14.265625 -13.1875 
L 7.234375 -13.1875 
Q 13.03125 -2 15.90625 9.0625 
Q 18.796875 20.125 18.796875 31.390625 
Q 18.796875 42.671875 15.90625 53.65625 
Q 13.03125 64.65625 7.234375 75.875 
z
" id="DejaVuSansCondensed-41"/>
      </defs>
      <use transform="translate(0 0.578125)" xlink:href="#STIXGeneral-Italic-80"/>
      <use transform="translate(61.099991 0.578125)" xlink:href="#DejaVuSansCondensed-40"/>
      <use transform="translate(96.207413 0.578125)" xlink:href="#DejaVuSansCondensed-99"/>
      <use transform="translate(145.670303 0.578125)" xlink:href="#DejaVuSansCondensed-104"/>
      <use transform="translate(202.701553 0.578125)" xlink:href="#DejaVuSansCondensed-111"/>
      <use transform="translate(257.73085 0.578125)" xlink:href="#DejaVuSansCondensed-105"/>
      <use transform="translate(282.73085 0.578125)" xlink:href="#DejaVuSansCondensed-99"/>
      <use transform="translate(332.193741 0.578125)" xlink:href="#DejaVuSansCondensed-101"/>
      <use transform="translate(387.564835 0.578125)" xlink:href="#DejaVuSansCondensed-61"/>
      <use transform="translate(462.95546 0.578125)" xlink:href="#STIXGeneral-Italic-67"/>
      <use transform="translate(541.689027 0.578125)" xlink:href="#DejaVuSansCondensed-124"/>
      <use transform="translate(584.044864 0.578125)" xlink:href="#STIXGeneral-BoldItalic-88"/>
      <use transform="translate(650.744861 0.578125)" xlink:href="#DejaVuSansCondensed-41"/>
     </g>
    </g>
   </g>
   <g id="patch_3">
    <path clip-path="url(#p66575e3f75)" d="M 31.25 165.654862 
L 66.778094 165.654862 
L 66.778094 89.34866 
L 31.25 89.34866 
z
" style="fill:#c2a96c;opacity:0.85;"/>
   </g>
   <g id="patch_4">
    <path clip-path="url(#p66575e3f75)" d="M 75.660117 165.654862 
L 111.188211 165.654862 
L 111.188211 93.83726 
L 75.660117 93.83726 
z
" style="fill:#c2a96c;opacity:0.85;"/>
   </g>
   <g id="patch_5">
    <path clip-path="url(#p66575e3f75)" d="M 120.070235 165.654862 
L 155.598328 165.654862 
L 155.598328 94.478488 
L 120.070235 94.478488 
z
" style="fill:#c2a96c;opacity:0.85;"/>
   </g>
   <g id="patch_6">
    <path clip-path="url(#p66575e3f75)" d="M 164.480352 165.654862 
L 200.008446 165.654862 
L 200.008446 119.486403 
L 164.480352 119.486403 
z
" style="fill:#c2a96c;opacity:0.85;"/>
   </g>
   <g id="patch_7">
    <path clip-path="url(#p66575e3f75)" d="M 208.890469 165.654862 
L 244.418563 165.654862 
L 244.418563 138.082032 
L 208.890469 138.082032 
z
" style="fill:#c2a96c;opacity:0.85;"/>
   </g>
   <g id="patch_8">
    <path clip-path="url(#p66575e3f75)" d="M 31.25 89.34866 
L 66.778094 89.34866 
L 66.778094 60.493373 
L 31.25 60.493373 
z
" style="fill:#d3b976;opacity:0.85;"/>
   </g>
   <g id="patch_9">
    <path clip-path="url(#p66575e3f75)" d="M 75.660117 93.83726 
L 111.188211 93.83726 
L 111.188211 60.493373 
L 75.660117 60.493373 
z
" style="fill:#d3b976;opacity:0.85;"/>
   </g>
   <g id="patch_10">
    <path clip-path="url(#p66575e3f75)" d="M 120.070235 94.478488 
L 155.598328 94.478488 
L 155.598328 65.623202 
L 120.070235 65.623202 
z
" style="fill:#d3b976;opacity:0.85;"/>
   </g>
   <g id="patch_11">
    <path clip-path="url(#p66575e3f75)" d="M 164.480352 119.486403 
L 200.008446 119.486403 
L 200.008446 91.913574 
L 164.480352 91.913574 
z
" style="fill:#d3b976;opacity:0.85;"/>
   </g>
   <g id="patch_12">
    <path clip-path="url(#p66575e3f75)" d="M 208.890469 138.082032 
L 244.418563 138.082032 
L 244.418563 120.127632 
L 208.890469 120.127632 
z
" style="fill:#d3b976;opacity:0.85;"/>
   </g>
   <g id="patch_13">
    <path clip-path="url(#p66575e3f75)" d="M 31.25 60.493373 
L 66.778094 60.493373 
L 66.778094 30.996858 
L 31.25 30.996858 
z
" style="fill:#66a666;opacity:0.85;"/>
   </g>
   <g id="patch_14">
    <path clip-path="url(#p66575e3f75)" d="M 75.660117 60.493373 
L 111.188211 60.493373 
L 111.188211 31.638086 
L 75.660117 31.638086 
z
" style="fill:#66a666;opacity:0.85;"/>
   </g>
   <g id="patch_15">
    <path clip-path="url(#p66575e3f75)" d="M 120.070235 65.623202 
L 155.598328 65.623202 
L 155.598328 43.180201 
L 120.070235 43.180201 
z
" style="fill:#66a666;opacity:0.85;"/>
   </g>
   <g id="patch_16">
    <path clip-path="url(#p66575e3f75)" d="M 164.480352 91.913574 
L 200.008446 91.913574 
L 200.008446 50.874944 
L 164.480352 50.874944 
z
" style="fill:#66a666;opacity:0.85;"/>
   </g>
   <g id="patch_17">
    <path clip-path="url(#p66575e3f75)" d="M 208.890469 120.127632 
L 244.418563 120.127632 
L 244.418563 81.653916 
L 208.890469 81.653916 
z
" style="fill:#66a666;opacity:0.85;"/>
   </g>
   <g id="patch_18">
    <path clip-path="url(#p66575e3f75)" d="M 31.25 30.996858 
L 66.778094 30.996858 
L 66.778094 11.76 
L 31.25 11.76 
z
" style="fill:#669866;opacity:0.85;"/>
   </g>
   <g id="patch_19">
    <path clip-path="url(#p66575e3f75)" d="M 75.660117 31.638086 
L 111.188211 31.638086 
L 111.188211 11.76 
L 75.660117 11.76 
z
" style="fill:#669866;opacity:0.85;"/>
   </g>
   <g id="patch_20">
    <path clip-path="url(#p66575e3f75)" d="M 120.070235 43.180201 
L 155.598328 43.180201 
L 155.598328 11.76 
L 120.070235 11.76 
z
" style="fill:#669866;opacity:0.85;"/>
   </g>
   <g id="patch_21">
    <path clip-path="url(#p66575e3f75)" d="M 164.480352 50.874944 
L 200.008446 50.874944 
L 200.008446 11.76 
L 164.480352 11.76 
z
" style="fill:#669866;opacity:0.85;"/>
   </g>
   <g id="patch_22">
    <path clip-path="url(#p66575e3f75)" d="M 208.890469 81.653916 
L 244.418563 81.653916 
L 244.418563 11.76 
L 208.890469 11.76 
z
" style="fill:#669866;opacity:0.85;"/>
   </g>
   <g id="patch_23">
    <path d="M 31.25 211.90488 
L 66.778094 211.90488 
Q 68.9986 211.90488 68.9986 209.592379 
L 68.9986 172.592365 
Q 68.9986 170.279864 66.778094 170.279864 
L 31.25 170.279864 
Q 29.029494 170.279864 29.029494 172.592365 
L 29.029494 209.592379 
Q 29.029494 211.90488 31.25 211.90488 
z
" style="fill:#e6e6e6;stroke:#b3b3b3;stroke-linejoin:miter;"/>
   </g>
   <g id="patch_24">
    <path d="M 75.660117 211.90488 
L 111.188211 211.90488 
Q 113.408717 211.90488 113.408717 209.592379 
L 113.408717 172.592365 
Q 113.408717 170.279864 111.188211 170.279864 
L 75.660117 170.279864 
Q 73.439611 170.279864 73.439611 172.592365 
L 73.439611 209.592379 
Q 73.439611 211.90488 75.660117 211.90488 
z
" style="fill:#e6e6e6;stroke:#b3b3b3;stroke-linejoin:miter;"/>
   </g>
   <g id="patch_25">
    <path d="M 120.070235 211.90488 
L 155.598328 211.90488 
Q 157.818834 211.90488 157.818834 209.592379 
L 157.818834 172.592365 
Q 157.818834 170.279864 155.598328 170.279864 
L 120.070235 170.279864 
Q 117.849729 170.279864 117.849729 172.592365 
L 117.849729 209.592379 
Q 117.849729 211.90488 120.070235 211.90488 
z
" style="fill:#e6e6e6;stroke:#b3b3b3;stroke-linejoin:miter;"/>
   </g>
   <g id="patch_26">
    <path d="M 164.480352 211.90488 
L 200.008446 211.90488 
Q 202.228952 211.90488 202.228952 209.592379 
L 202.228952 172.592365 
Q 202.228952 170.279864 200.008446 170.279864 
L 164.480352 170.279864 
Q 162.259846 170.279864 162.259846 172.592365 
L 162.259846 209.592379 
Q 162.259846 211.90488 164.480352 211.90488 
z
" style="fill:#e6e6e6;stroke:#b3b3b3;stroke-linejoin:miter;"/>
   </g>
   <g id="patch_27">
    <path d="M 208.890469 211.90488 
L 244.418563 211.90488 
Q 246.639069 211.90488 246.639069 209.592379 
L 246.639069 172.592365 
Q 246.639069 170.279864 244.418563 170.279864 
L 208.890469 170.279864 
Q 206.669963 170.279864 206.669963 172.592365 
L 206.669963 209.592379 
Q 206.669963 211.90488 208.890469 211.90488 
z
" style="fill:#e6e6e6;stroke:#b3b3b3;stroke-linejoin:miter;"/>
   </g>
   <g id="patch_28">
    <path d="M 36.061096 207.279878 
C 36.748129 207.279878 37.407115 206.995608 37.89292 206.489676 
C 38.378725 205.983744 38.651686 205.297456 38.651686 204.58196 
C 38.651686 203.866464 38.378725 203.180176 37.89292 202.674244 
C 37.407115 202.168312 36.748129 201.884042 36.061096 201.884042 
C 35.374063 201.884042 34.715078 202.168312 34.229272 202.674244 
C 33.743467 203.180176 33.470506 203.866464 33.470506 204.58196 
C 33.470506 205.297456 33.743467 205.983744 34.229272 206.489676 
C 34.715078 206.995608 35.374063 207.279878 36.061096 207.279878 
z
"/>
   </g>
   <g id="patch_29">
    <path d="M 49.014047 207.279878 
C 49.701079 207.279878 50.360065 206.995608 50.845871 206.489676 
C 51.331676 205.983744 51.604637 205.297456 51.604637 204.58196 
C 51.604637 203.866464 51.331676 203.180176 50.845871 202.674244 
C 50.360065 202.168312 49.701079 201.884042 49.014047 201.884042 
C 48.327014 201.884042 47.668028 202.168312 47.182223 202.674244 
C 46.696418 203.180176 46.423457 203.866464 46.423457 204.58196 
C 46.423457 205.297456 46.696418 205.983744 47.182223 206.489676 
C 47.668028 206.995608 48.327014 207.279878 49.014047 207.279878 
z
"/>
   </g>
   <g id="patch_30">
    <path d="M 61.966998 207.279878 
C 62.65403 207.279878 63.313016 206.995608 63.798822 206.489676 
C 64.284627 205.983744 64.557588 205.297456 64.557588 204.58196 
C 64.557588 203.866464 64.284627 203.180176 63.798822 202.674244 
C 63.313016 202.168312 62.65403 201.884042 61.966998 201.884042 
C 61.279965 201.884042 60.620979 202.168312 60.135174 202.674244 
C 59.649369 203.180176 59.376408 203.866464 59.376408 204.58196 
C 59.376408 205.297456 59.649369 205.983744 60.135174 206.489676 
C 60.620979 206.995608 61.279965 207.279878 61.966998 207.279878 
z
"/>
   </g>
   <g id="patch_31">
    <path d="M 42.537571 201.652792 
C 43.224604 201.652792 43.88359 201.368523 44.369395 200.862591 
C 44.855201 200.356658 45.128162 199.670371 45.128162 198.954875 
C 45.128162 198.239378 44.855201 197.553091 44.369395 197.047159 
C 43.88359 196.541227 43.224604 196.256957 42.537571 196.256957 
C 41.850539 196.256957 41.191553 196.541227 40.705748 197.047159 
C 40.219942 197.553091 39.946981 198.239378 39.946981 198.954875 
C 39.946981 199.670371 40.219942 200.356658 40.705748 200.862591 
C 41.191553 201.368523 41.850539 201.652792 42.537571 201.652792 
z
"/>
   </g>
   <g id="patch_32">
    <path d="M 80.471213 207.279878 
C 81.158246 207.279878 81.817232 206.995608 82.303037 206.489676 
C 82.788843 205.983744 83.061804 205.297456 83.061804 204.58196 
C 83.061804 203.866464 82.788843 203.180176 82.303037 202.674244 
C 81.817232 202.168312 81.158246 201.884042 80.471213 201.884042 
C 79.784181 201.884042 79.125195 202.168312 78.639389 202.674244 
C 78.153584 203.180176 77.880623 203.866464 77.880623 204.58196 
C 77.880623 205.297456 78.153584 205.983744 78.639389 206.489676 
C 79.125195 206.995608 79.784181 207.279878 80.471213 207.279878 
z
"/>
   </g>
   <g id="patch_33">
    <path d="M 93.424164 207.279878 
C 94.111197 207.279878 94.770183 206.995608 95.255988 206.489676 
C 95.741793 205.983744 96.014754 205.297456 96.014754 204.58196 
C 96.014754 203.866464 95.741793 203.180176 95.255988 202.674244 
C 94.770183 202.168312 94.111197 201.884042 93.424164 201.884042 
C 92.737132 201.884042 92.078146 202.168312 91.59234 202.674244 
C 91.106535 203.180176 90.833574 203.866464 90.833574 204.58196 
C 90.833574 205.297456 91.106535 205.983744 91.59234 206.489676 
C 92.078146 206.995608 92.737132 207.279878 93.424164 207.279878 
z
"/>
   </g>
   <g id="patch_34">
    <path d="M 106.377115 207.279878 
C 107.064148 207.279878 107.723134 206.995608 108.208939 206.489676 
C 108.694744 205.983744 108.967705 205.297456 108.967705 204.58196 
C 108.967705 203.866464 108.694744 203.180176 108.208939 202.674244 
C 107.723134 202.168312 107.064148 201.884042 106.377115 201.884042 
C 105.690083 201.884042 105.031097 202.168312 104.545291 202.674244 
C 104.059486 203.180176 103.786525 203.866464 103.786525 204.58196 
C 103.786525 205.297456 104.059486 205.983744 104.545291 206.489676 
C 105.031097 206.995608 105.690083 207.279878 106.377115 207.279878 
z
"/>
   </g>
   <g id="patch_35">
    <path d="M 86.947689 201.652792 
C 87.634721 201.652792 88.293707 201.368523 88.779513 200.862591 
C 89.265318 200.356658 89.538279 199.670371 89.538279 198.954875 
C 89.538279 198.239378 89.265318 197.553091 88.779513 197.047159 
C 88.293707 196.541227 87.634721 196.256957 86.947689 196.256957 
C 86.260656 196.256957 85.60167 196.541227 85.115865 197.047159 
C 84.63006 197.553091 84.357099 198.239378 84.357099 198.954875 
C 84.357099 199.670371 84.63006 200.356658 85.115865 200.862591 
C 85.60167 201.368523 86.260656 201.652792 86.947689 201.652792 
z
"/>
   </g>
   <g id="patch_36">
    <path d="M 93.424164 182.412785 
C 94.111197 182.412785 94.770183 182.128515 95.255988 181.622583 
C 95.741793 181.116651 96.014754 180.430363 96.014754 179.714867 
C 96.014754 178.999371 95.741793 178.313084 95.255988 177.807151 
C 94.770183 177.301219 94.111197 177.01695 93.424164 177.01695 
C 92.737132 177.01695 92.078146 177.301219 91.59234 177.807151 
C 91.106535 178.313084 90.833574 178.999371 90.833574 179.714867 
C 90.833574 180.430363 91.106535 181.116651 91.59234 181.622583 
C 92.078146 182.128515 92.737132 182.412785 93.424164 182.412785 
z
"/>
   </g>
   <g id="patch_37">
    <path d="M 124.881331 207.279878 
C 125.568363 207.279878 126.227349 206.995608 126.713155 206.489676 
C 127.19896 205.983744 127.471921 205.297456 127.471921 204.58196 
C 127.471921 203.866464 127.19896 203.180176 126.713155 202.674244 
C 126.227349 202.168312 125.568363 201.884042 124.881331 201.884042 
C 124.194298 201.884042 123.535312 202.168312 123.049507 202.674244 
C 122.563701 203.180176 122.29074 203.866464 122.29074 204.58196 
C 122.29074 205.297456 122.563701 205.983744 123.049507 206.489676 
C 123.535312 206.995608 124.194298 207.279878 124.881331 207.279878 
z
"/>
   </g>
   <g id="patch_38">
    <path d="M 137.834281 207.279878 
C 138.521314 207.279878 139.1803 206.995608 139.666105 206.489676 
C 140.151911 205.983744 140.424872 205.297456 140.424872 204.58196 
C 140.424872 203.866464 140.151911 203.180176 139.666105 202.674244 
C 139.1803 202.168312 138.521314 201.884042 137.834281 201.884042 
C 137.147249 201.884042 136.488263 202.168312 136.002458 202.674244 
C 135.516652 203.180176 135.243691 203.866464 135.243691 204.58196 
C 135.243691 205.297456 135.516652 205.983744 136.002458 206.489676 
C 136.488263 206.995608 137.147249 207.279878 137.834281 207.279878 
z
"/>
   </g>
   <g id="patch_39">
    <path d="M 150.787232 207.279878 
C 151.474265 207.279878 152.133251 206.995608 152.619056 206.489676 
C 153.104862 205.983744 153.377823 205.297456 153.377823 204.58196 
C 153.377823 203.866464 153.104862 203.180176 152.619056 202.674244 
C 152.133251 202.168312 151.474265 201.884042 150.787232 201.884042 
C 150.1002 201.884042 149.441214 202.168312 148.955408 202.674244 
C 148.469603 203.180176 148.196642 203.866464 148.196642 204.58196 
C 148.196642 205.297456 148.469603 205.983744 148.955408 206.489676 
C 149.441214 206.995608 150.1002 207.279878 150.787232 207.279878 
z
"/>
   </g>
   <g id="patch_40">
    <path d="M 131.357806 201.652792 
C 132.044839 201.652792 132.703825 201.368523 133.18963 200.862591 
C 133.675435 200.356658 133.948396 199.670371 133.948396 198.954875 
C 133.948396 198.239378 133.675435 197.553091 133.18963 197.047159 
C 132.703825 196.541227 132.044839 196.256957 131.357806 196.256957 
C 130.670774 196.256957 130.011788 196.541227 129.525982 197.047159 
C 129.040177 197.553091 128.767216 198.239378 128.767216 198.954875 
C 128.767216 199.670371 129.040177 200.356658 129.525982 200.862591 
C 130.011788 201.368523 130.670774 201.652792 131.357806 201.652792 
z
"/>
   </g>
   <g id="patch_41">
    <path d="M 137.834281 186.020286 
C 138.521314 186.020286 139.1803 185.736017 139.666105 185.230085 
C 140.151911 184.724152 140.424872 184.037865 140.424872 183.322369 
C 140.424872 182.606872 140.151911 181.920585 139.666105 181.414653 
C 139.1803 180.908721 138.521314 180.624451 137.834281 180.624451 
C 137.147249 180.624451 136.488263 180.908721 136.002458 181.414653 
C 135.516652 181.920585 135.243691 182.606872 135.243691 183.322369 
C 135.243691 184.037865 135.516652 184.724152 136.002458 185.230085 
C 136.488263 185.736017 137.147249 186.020286 137.834281 186.020286 
z
"/>
   </g>
   <g id="patch_42">
    <path d="M 169.291448 207.279878 
C 169.97848 207.279878 170.637466 206.995608 171.123272 206.489676 
C 171.609077 205.983744 171.882038 205.297456 171.882038 204.58196 
C 171.882038 203.866464 171.609077 203.180176 171.123272 202.674244 
C 170.637466 202.168312 169.97848 201.884042 169.291448 201.884042 
C 168.604415 201.884042 167.945429 202.168312 167.459624 202.674244 
C 166.973819 203.180176 166.700858 203.866464 166.700858 204.58196 
C 166.700858 205.297456 166.973819 205.983744 167.459624 206.489676 
C 167.945429 206.995608 168.604415 207.279878 169.291448 207.279878 
z
"/>
   </g>
   <g id="patch_43">
    <path d="M 182.244399 207.279878 
C 182.931431 207.279878 183.590417 206.995608 184.076223 206.489676 
C 184.562028 205.983744 184.834989 205.297456 184.834989 204.58196 
C 184.834989 203.866464 184.562028 203.180176 184.076223 202.674244 
C 183.590417 202.168312 182.931431 201.884042 182.244399 201.884042 
C 181.557366 201.884042 180.89838 202.168312 180.412575 202.674244 
C 179.92677 203.180176 179.653809 203.866464 179.653809 204.58196 
C 179.653809 205.297456 179.92677 205.983744 180.412575 206.489676 
C 180.89838 206.995608 181.557366 207.279878 182.244399 207.279878 
z
"/>
   </g>
   <g id="patch_44">
    <path d="M 195.19735 207.279878 
C 195.884382 207.279878 196.543368 206.995608 197.029174 206.489676 
C 197.514979 205.983744 197.78794 205.297456 197.78794 204.58196 
C 197.78794 203.866464 197.514979 203.180176 197.029174 202.674244 
C 196.543368 202.168312 195.884382 201.884042 195.19735 201.884042 
C 194.510317 201.884042 193.851331 202.168312 193.365526 202.674244 
C 192.87972 203.180176 192.606759 203.866464 192.606759 204.58196 
C 192.606759 205.297456 192.87972 205.983744 193.365526 206.489676 
C 193.851331 206.995608 194.510317 207.279878 195.19735 207.279878 
z
"/>
   </g>
   <g id="patch_45">
    <path d="M 175.767923 201.652792 
C 176.454956 201.652792 177.113942 201.368523 177.599747 200.862591 
C 178.085553 200.356658 178.358514 199.670371 178.358514 198.954875 
C 178.358514 198.239378 178.085553 197.553091 177.599747 197.047159 
C 177.113942 196.541227 176.454956 196.256957 175.767923 196.256957 
C 175.080891 196.256957 174.421905 196.541227 173.936099 197.047159 
C 173.450294 197.553091 173.177333 198.239378 173.177333 198.954875 
C 173.177333 199.670371 173.450294 200.356658 173.936099 200.862591 
C 174.421905 201.368523 175.080891 201.652792 175.767923 201.652792 
z
"/>
   </g>
   <g id="patch_46">
    <path d="M 182.244399 190.830288 
C 182.931431 190.830288 183.590417 190.546019 184.076223 190.040086 
C 184.562028 189.534154 184.834989 188.847867 184.834989 188.13237 
C 184.834989 187.416874 184.562028 186.730587 184.076223 186.224655 
C 183.590417 185.718722 182.931431 185.434453 182.244399 185.434453 
C 181.557366 185.434453 180.89838 185.718722 180.412575 186.224655 
C 179.92677 186.730587 179.653809 187.416874 179.653809 188.13237 
C 179.653809 188.847867 179.92677 189.534154 180.412575 190.040086 
C 180.89838 190.546019 181.557366 190.830288 182.244399 190.830288 
z
"/>
   </g>
   <g id="patch_47">
    <path d="M 213.701565 207.279878 
C 214.388598 207.279878 215.047584 206.995608 215.533389 206.489676 
C 216.019194 205.983744 216.292155 205.297456 216.292155 204.58196 
C 216.292155 203.866464 216.019194 203.180176 215.533389 202.674244 
C 215.047584 202.168312 214.388598 201.884042 213.701565 201.884042 
C 213.014533 201.884042 212.355547 202.168312 211.869741 202.674244 
C 211.383936 203.180176 211.110975 203.866464 211.110975 204.58196 
C 211.110975 205.297456 211.383936 205.983744 211.869741 206.489676 
C 212.355547 206.995608 213.014533 207.279878 213.701565 207.279878 
z
"/>
   </g>
   <g id="patch_48">
    <path d="M 226.654516 207.279878 
C 227.341549 207.279878 228.000535 206.995608 228.48634 206.489676 
C 228.972145 205.983744 229.245106 205.297456 229.245106 204.58196 
C 229.245106 203.866464 228.972145 203.180176 228.48634 202.674244 
C 228.000535 202.168312 227.341549 201.884042 226.654516 201.884042 
C 225.967484 201.884042 225.308498 202.168312 224.822692 202.674244 
C 224.336887 203.180176 224.063926 203.866464 224.063926 204.58196 
C 224.063926 205.297456 224.336887 205.983744 224.822692 206.489676 
C 225.308498 206.995608 225.967484 207.279878 226.654516 207.279878 
z
"/>
   </g>
   <g id="patch_49">
    <path d="M 239.607467 207.279878 
C 240.2945 207.279878 240.953485 206.995608 241.439291 206.489676 
C 241.925096 205.983744 242.198057 205.297456 242.198057 204.58196 
C 242.198057 203.866464 241.925096 203.180176 241.439291 202.674244 
C 240.953485 202.168312 240.2945 201.884042 239.607467 201.884042 
C 238.920434 201.884042 238.261448 202.168312 237.775643 202.674244 
C 237.289838 203.180176 237.016877 203.866464 237.016877 204.58196 
C 237.016877 205.297456 237.289838 205.983744 237.775643 206.489676 
C 238.261448 206.995608 238.920434 207.279878 239.607467 207.279878 
z
"/>
   </g>
   <g id="patch_50">
    <path d="M 220.178041 201.652792 
C 220.865073 201.652792 221.524059 201.368523 222.009865 200.862591 
C 222.49567 200.356658 222.768631 199.670371 222.768631 198.954875 
C 222.768631 198.239378 222.49567 197.553091 222.009865 197.047159 
C 221.524059 196.541227 220.865073 196.256957 220.178041 196.256957 
C 219.491008 196.256957 218.832022 196.541227 218.346217 197.047159 
C 217.860411 197.553091 217.58745 198.239378 217.58745 198.954875 
C 217.58745 199.670371 217.860411 200.356658 218.346217 200.862591 
C 218.832022 201.368523 219.491008 201.652792 220.178041 201.652792 
z
"/>
   </g>
   <g id="patch_51">
    <path d="M 226.654516 195.64029 
C 227.341549 195.64029 228.000535 195.35602 228.48634 194.850088 
C 228.972145 194.344156 229.245106 193.657868 229.245106 192.942372 
C 229.245106 192.226876 228.972145 191.540589 228.48634 191.034656 
C 228.000535 190.528724 227.341549 190.244455 226.654516 190.244455 
C 225.967484 190.244455 225.308498 190.528724 224.822692 191.034656 
C 224.336887 191.540589 224.063926 192.226876 224.063926 192.942372 
C 224.063926 193.657868 224.336887 194.344156 224.822692 194.850088 
C 225.308498 195.35602 225.967484 195.64029 226.654516 195.64029 
z
"/>
   </g>
   <g id="line2d_7">
    <path d="M 36.061096 204.58196 
L 42.537571 198.954875 
" style="fill:none;stroke:#000000;stroke-linecap:square;stroke-width:0.5;"/>
   </g>
   <g id="line2d_8">
    <path d="M 49.014047 204.58196 
L 42.537571 198.954875 
" style="fill:none;stroke:#000000;stroke-linecap:square;stroke-width:0.5;"/>
   </g>
   <g id="line2d_9">
    <path d="M 61.966998 204.58196 
L 61.966998 174.904865 
" style="fill:none;stroke:#000000;stroke-linecap:square;stroke-width:0.5;"/>
   </g>
   <g id="line2d_10">
    <path d="M 42.537571 198.954875 
L 42.537571 174.904865 
" style="fill:none;stroke:#000000;stroke-linecap:square;stroke-width:0.5;"/>
   </g>
   <g id="line2d_11">
    <path d="M 80.471213 204.58196 
L 86.947689 198.954875 
" style="fill:none;stroke:#000000;stroke-linecap:square;stroke-width:0.5;"/>
   </g>
   <g id="line2d_12">
    <path d="M 93.424164 204.58196 
L 86.947689 198.954875 
" style="fill:none;stroke:#000000;stroke-linecap:square;stroke-width:0.5;"/>
   </g>
   <g id="line2d_13">
    <path d="M 106.377115 204.58196 
L 93.424164 179.714867 
" style="fill:none;stroke:#000000;stroke-linecap:square;stroke-width:0.5;"/>
   </g>
   <g id="line2d_14">
    <path d="M 86.947689 198.954875 
L 93.424164 179.714867 
" style="fill:none;stroke:#000000;stroke-linecap:square;stroke-width:0.5;"/>
   </g>
   <g id="line2d_15">
    <path d="M 93.424164 179.714867 
L 93.424164 174.904865 
" style="fill:none;stroke:#000000;stroke-linecap:square;stroke-width:0.5;"/>
   </g>
   <g id="line2d_16">
    <path d="M 124.881331 204.58196 
L 131.357806 198.954875 
" style="fill:none;stroke:#000000;stroke-linecap:square;stroke-width:0.5;"/>
   </g>
   <g id="line2d_17">
    <path d="M 137.834281 204.58196 
L 131.357806 198.954875 
" style="fill:none;stroke:#000000;stroke-linecap:square;stroke-width:0.5;"/>
   </g>
   <g id="line2d_18">
    <path d="M 150.787232 204.58196 
L 137.834281 183.322369 
" style="fill:none;stroke:#000000;stroke-linecap:square;stroke-width:0.5;"/>
   </g>
   <g id="line2d_19">
    <path d="M 131.357806 198.954875 
L 137.834281 183.322369 
" style="fill:none;stroke:#000000;stroke-linecap:square;stroke-width:0.5;"/>
   </g>
   <g id="line2d_20">
    <path d="M 137.834281 183.322369 
L 137.834281 174.904865 
" style="fill:none;stroke:#000000;stroke-linecap:square;stroke-width:0.5;"/>
   </g>
   <g id="line2d_21">
    <path d="M 169.291448 204.58196 
L 175.767923 198.954875 
" style="fill:none;stroke:#000000;stroke-linecap:square;stroke-width:0.5;"/>
   </g>
   <g id="line2d_22">
    <path d="M 182.244399 204.58196 
L 175.767923 198.954875 
" style="fill:none;stroke:#000000;stroke-linecap:square;stroke-width:0.5;"/>
   </g>
   <g id="line2d_23">
    <path d="M 195.19735 204.58196 
L 182.244399 188.13237 
" style="fill:none;stroke:#000000;stroke-linecap:square;stroke-width:0.5;"/>
   </g>
   <g id="line2d_24">
    <path d="M 175.767923 198.954875 
L 182.244399 188.13237 
" style="fill:none;stroke:#000000;stroke-linecap:square;stroke-width:0.5;"/>
   </g>
   <g id="line2d_25">
    <path d="M 182.244399 188.13237 
L 182.244399 174.904865 
" style="fill:none;stroke:#000000;stroke-linecap:square;stroke-width:0.5;"/>
   </g>
   <g id="line2d_26">
    <path d="M 213.701565 204.58196 
L 220.178041 198.954875 
" style="fill:none;stroke:#000000;stroke-linecap:square;stroke-width:0.5;"/>
   </g>
   <g id="line2d_27">
    <path d="M 226.654516 204.58196 
L 220.178041 198.954875 
" style="fill:none;stroke:#000000;stroke-linecap:square;stroke-width:0.5;"/>
   </g>
   <g id="line2d_28">
    <path d="M 239.607467 204.58196 
L 226.654516 192.942372 
" style="fill:none;stroke:#000000;stroke-linecap:square;stroke-width:0.5;"/>
   </g>
   <g id="line2d_29">
    <path d="M 220.178041 198.954875 
L 226.654516 192.942372 
" style="fill:none;stroke:#000000;stroke-linecap:square;stroke-width:0.5;"/>
   </g>
   <g id="line2d_30">
    <path d="M 226.654516 192.942372 
L 226.654516 174.904865 
" style="fill:none;stroke:#000000;stroke-linecap:square;stroke-width:0.5;"/>
   </g>
   <g id="line2d_31">
    <path clip-path="url(#p66575e3f75)" d="M 49.014047 57.640679 
L 93.424164 64.420179 
L 137.834281 74.760753 
L 182.244399 92.238936 
L 226.654516 104.150113 
" style="fill:none;stroke:#1e90ff;stroke-dasharray:3.7,1.6;stroke-dashoffset:0;"/>
    <defs>
     <path d="M 0 1.5 
C 0.397805 1.5 0.77937 1.341951 1.06066 1.06066 
C 1.341951 0.77937 1.5 0.397805 1.5 0 
C 1.5 -0.397805 1.341951 -0.77937 1.06066 -1.06066 
C 0.77937 -1.341951 0.397805 -1.5 0 -1.5 
C -0.397805 -1.5 -0.77937 -1.341951 -1.06066 -1.06066 
C -1.341951 -0.77937 -1.5 -0.397805 -1.5 0 
C -1.5 0.397805 -1.341951 0.77937 -1.06066 1.06066 
C -0.77937 1.341951 -0.397805 1.5 0 1.5 
z
" id="mbe1c4047e2" style="stroke:#1e90ff;"/>
    </defs>
    <g clip-path="url(#p66575e3f75)">
     <use style="fill:#1e90ff;stroke:#1e90ff;" x="49.014047" xlink:href="#mbe1c4047e2" y="57.640679"/>
     <use style="fill:#1e90ff;stroke:#1e90ff;" x="93.424164" xlink:href="#mbe1c4047e2" y="64.420179"/>
     <use style="fill:#1e90ff;stroke:#1e90ff;" x="137.834281" xlink:href="#mbe1c4047e2" y="74.760753"/>
     <use style="fill:#1e90ff;stroke:#1e90ff;" x="182.244399" xlink:href="#mbe1c4047e2" y="92.238936"/>
     <use style="fill:#1e90ff;stroke:#1e90ff;" x="226.654516" xlink:href="#mbe1c4047e2" y="104.150113"/>
    </g>
   </g>
   <g id="line2d_32">
    <path clip-path="url(#p66575e3f75)" d="M 49.014047 53.418264 
L 93.424164 62.204768 
L 137.834281 75.308401 
L 182.244399 97.634888 
L 226.654516 112.977291 
" style="fill:none;stroke:#6a5acd;stroke-linecap:square;"/>
    <defs>
     <path d="M 0 1.5 
C 0.397805 1.5 0.77937 1.341951 1.06066 1.06066 
C 1.341951 0.77937 1.5 0.397805 1.5 0 
C 1.5 -0.397805 1.341951 -0.77937 1.06066 -1.06066 
C 0.77937 -1.341951 0.397805 -1.5 0 -1.5 
C -0.397805 -1.5 -0.77937 -1.341951 -1.06066 -1.06066 
C -1.341951 -0.77937 -1.5 -0.397805 -1.5 0 
C -1.5 0.397805 -1.341951 0.77937 -1.06066 1.06066 
C -0.77937 1.341951 -0.397805 1.5 0 1.5 
z
" id="mff843c1717" style="stroke:#6a5acd;"/>
    </defs>
    <g clip-path="url(#p66575e3f75)">
     <use style="fill:#6a5acd;stroke:#6a5acd;" x="49.014047" xlink:href="#mff843c1717" y="53.418264"/>
     <use style="fill:#6a5acd;stroke:#6a5acd;" x="93.424164" xlink:href="#mff843c1717" y="62.204768"/>
     <use style="fill:#6a5acd;stroke:#6a5acd;" x="137.834281" xlink:href="#mff843c1717" y="75.308401"/>
     <use style="fill:#6a5acd;stroke:#6a5acd;" x="182.244399" xlink:href="#mff843c1717" y="97.634888"/>
     <use style="fill:#6a5acd;stroke:#6a5acd;" x="226.654516" xlink:href="#mff843c1717" y="112.977291"/>
    </g>
   </g>
   <g id="patch_52">
    <path d="M 31.25 165.654862 
L 31.25 11.76 
" style="fill:none;stroke:#000000;stroke-linecap:square;stroke-linejoin:miter;stroke-width:0.5;"/>
   </g>
   <g id="patch_53">
    <path d="M 31.25 165.654862 
L 244.418563 165.654862 
" style="fill:none;stroke:#000000;stroke-linecap:square;stroke-linejoin:miter;stroke-width:0.5;"/>
   </g>
   <g id="LineCollection_1">
    <path clip-path="url(#p66575e3f75)" d="M 49.014047 65.114373 
L 49.014047 55.872373 
" style="fill:none;stroke:#483d8b;"/>
    <path clip-path="url(#p66575e3f75)" d="M 93.424164 65.114373 
L 93.424164 55.872373 
" style="fill:none;stroke:#483d8b;"/>
    <path clip-path="url(#p66575e3f75)" d="M 137.834281 70.361356 
L 137.834281 60.885047 
" style="fill:none;stroke:#483d8b;"/>
    <path clip-path="url(#p66575e3f75)" d="M 182.244399 96.876196 
L 182.244399 86.950952 
" style="fill:none;stroke:#483d8b;"/>
    <path clip-path="url(#p66575e3f75)" d="M 226.654516 124.661614 
L 226.654516 115.59365 
" style="fill:none;stroke:#483d8b;"/>
   </g>
   <g id="line2d_33">
    <defs>
     <path d="M 5 0 
L -5 -0 
" id="m62b9d1216c" style="stroke:#483d8b;"/>
    </defs>
    <g clip-path="url(#p66575e3f75)">
     <use style="fill:#483d8b;stroke:#483d8b;" x="49.014047" xlink:href="#m62b9d1216c" y="65.114373"/>
     <use style="fill:#483d8b;stroke:#483d8b;" x="93.424164" xlink:href="#m62b9d1216c" y="65.114373"/>
     <use style="fill:#483d8b;stroke:#483d8b;" x="137.834281" xlink:href="#m62b9d1216c" y="70.361356"/>
     <use style="fill:#483d8b;stroke:#483d8b;" x="182.244399" xlink:href="#m62b9d1216c" y="96.876196"/>
     <use style="fill:#483d8b;stroke:#483d8b;" x="226.654516" xlink:href="#m62b9d1216c" y="124.661614"/>
    </g>
   </g>
   <g id="line2d_34">
    <g clip-path="url(#p66575e3f75)">
     <use style="fill:#483d8b;stroke:#483d8b;" x="49.014047" xlink:href="#m62b9d1216c" y="55.872373"/>
     <use style="fill:#483d8b;stroke:#483d8b;" x="93.424164" xlink:href="#m62b9d1216c" y="55.872373"/>
     <use style="fill:#483d8b;stroke:#483d8b;" x="137.834281" xlink:href="#m62b9d1216c" y="60.885047"/>
     <use style="fill:#483d8b;stroke:#483d8b;" x="182.244399" xlink:href="#m62b9d1216c" y="86.950952"/>
     <use style="fill:#483d8b;stroke:#483d8b;" x="226.654516" xlink:href="#m62b9d1216c" y="115.59365"/>
    </g>
   </g>
   <g id="text_8">
    <!-- $C$ -->
    <g transform="translate(31.25 178.671115)scale(0.08 -0.08)">
     <use transform="translate(0 0.40625)" xlink:href="#STIXGeneral-Italic-67"/>
    </g>
   </g>
   <g id="text_9">
    <!-- $H$ -->
    <g transform="translate(208.890469 178.671115)scale(0.08 -0.08)">
     <defs>
      <path d="M 76.90625 65.296875 
L 76.90625 63.703125 
Q 72.5 62.90625 71.09375 61.703125 
Q 69.703125 60.5 68.5 56.296875 
L 55.296875 8.203125 
Q 55 7 55 5.796875 
Q 55 3.703125 56.5 2.890625 
Q 58 2.09375 62.90625 1.59375 
L 62.90625 0 
L 35.5 0 
L 35.5 1.59375 
Q 40.59375 2 42.640625 3.703125 
Q 44.703125 5.40625 45.703125 9.296875 
L 52.09375 32.59375 
L 23.59375 32.59375 
L 17 8.203125 
Q 16.703125 7.203125 16.703125 6 
Q 16.703125 3.796875 17.953125 3 
Q 19.203125 2.203125 23.703125 1.59375 
L 23.703125 0 
L -0.796875 0 
L -0.796875 1.59375 
Q 3.296875 2 4.84375 3.59375 
Q 6.40625 5.203125 7.796875 10.203125 
L 19.59375 53.203125 
Q 20.796875 57.796875 20.796875 59.59375 
Q 20.796875 61.703125 19.34375 62.453125 
Q 17.90625 63.203125 13.09375 63.703125 
L 13.09375 65.296875 
L 40.203125 65.296875 
L 40.203125 63.703125 
Q 35.703125 63.40625 33.453125 61.796875 
Q 31.203125 60.203125 30.203125 56.59375 
L 24.796875 36.796875 
L 53.296875 36.796875 
L 57.90625 53.203125 
Q 59.296875 58.40625 59.296875 59.5 
Q 59.296875 61.40625 57.6875 62.40625 
Q 56.09375 63.40625 52.09375 63.703125 
L 52.09375 65.296875 
z
" id="STIXGeneral-Italic-72"/>
     </defs>
     <use transform="translate(0 0.703125)" xlink:href="#STIXGeneral-Italic-72"/>
    </g>
   </g>
   <g id="line2d_35">
    <defs>
     <path d="M 0 1.5 
C 0.397805 1.5 0.77937 1.341951 1.06066 1.06066 
C 1.341951 0.77937 1.5 0.397805 1.5 0 
C 1.5 -0.397805 1.341951 -0.77937 1.06066 -1.06066 
C 0.77937 -1.341951 0.397805 -1.5 0 -1.5 
C -0.397805 -1.5 -0.77937 -1.341951 -1.06066 -1.06066 
C -1.341951 -0.77937 -1.5 -0.397805 -1.5 0 
C -1.5 0.397805 -1.341951 0.77937 -1.06066 1.06066 
C -0.77937 1.341951 -0.397805 1.5 0 1.5 
z
" id="m15098156b9" style="stroke:#483d8b;"/>
    </defs>
    <g clip-path="url(#p66575e3f75)">
     <use style="fill:#483d8b;stroke:#483d8b;" x="49.014047" xlink:href="#m15098156b9" y="60.493373"/>
     <use style="fill:#483d8b;stroke:#483d8b;" x="93.424164" xlink:href="#m15098156b9" y="60.493373"/>
     <use style="fill:#483d8b;stroke:#483d8b;" x="137.834281" xlink:href="#m15098156b9" y="65.623202"/>
     <use style="fill:#483d8b;stroke:#483d8b;" x="182.244399" xlink:href="#m15098156b9" y="91.913574"/>
     <use style="fill:#483d8b;stroke:#483d8b;" x="226.654516" xlink:href="#m15098156b9" y="120.127632"/>
    </g>
   </g>
   <g id="legend_1">
    <g id="patch_54">
     <path d="M 33.65 164.854862 
L 64.24375 164.854862 
Q 65.84375 164.854862 65.84375 163.254862 
L 65.84375 130.519862 
Q 65.84375 128.919862 64.24375 128.919862 
L 33.65 128.919862 
Q 32.05 128.919862 32.05 130.519862 
L 32.05 163.254862 
Q 32.05 164.854862 33.65 164.854862 
z
" style="fill:#ffffff;opacity:0.8;stroke:#cccccc;stroke-linejoin:miter;"/>
    </g>
    <g id="patch_55">
     <path d="M 32.85 136.879862 
L 40.85 136.879862 
L 40.85 129.719862 
L 32.85 129.719862 
z
" style="fill:#669866;opacity:0.85;"/>
    </g>
    <g id="text_10">
     <!-- H high -->
     <g transform="translate(41.65 136.039862)scale(0.08 -0.08)">
      <defs>
       <path d="M 8.84375 72.90625 
L 17.71875 72.90625 
L 17.71875 43.015625 
L 49.953125 43.015625 
L 49.953125 72.90625 
L 58.84375 72.90625 
L 58.84375 0 
L 49.953125 0 
L 49.953125 34.71875 
L 17.71875 34.71875 
L 17.71875 0 
L 8.84375 0 
z
" id="DejaVuSansCondensed-72"/>
       <path id="DejaVuSansCondensed-32"/>
       <path d="M 40.875 27.984375 
Q 40.875 37.75 37.234375 43.109375 
Q 33.59375 48.484375 27.046875 48.484375 
Q 20.5625 48.484375 16.9375 43.109375 
Q 13.328125 37.75 13.328125 27.984375 
Q 13.328125 18.265625 16.9375 12.890625 
Q 20.5625 7.515625 27.046875 7.515625 
Q 33.59375 7.515625 37.234375 12.890625 
Q 40.875 18.265625 40.875 27.984375 
z
M 48.96875 6.78125 
Q 48.96875 -7.171875 43.375 -13.984375 
Q 37.796875 -20.796875 26.265625 -20.796875 
Q 22.015625 -20.796875 18.234375 -20.09375 
Q 14.453125 -19.390625 10.890625 -17.921875 
L 10.890625 -9.1875 
Q 14.453125 -11.328125 17.921875 -12.34375 
Q 21.390625 -13.375 25 -13.375 
Q 32.953125 -13.375 36.90625 -8.765625 
Q 40.875 -4.15625 40.875 5.171875 
L 40.875 9.625 
Q 38.375 4.78125 34.46875 2.390625 
Q 30.5625 0 25.09375 0 
Q 16.015625 0 10.5 7.65625 
Q 4.984375 15.328125 4.984375 27.984375 
Q 4.984375 40.671875 10.5 48.328125 
Q 16.015625 56 25.09375 56 
Q 30.5625 56 34.46875 53.609375 
Q 38.375 51.21875 40.875 46.390625 
L 40.875 54.6875 
L 48.96875 54.6875 
z
" id="DejaVuSansCondensed-103"/>
      </defs>
      <use xlink:href="#DejaVuSansCondensed-72"/>
      <use x="67.675781" xlink:href="#DejaVuSansCondensed-32"/>
      <use x="96.240234" xlink:href="#DejaVuSansCondensed-104"/>
      <use x="153.271484" xlink:href="#DejaVuSansCondensed-105"/>
      <use x="178.271484" xlink:href="#DejaVuSansCondensed-103"/>
      <use x="235.400391" xlink:href="#DejaVuSansCondensed-104"/>
     </g>
    </g>
    <g id="patch_56">
     <path d="M 32.85 145.663612 
L 40.85 145.663612 
L 40.85 138.503612 
L 32.85 138.503612 
z
" style="fill:#66a666;opacity:0.85;"/>
    </g>
    <g id="text_11">
     <!-- H low -->
     <g transform="translate(41.65 144.823612)scale(0.08 -0.08)">
      <defs>
       <path d="M 8.5 75.984375 
L 16.546875 75.984375 
L 16.546875 0 
L 8.5 0 
z
" id="DejaVuSansCondensed-108"/>
       <path d="M 3.765625 54.6875 
L 11.859375 54.6875 
L 21.96875 12.015625 
L 32.03125 54.6875 
L 41.546875 54.6875 
L 51.65625 12.015625 
L 61.71875 54.6875 
L 69.828125 54.6875 
L 56.9375 0 
L 47.40625 0 
L 36.8125 44.828125 
L 26.171875 0 
L 16.65625 0 
z
" id="DejaVuSansCondensed-119"/>
      </defs>
      <use xlink:href="#DejaVuSansCondensed-72"/>
      <use x="67.675781" xlink:href="#DejaVuSansCondensed-32"/>
      <use x="96.240234" xlink:href="#DejaVuSansCondensed-108"/>
      <use x="121.240234" xlink:href="#DejaVuSansCondensed-111"/>
      <use x="176.269531" xlink:href="#DejaVuSansCondensed-119"/>
     </g>
    </g>
    <g id="patch_57">
     <path d="M 32.85 154.447362 
L 40.85 154.447362 
L 40.85 147.287362 
L 32.85 147.287362 
z
" style="fill:#d3b976;opacity:0.85;"/>
    </g>
    <g id="text_12">
     <!-- C low -->
     <g transform="translate(41.65 153.607362)scale(0.08 -0.08)">
      <defs>
       <path d="M 57.953125 67.28125 
L 57.953125 56.890625 
Q 53.46875 61.53125 48.390625 63.8125 
Q 43.3125 66.109375 37.59375 66.109375 
Q 26.375 66.109375 20.390625 58.46875 
Q 14.40625 50.828125 14.40625 36.375 
Q 14.40625 21.96875 20.390625 14.328125 
Q 26.375 6.6875 37.59375 6.6875 
Q 43.3125 6.6875 48.390625 8.984375 
Q 53.46875 11.28125 57.953125 15.921875 
L 57.953125 5.609375 
Q 53.328125 2.09375 48.09375 0.328125 
Q 42.875 -1.421875 37.109375 -1.421875 
Q 22.171875 -1.421875 13.625 8.703125 
Q 5.078125 18.84375 5.078125 36.375 
Q 5.078125 53.953125 13.625 64.078125 
Q 22.171875 74.21875 37.109375 74.21875 
Q 42.96875 74.21875 48.1875 72.484375 
Q 53.421875 70.75 57.953125 67.28125 
z
" id="DejaVuSansCondensed-67"/>
      </defs>
      <use xlink:href="#DejaVuSansCondensed-67"/>
      <use x="62.841797" xlink:href="#DejaVuSansCondensed-32"/>
      <use x="91.40625" xlink:href="#DejaVuSansCondensed-108"/>
      <use x="116.40625" xlink:href="#DejaVuSansCondensed-111"/>
      <use x="171.435547" xlink:href="#DejaVuSansCondensed-119"/>
     </g>
    </g>
    <g id="patch_58">
     <path d="M 32.85 163.231112 
L 40.85 163.231112 
L 40.85 156.071112 
L 32.85 156.071112 
z
" style="fill:#c2a96c;opacity:0.85;"/>
    </g>
    <g id="text_13">
     <!-- C high -->
     <g transform="translate(41.65 162.391112)scale(0.08 -0.08)">
      <use xlink:href="#DejaVuSansCondensed-67"/>
      <use x="62.841797" xlink:href="#DejaVuSansCondensed-32"/>
      <use x="91.40625" xlink:href="#DejaVuSansCondensed-104"/>
      <use x="148.4375" xlink:href="#DejaVuSansCondensed-105"/>
      <use x="173.4375" xlink:href="#DejaVuSansCondensed-103"/>
      <use x="230.566406" xlink:href="#DejaVuSansCondensed-104"/>
     </g>
    </g>
   </g>
   <g id="legend_2">
    <g id="patch_59">
     <path d="M 181.306063 39.71125 
L 242.018563 39.71125 
Q 243.618563 39.71125 243.618563 38.11125 
L 243.618563 14.16 
Q 243.618563 12.56 242.018563 12.56 
L 181.306063 12.56 
Q 179.706063 12.56 179.706063 14.16 
L 179.706063 38.11125 
Q 179.706063 39.71125 181.306063 39.71125 
z
" style="fill:#ffffff;opacity:0.8;stroke:#cccccc;stroke-linejoin:miter;"/>
    </g>
    <g id="LineCollection_2">
     <path d="M 184.506063 19.32 
L 184.506063 13.72 
" style="fill:none;stroke:#483d8b;"/>
    </g>
    <g id="line2d_36">
     <g>
      <use style="fill:#483d8b;stroke:#483d8b;" x="184.506063" xlink:href="#m62b9d1216c" y="19.32"/>
     </g>
    </g>
    <g id="line2d_37">
     <g>
      <use style="fill:#483d8b;stroke:#483d8b;" x="184.506063" xlink:href="#m62b9d1216c" y="13.72"/>
     </g>
    </g>
    <g id="line2d_38"/>
    <g id="line2d_39">
     <g>
      <use style="fill:#483d8b;stroke:#483d8b;" x="184.506063" xlink:href="#m15098156b9" y="16.52"/>
     </g>
    </g>
    <g id="text_14">
     <!-- Human $\pm$ sem -->
     <g transform="translate(189.306063 19.68)scale(0.08 -0.08)">
      <defs>
       <path d="M 7.671875 21.578125 
L 7.671875 54.6875 
L 15.71875 54.6875 
L 15.71875 21.921875 
Q 15.71875 14.15625 18.453125 10.265625 
Q 21.1875 6.390625 26.609375 6.390625 
Q 33.203125 6.390625 36.984375 11.03125 
Q 40.765625 15.671875 40.765625 23.6875 
L 40.765625 54.6875 
L 48.875 54.6875 
L 48.875 0 
L 40.765625 0 
L 40.765625 8.40625 
Q 37.84375 3.421875 33.953125 1 
Q 30.078125 -1.421875 24.90625 -1.421875 
Q 16.453125 -1.421875 12.0625 4.4375 
Q 7.671875 10.296875 7.671875 21.578125 
z
M 27.984375 56 
z
" id="DejaVuSansCondensed-117"/>
       <path d="M 46.78125 44.1875 
Q 49.859375 50.25 54.046875 53.125 
Q 58.25 56 63.96875 56 
Q 71.6875 56 75.859375 50.015625 
Q 80.03125 44.046875 80.03125 33.015625 
L 80.03125 0 
L 71.875 0 
L 71.875 32.71875 
Q 71.875 40.578125 69.375 44.375 
Q 66.890625 48.1875 61.71875 48.1875 
Q 55.46875 48.1875 51.796875 43.546875 
Q 48.140625 38.921875 48.140625 30.90625 
L 48.140625 0 
L 40.046875 0 
L 40.046875 32.71875 
Q 40.046875 40.625 37.53125 44.40625 
Q 35.015625 48.1875 29.78125 48.1875 
Q 23.578125 48.1875 19.9375 43.53125 
Q 16.3125 38.875 16.3125 30.90625 
L 16.3125 0 
L 8.15625 0 
L 8.15625 54.6875 
L 16.3125 54.6875 
L 16.3125 46.1875 
Q 19.09375 51.21875 22.953125 53.609375 
Q 26.8125 56 32.125 56 
Q 37.5 56 41.25 52.96875 
Q 45.015625 49.953125 46.78125 44.1875 
z
" id="DejaVuSansCondensed-109"/>
       <path d="M 30.859375 27.484375 
Q 21.046875 27.484375 17.265625 25 
Q 13.484375 22.515625 13.484375 16.5 
Q 13.484375 11.71875 16.3125 8.90625 
Q 19.140625 6.109375 24.03125 6.109375 
Q 30.765625 6.109375 34.8125 11.40625 
Q 38.875 16.703125 38.875 25.484375 
L 38.875 27.484375 
z
M 46.96875 31.203125 
L 46.96875 0 
L 38.875 0 
L 38.875 8.296875 
Q 36.140625 3.328125 32 0.953125 
Q 27.875 -1.421875 21.875 -1.421875 
Q 14.3125 -1.421875 9.859375 3.296875 
Q 5.421875 8.015625 5.421875 15.921875 
Q 5.421875 25.140625 10.953125 29.828125 
Q 16.5 34.515625 27.546875 34.515625 
L 38.875 34.515625 
L 38.875 35.40625 
Q 38.875 41.609375 35.203125 45 
Q 31.546875 48.390625 24.90625 48.390625 
Q 20.703125 48.390625 16.703125 47.265625 
Q 12.703125 46.140625 8.984375 43.890625 
L 8.984375 52.203125 
Q 13.421875 54.109375 17.59375 55.046875 
Q 21.78125 56 25.734375 56 
Q 36.421875 56 41.6875 49.84375 
Q 46.96875 43.703125 46.96875 31.203125 
z
" id="DejaVuSansCondensed-97"/>
       <path d="M 49.421875 33.015625 
L 49.421875 0 
L 41.3125 0 
L 41.3125 32.71875 
Q 41.3125 40.484375 38.578125 44.328125 
Q 35.84375 48.1875 30.421875 48.1875 
Q 23.875 48.1875 20.09375 43.546875 
Q 16.3125 38.921875 16.3125 30.90625 
L 16.3125 0 
L 8.15625 0 
L 8.15625 54.6875 
L 16.3125 54.6875 
L 16.3125 46.1875 
Q 19.1875 51.125 23.109375 53.5625 
Q 27.046875 56 32.234375 56 
Q 40.671875 56 45.046875 50.171875 
Q 49.421875 44.34375 49.421875 33.015625 
z
" id="DejaVuSansCondensed-110"/>
       <path d="M 41.40625 62.703125 
L 41.40625 43.796875 
L 65.875 43.796875 
L 65.875 35.5 
L 41.40625 35.5 
L 41.40625 16.609375 
L 34.03125 16.609375 
L 34.03125 35.5 
L 9.515625 35.5 
L 9.515625 43.796875 
L 34.03125 43.796875 
L 34.03125 62.703125 
z
M 9.515625 8.296875 
L 65.875 8.296875 
L 65.875 0 
L 9.515625 0 
z
" id="DejaVuSansCondensed-177"/>
       <path d="M 39.84375 53.078125 
L 39.84375 44.578125 
Q 36.421875 46.53125 32.734375 47.5 
Q 29.046875 48.484375 25.09375 48.484375 
Q 19.09375 48.484375 16.0625 46.4375 
Q 13.03125 44.390625 13.03125 40.28125 
Q 13.03125 37.15625 15.203125 35.375 
Q 17.390625 33.59375 23.875 31.984375 
L 26.609375 31.296875 
Q 35.25 29.25 38.859375 25.515625 
Q 42.484375 21.78125 42.484375 15.09375 
Q 42.484375 7.46875 37.0625 3.015625 
Q 31.640625 -1.421875 22.171875 -1.421875 
Q 18.21875 -1.421875 13.921875 -0.5625 
Q 9.625 0.296875 4.890625 2 
L 4.890625 11.28125 
Q 9.375 8.6875 13.71875 7.390625 
Q 18.0625 6.109375 22.3125 6.109375 
Q 28.03125 6.109375 31.109375 8.28125 
Q 34.1875 10.453125 34.1875 14.40625 
Q 34.1875 18.0625 31.953125 20.015625 
Q 29.734375 21.96875 22.21875 23.78125 
L 19.4375 24.515625 
Q 11.921875 26.265625 8.5625 29.90625 
Q 5.21875 33.546875 5.21875 39.890625 
Q 5.21875 47.609375 10.15625 51.796875 
Q 15.09375 56 24.125 56 
Q 28.609375 56 32.5625 55.265625 
Q 36.53125 54.546875 39.84375 53.078125 
z
" id="DejaVuSansCondensed-115"/>
      </defs>
      <use transform="translate(0 0.09375)" xlink:href="#DejaVuSansCondensed-72"/>
      <use transform="translate(67.675781 0.09375)" xlink:href="#DejaVuSansCondensed-117"/>
      <use transform="translate(124.707031 0.09375)" xlink:href="#DejaVuSansCondensed-109"/>
      <use transform="translate(212.353516 0.09375)" xlink:href="#DejaVuSansCondensed-97"/>
      <use transform="translate(267.480469 0.09375)" xlink:href="#DejaVuSansCondensed-110"/>
      <use transform="translate(324.511719 0.09375)" xlink:href="#DejaVuSansCondensed-32"/>
      <use transform="translate(353.076172 0.09375)" xlink:href="#DejaVuSansCondensed-177"/>
      <use transform="translate(428.466797 0.09375)" xlink:href="#DejaVuSansCondensed-32"/>
      <use transform="translate(457.03125 0.09375)" xlink:href="#DejaVuSansCondensed-115"/>
      <use transform="translate(503.90625 0.09375)" xlink:href="#DejaVuSansCondensed-101"/>
      <use transform="translate(559.277344 0.09375)" xlink:href="#DejaVuSansCondensed-109"/>
     </g>
    </g>
    <g id="line2d_40">
     <path d="M 180.506063 25.30375 
L 188.506063 25.30375 
" style="fill:none;stroke:#6a5acd;stroke-linecap:square;"/>
    </g>
    <g id="line2d_41">
     <g>
      <use style="fill:#6a5acd;stroke:#6a5acd;" x="184.506063" xlink:href="#mff843c1717" y="25.30375"/>
     </g>
    </g>
    <g id="text_15">
     <!-- Fitted model -->
     <g transform="translate(189.306063 28.46375)scale(0.08 -0.08)">
      <defs>
       <path d="M 8.84375 72.90625 
L 46.53125 72.90625 
L 46.53125 64.59375 
L 17.71875 64.59375 
L 17.71875 43.109375 
L 43.75 43.109375 
L 43.75 34.8125 
L 17.71875 34.8125 
L 17.71875 0 
L 8.84375 0 
z
" id="DejaVuSansCondensed-70"/>
       <path d="M 16.5 70.21875 
L 16.5 54.6875 
L 33.15625 54.6875 
L 33.15625 47.703125 
L 16.5 47.703125 
L 16.5 18.015625 
Q 16.5 11.328125 18.140625 9.421875 
Q 19.78125 7.515625 24.8125 7.515625 
L 33.15625 7.515625 
L 33.15625 0 
L 24.8125 0 
Q 15.484375 0 11.90625 3.875 
Q 8.34375 7.765625 8.34375 18.015625 
L 8.34375 47.703125 
L 2.4375 47.703125 
L 2.4375 54.6875 
L 8.34375 54.6875 
L 8.34375 70.21875 
z
" id="DejaVuSansCondensed-116"/>
       <path d="M 40.875 46.390625 
L 40.875 75.984375 
L 48.96875 75.984375 
L 48.96875 0 
L 40.875 0 
L 40.875 8.203125 
Q 38.328125 3.328125 34.4375 0.953125 
Q 30.5625 -1.421875 25.09375 -1.421875 
Q 16.15625 -1.421875 10.5625 6.484375 
Q 4.984375 14.40625 4.984375 27.296875 
Q 4.984375 40.1875 10.5625 48.09375 
Q 16.15625 56 25.09375 56 
Q 30.5625 56 34.4375 53.625 
Q 38.328125 51.265625 40.875 46.390625 
z
M 13.328125 27.296875 
Q 13.328125 17.390625 16.984375 11.75 
Q 20.65625 6.109375 27.046875 6.109375 
Q 33.5 6.109375 37.1875 11.75 
Q 40.875 17.390625 40.875 27.296875 
Q 40.875 37.203125 37.1875 42.84375 
Q 33.5 48.484375 27.046875 48.484375 
Q 20.65625 48.484375 16.984375 42.84375 
Q 13.328125 37.203125 13.328125 27.296875 
z
" id="DejaVuSansCondensed-100"/>
      </defs>
      <use xlink:href="#DejaVuSansCondensed-70"/>
      <use x="44.507812" xlink:href="#DejaVuSansCondensed-105"/>
      <use x="69.507812" xlink:href="#DejaVuSansCondensed-116"/>
      <use x="104.761719" xlink:href="#DejaVuSansCondensed-116"/>
      <use x="140.015625" xlink:href="#DejaVuSansCondensed-101"/>
      <use x="195.386719" xlink:href="#DejaVuSansCondensed-100"/>
      <use x="252.515625" xlink:href="#DejaVuSansCondensed-32"/>
      <use x="281.080078" xlink:href="#DejaVuSansCondensed-109"/>
      <use x="368.726562" xlink:href="#DejaVuSansCondensed-111"/>
      <use x="423.755859" xlink:href="#DejaVuSansCondensed-100"/>
      <use x="480.884766" xlink:href="#DejaVuSansCondensed-101"/>
      <use x="536.255859" xlink:href="#DejaVuSansCondensed-108"/>
     </g>
    </g>
    <g id="line2d_42">
     <path d="M 180.506063 34.0875 
L 188.506063 34.0875 
" style="fill:none;stroke:#1e90ff;stroke-dasharray:3.7,1.6;stroke-dashoffset:0;"/>
    </g>
    <g id="line2d_43">
     <g>
      <use style="fill:#1e90ff;stroke:#1e90ff;" x="184.506063" xlink:href="#mbe1c4047e2" y="34.0875"/>
     </g>
    </g>
    <g id="text_16">
     <!-- Transfer model -->
     <g transform="translate(189.306063 37.2475)scale(0.08 -0.08)">
      <defs>
       <path d="M -0.203125 72.90625 
L 55.28125 72.90625 
L 55.28125 64.59375 
L 31.984375 64.59375 
L 31.984375 0 
L 23.09375 0 
L 23.09375 64.59375 
L -0.203125 64.59375 
z
" id="DejaVuSansCondensed-84"/>
       <path d="M 37.015625 46.296875 
Q 35.640625 47.171875 34.03125 47.578125 
Q 32.421875 48 30.515625 48 
Q 23.640625 48 19.96875 43.046875 
Q 16.3125 38.09375 16.3125 28.8125 
L 16.3125 0 
L 8.15625 0 
L 8.15625 54.6875 
L 16.3125 54.6875 
L 16.3125 46.1875 
Q 18.84375 51.171875 22.9375 53.578125 
Q 27.046875 56 32.859375 56 
Q 33.6875 56 34.71875 55.875 
Q 35.75 55.765625 36.96875 55.515625 
z
" id="DejaVuSansCondensed-114"/>
       <path d="M 33.40625 75.984375 
L 33.40625 68.5 
L 25.6875 68.5 
Q 21.296875 68.5 19.609375 66.546875 
Q 17.921875 64.59375 17.921875 59.515625 
L 17.921875 54.6875 
L 31.25 54.6875 
L 31.25 47.703125 
L 17.921875 47.703125 
L 17.921875 0 
L 9.8125 0 
L 9.8125 47.703125 
L 2.046875 47.703125 
L 2.046875 54.6875 
L 9.8125 54.6875 
L 9.8125 58.5 
Q 9.8125 67.625 13.625 71.796875 
Q 17.4375 75.984375 25.734375 75.984375 
z
" id="DejaVuSansCondensed-102"/>
      </defs>
      <use xlink:href="#DejaVuSansCondensed-84"/>
      <use x="40.181641" xlink:href="#DejaVuSansCondensed-114"/>
      <use x="77.144531" xlink:href="#DejaVuSansCondensed-97"/>
      <use x="132.271484" xlink:href="#DejaVuSansCondensed-110"/>
      <use x="189.302734" xlink:href="#DejaVuSansCondensed-115"/>
      <use x="236.177734" xlink:href="#DejaVuSansCondensed-102"/>
      <use x="267.818359" xlink:href="#DejaVuSansCondensed-101"/>
      <use x="323.189453" xlink:href="#DejaVuSansCondensed-114"/>
      <use x="360.152344" xlink:href="#DejaVuSansCondensed-32"/>
      <use x="388.716797" xlink:href="#DejaVuSansCondensed-109"/>
      <use x="476.363281" xlink:href="#DejaVuSansCondensed-111"/>
      <use x="531.392578" xlink:href="#DejaVuSansCondensed-100"/>
      <use x="588.521484" xlink:href="#DejaVuSansCondensed-101"/>
      <use x="643.892578" xlink:href="#DejaVuSansCondensed-108"/>
     </g>
    </g>
   </g>
  </g>
 </g>
 <defs>
  <clipPath id="p66575e3f75">
   <rect height="153.894862" width="213.168563" x="31.25" y="11.76"/>
  </clipPath>
 </defs>
</svg>
