<?xml version="1.0" encoding="utf-8" standalone="no"?>
<!DOCTYPE svg PUBLIC "-//W3C//DTD SVG 1.1//EN"
  "http://www.w3.org/Graphics/SVG/1.1/DTD/svg11.dtd">
<!-- Created with matplotlib (https://matplotlib.org/) -->
<svg height="136.062992pt" version="1.1" viewBox="0 0 189.92126 136.062992" width="189.92126pt" xmlns="http://www.w3.org/2000/svg" xmlns:xlink="http://www.w3.org/1999/xlink">
 <metadata>
  <rdf:RDF xmlns:cc="http://creativecommons.org/ns#" xmlns:dc="http://purl.org/dc/elements/1.1/" xmlns:rdf="http://www.w3.org/1999/02/22-rdf-syntax-ns#">
   <cc:Work>
    <dc:type rdf:resource="http://purl.org/dc/dcmitype/StillImage"/>
    <dc:date>2020-11-04T20:57:16.576575</dc:date>
    <dc:format>image/svg+xml</dc:format>
    <dc:creator>
     <cc:Agent>
      <dc:title>Matplotlib v3.3.0, https://matplotlib.org/</dc:title>
     </cc:Agent>
    </dc:creator>
   </cc:Work>
  </rdf:RDF>
 </metadata>
 <defs>
  <style type="text/css">*{stroke-linecap:butt;stroke-linejoin:round;}</style>
 </defs>
 <g id="figure_1">
  <g id="patch_1">
   <path d="M 0 136.062992 
L 189.92126 136.062992 
L 189.92126 0 
L 0 0 
z
" style="fill:none;"/>
  </g>
  <g id="axes_1">
   <g id="patch_2">
    <path d="M 23.740157 121.096063 
L 170.929134 121.096063 
L 170.929134 16.327559 
L 23.740157 16.327559 
z
" style="fill:none;"/>
   </g>
   <g id="matplotlib.axis_1">
    <g id="xtick_1">
     <g id="line2d_1">
      <defs>
       <path d="M 0 0 
L 0 -3 
" id="m0e960bf120" style="stroke:#000000;stroke-width:0.5;"/>
      </defs>
      <g>
       <use style="stroke:#000000;stroke-width:0.5;" x="29.873031" xlink:href="#m0e960bf120" y="121.096063"/>
      </g>
     </g>
     <g id="text_1">
      <!-- 1 -->
      <g transform="translate(27.583656 128.174813)scale(0.08 -0.08)">
       <defs>
        <path d="M 11.1875 8.296875 
L 25.6875 8.296875 
L 25.6875 63.921875 
L 9.859375 60.40625 
L 9.859375 69.390625 
L 25.59375 72.90625 
L 34.46875 72.90625 
L 34.46875 8.296875 
L 48.96875 8.296875 
L 48.96875 0 
L 11.1875 0 
z
" id="DejaVuSansCondensed-49"/>
       </defs>
       <use xlink:href="#DejaVuSansCondensed-49"/>
      </g>
     </g>
    </g>
    <g id="xtick_2">
     <g id="line2d_2">
      <g>
       <use style="stroke:#000000;stroke-width:0.5;" x="42.13878" xlink:href="#m0e960bf120" y="121.096063"/>
      </g>
     </g>
     <g id="text_2">
      <!-- 2 -->
      <g transform="translate(39.849405 128.174813)scale(0.08 -0.08)">
       <defs>
        <path d="M 17.28125 8.296875 
L 48.25 8.296875 
L 48.25 0 
L 6.59375 0 
L 6.59375 8.296875 
Q 11.625 14.109375 20.359375 23.890625 
Q 29.109375 33.6875 31.34375 36.53125 
Q 35.59375 41.84375 37.28125 45.53125 
Q 38.96875 49.21875 38.96875 52.78125 
Q 38.96875 58.59375 35.296875 62.25 
Q 31.640625 65.921875 25.734375 65.921875 
Q 21.578125 65.921875 16.9375 64.3125 
Q 12.3125 62.703125 7.03125 59.421875 
L 7.03125 69.390625 
Q 12.40625 71.78125 17.0625 73 
Q 21.734375 74.21875 25.59375 74.21875 
Q 35.796875 74.21875 41.84375 68.546875 
Q 47.90625 62.890625 47.90625 53.421875 
Q 47.90625 48.921875 46.390625 44.890625 
Q 44.875 40.875 40.875 35.40625 
Q 39.75 33.984375 33.859375 27.21875 
Q 27.984375 20.453125 17.28125 8.296875 
z
" id="DejaVuSansCondensed-50"/>
       </defs>
       <use xlink:href="#DejaVuSansCondensed-50"/>
      </g>
     </g>
    </g>
    <g id="xtick_3">
     <g id="line2d_3">
      <g>
       <use style="stroke:#000000;stroke-width:0.5;" x="54.404528" xlink:href="#m0e960bf120" y="121.096063"/>
      </g>
     </g>
     <g id="text_3">
      <!-- 3 -->
      <g transform="translate(52.115153 128.174813)scale(0.08 -0.08)">
       <defs>
        <path d="M 36.53125 39.3125 
Q 42.875 37.796875 46.453125 33 
Q 50.046875 28.21875 50.046875 21.1875 
Q 50.046875 10.40625 43.375 4.484375 
Q 36.71875 -1.421875 24.421875 -1.421875 
Q 20.265625 -1.421875 15.890625 -0.515625 
Q 11.53125 0.390625 6.84375 2.203125 
L 6.84375 11.71875 
Q 10.546875 9.328125 14.9375 8.109375 
Q 19.34375 6.890625 24.125 6.890625 
Q 32.46875 6.890625 36.84375 10.546875 
Q 41.21875 14.203125 41.21875 21.1875 
Q 41.21875 27.640625 37.15625 31.265625 
Q 33.109375 34.90625 25.828125 34.90625 
L 18.21875 34.90625 
L 18.21875 43.015625 
L 26.171875 43.015625 
Q 32.71875 43.015625 36.203125 45.921875 
Q 39.703125 48.828125 39.703125 54.296875 
Q 39.703125 59.90625 36.109375 62.90625 
Q 32.515625 65.921875 25.828125 65.921875 
Q 22.171875 65.921875 18.015625 65.03125 
Q 13.875 64.15625 8.84375 62.3125 
L 8.84375 71.09375 
Q 13.875 72.65625 18.28125 73.4375 
Q 22.703125 74.21875 26.609375 74.21875 
Q 36.71875 74.21875 42.625 69.109375 
Q 48.53125 64.015625 48.53125 55.328125 
Q 48.53125 49.265625 45.40625 45.09375 
Q 42.28125 40.921875 36.53125 39.3125 
z
" id="DejaVuSansCondensed-51"/>
       </defs>
       <use xlink:href="#DejaVuSansCondensed-51"/>
      </g>
     </g>
    </g>
    <g id="xtick_4">
     <g id="line2d_4">
      <g>
       <use style="stroke:#000000;stroke-width:0.5;" x="66.670276" xlink:href="#m0e960bf120" y="121.096063"/>
      </g>
     </g>
     <g id="text_4">
      <!-- 4 -->
      <g transform="translate(64.380901 128.174813)scale(0.08 -0.08)">
       <defs>
        <path d="M 34.03125 64.3125 
L 11.625 25.390625 
L 34.03125 25.390625 
z
M 31.6875 72.90625 
L 42.875 72.90625 
L 42.875 25.390625 
L 52.203125 25.390625 
L 52.203125 17.1875 
L 42.875 17.1875 
L 42.875 0 
L 34.03125 0 
L 34.03125 17.1875 
L 4.390625 17.1875 
L 4.390625 26.703125 
z
" id="DejaVuSansCondensed-52"/>
       </defs>
       <use xlink:href="#DejaVuSansCondensed-52"/>
      </g>
     </g>
    </g>
    <g id="xtick_5">
     <g id="line2d_5">
      <g>
       <use style="stroke:#000000;stroke-width:0.5;" x="78.936024" xlink:href="#m0e960bf120" y="121.096063"/>
      </g>
     </g>
     <g id="text_5">
      <!-- 5 -->
      <g transform="translate(76.646649 128.174813)scale(0.08 -0.08)">
       <defs>
        <path d="M 9.71875 72.90625 
L 44.578125 72.90625 
L 44.578125 64.59375 
L 17.828125 64.59375 
L 17.828125 46.734375 
Q 19.78125 47.46875 21.703125 47.828125 
Q 23.640625 48.1875 25.59375 48.1875 
Q 36.578125 48.1875 43 41.5 
Q 49.421875 34.8125 49.421875 23.390625 
Q 49.421875 11.625 42.828125 5.09375 
Q 36.234375 -1.421875 24.21875 -1.421875 
Q 20.0625 -1.421875 15.796875 -0.640625 
Q 11.53125 0.140625 6.9375 1.703125 
L 6.9375 11.625 
Q 10.890625 9.234375 15.109375 8.0625 
Q 19.34375 6.890625 24.03125 6.890625 
Q 31.640625 6.890625 36.078125 11.328125 
Q 40.53125 15.765625 40.53125 23.390625 
Q 40.53125 31 36.078125 35.4375 
Q 31.640625 39.890625 24.03125 39.890625 
Q 20.453125 39.890625 16.90625 39.015625 
Q 13.375 38.140625 9.71875 36.28125 
z
" id="DejaVuSansCondensed-53"/>
       </defs>
       <use xlink:href="#DejaVuSansCondensed-53"/>
      </g>
     </g>
    </g>
    <g id="xtick_6">
     <g id="line2d_6">
      <g>
       <use style="stroke:#000000;stroke-width:0.5;" x="91.201772" xlink:href="#m0e960bf120" y="121.096063"/>
      </g>
     </g>
     <g id="text_6">
      <!-- 6 -->
      <g transform="translate(88.912397 128.174813)scale(0.08 -0.08)">
       <defs>
        <path d="M 29.6875 40.375 
Q 23.734375 40.375 20.234375 35.828125 
Q 16.75 31.296875 16.75 23.390625 
Q 16.75 15.53125 20.234375 10.953125 
Q 23.734375 6.390625 29.6875 6.390625 
Q 35.6875 6.390625 39.171875 10.953125 
Q 42.671875 15.53125 42.671875 23.390625 
Q 42.671875 31.296875 39.171875 35.828125 
Q 35.6875 40.375 29.6875 40.375 
z
M 47.3125 71.296875 
L 47.3125 62.3125 
Q 44 64.0625 40.578125 64.984375 
Q 37.15625 65.921875 33.84375 65.921875 
Q 25.046875 65.921875 20.40625 59.328125 
Q 15.765625 52.734375 15.140625 39.40625 
Q 17.71875 43.65625 21.625 45.921875 
Q 25.53125 48.1875 30.21875 48.1875 
Q 40.140625 48.1875 45.875 41.515625 
Q 51.609375 34.859375 51.609375 23.390625 
Q 51.609375 12.15625 45.625 5.359375 
Q 39.65625 -1.421875 29.6875 -1.421875 
Q 18.3125 -1.421875 12.296875 8.265625 
Q 6.296875 17.96875 6.296875 36.375 
Q 6.296875 53.65625 13.671875 63.9375 
Q 21.046875 74.21875 33.5 74.21875 
Q 36.8125 74.21875 40.234375 73.484375 
Q 43.65625 72.75 47.3125 71.296875 
z
" id="DejaVuSansCondensed-54"/>
       </defs>
       <use xlink:href="#DejaVuSansCondensed-54"/>
      </g>
     </g>
    </g>
    <g id="xtick_7">
     <g id="line2d_7">
      <g>
       <use style="stroke:#000000;stroke-width:0.5;" x="103.46752" xlink:href="#m0e960bf120" y="121.096063"/>
      </g>
     </g>
     <g id="text_7">
      <!-- 7 -->
      <g transform="translate(101.178145 128.174813)scale(0.08 -0.08)">
       <defs>
        <path d="M 7.375 72.90625 
L 49.5625 72.90625 
L 49.5625 68.703125 
L 25.734375 0 
L 16.5 0 
L 38.875 64.59375 
L 7.375 64.59375 
z
" id="DejaVuSansCondensed-55"/>
       </defs>
       <use xlink:href="#DejaVuSansCondensed-55"/>
      </g>
     </g>
    </g>
    <g id="xtick_8">
     <g id="line2d_8">
      <g>
       <use style="stroke:#000000;stroke-width:0.5;" x="115.733268" xlink:href="#m0e960bf120" y="121.096063"/>
      </g>
     </g>
     <g id="text_8">
      <!-- 8 -->
      <g transform="translate(113.443893 128.174813)scale(0.08 -0.08)">
       <defs>
        <path d="M 28.609375 34.625 
Q 22.265625 34.625 18.65625 30.859375 
Q 15.046875 27.09375 15.046875 20.515625 
Q 15.046875 13.921875 18.65625 10.15625 
Q 22.265625 6.390625 28.609375 6.390625 
Q 34.96875 6.390625 38.59375 10.171875 
Q 42.234375 13.96875 42.234375 20.515625 
Q 42.234375 27.09375 38.59375 30.859375 
Q 34.96875 34.625 28.609375 34.625 
z
M 19.734375 38.8125 
Q 14.015625 40.375 10.84375 44.71875 
Q 7.671875 49.078125 7.671875 55.328125 
Q 7.671875 64.0625 13.25 69.140625 
Q 18.84375 74.21875 28.609375 74.21875 
Q 38.421875 74.21875 43.984375 69.140625 
Q 49.5625 64.0625 49.5625 55.328125 
Q 49.5625 49.078125 46.390625 44.71875 
Q 43.21875 40.375 37.546875 38.8125 
Q 43.953125 37.15625 47.53125 32.3125 
Q 51.125 27.484375 51.125 20.515625 
Q 51.125 9.90625 45.28125 4.234375 
Q 39.453125 -1.421875 28.609375 -1.421875 
Q 17.78125 -1.421875 11.9375 4.234375 
Q 6.109375 9.90625 6.109375 20.515625 
Q 6.109375 27.484375 9.71875 32.3125 
Q 13.328125 37.15625 19.734375 38.8125 
z
M 16.5 54.390625 
Q 16.5 48.734375 19.671875 45.5625 
Q 22.859375 42.390625 28.609375 42.390625 
Q 34.328125 42.390625 37.546875 45.5625 
Q 40.765625 48.734375 40.765625 54.390625 
Q 40.765625 60.0625 37.546875 63.234375 
Q 34.328125 66.40625 28.609375 66.40625 
Q 22.859375 66.40625 19.671875 63.234375 
Q 16.5 60.0625 16.5 54.390625 
z
" id="DejaVuSansCondensed-56"/>
       </defs>
       <use xlink:href="#DejaVuSansCondensed-56"/>
      </g>
     </g>
    </g>
    <g id="xtick_9">
     <g id="line2d_9">
      <g>
       <use style="stroke:#000000;stroke-width:0.5;" x="127.999016" xlink:href="#m0e960bf120" y="121.096063"/>
      </g>
     </g>
     <g id="text_9">
      <!-- 9 -->
      <g transform="translate(125.709641 128.174813)scale(0.08 -0.08)">
       <defs>
        <path d="M 9.859375 1.515625 
L 9.859375 10.5 
Q 13.234375 8.734375 16.640625 7.8125 
Q 20.0625 6.890625 23.390625 6.890625 
Q 32.171875 6.890625 36.8125 13.453125 
Q 41.453125 20.015625 42.09375 33.40625 
Q 39.546875 29.203125 35.640625 26.953125 
Q 31.734375 24.703125 27 24.703125 
Q 17.140625 24.703125 11.40625 31.3125 
Q 5.671875 37.9375 5.671875 49.421875 
Q 5.671875 60.640625 11.640625 67.421875 
Q 17.625 74.21875 27.546875 74.21875 
Q 38.921875 74.21875 44.921875 64.515625 
Q 50.921875 54.828125 50.921875 36.375 
Q 50.921875 19.140625 43.578125 8.859375 
Q 36.234375 -1.421875 23.78125 -1.421875 
Q 20.40625 -1.421875 16.984375 -0.6875 
Q 13.578125 0.046875 9.859375 1.515625 
z
M 27.546875 32.421875 
Q 33.546875 32.421875 37.03125 36.953125 
Q 40.53125 41.5 40.53125 49.421875 
Q 40.53125 57.28125 37.03125 61.84375 
Q 33.546875 66.40625 27.546875 66.40625 
Q 21.578125 66.40625 18.078125 61.84375 
Q 14.59375 57.28125 14.59375 49.421875 
Q 14.59375 41.5 18.078125 36.953125 
Q 21.578125 32.421875 27.546875 32.421875 
z
" id="DejaVuSansCondensed-57"/>
       </defs>
       <use xlink:href="#DejaVuSansCondensed-57"/>
      </g>
     </g>
    </g>
    <g id="xtick_10">
     <g id="line2d_10">
      <g>
       <use style="stroke:#000000;stroke-width:0.5;" x="140.264764" xlink:href="#m0e960bf120" y="121.096063"/>
      </g>
     </g>
     <g id="text_10">
      <!-- 10 -->
      <g transform="translate(135.686014 128.174813)scale(0.08 -0.08)">
       <defs>
        <path d="M 28.609375 66.40625 
Q 21.78125 66.40625 18.3125 58.90625 
Q 14.84375 51.421875 14.84375 36.375 
Q 14.84375 21.390625 18.3125 13.890625 
Q 21.78125 6.390625 28.609375 6.390625 
Q 35.5 6.390625 38.9375 13.890625 
Q 42.390625 21.390625 42.390625 36.375 
Q 42.390625 51.421875 38.9375 58.90625 
Q 35.5 66.40625 28.609375 66.40625 
z
M 28.609375 74.21875 
Q 39.65625 74.21875 45.453125 64.515625 
Q 51.265625 54.828125 51.265625 36.375 
Q 51.265625 17.96875 45.453125 8.265625 
Q 39.65625 -1.421875 28.609375 -1.421875 
Q 17.578125 -1.421875 11.765625 8.265625 
Q 5.953125 17.96875 5.953125 36.375 
Q 5.953125 54.828125 11.765625 64.515625 
Q 17.578125 74.21875 28.609375 74.21875 
z
" id="DejaVuSansCondensed-48"/>
       </defs>
       <use xlink:href="#DejaVuSansCondensed-49"/>
       <use x="57.226562" xlink:href="#DejaVuSansCondensed-48"/>
      </g>
     </g>
    </g>
    <g id="xtick_11">
     <g id="line2d_11">
      <g>
       <use style="stroke:#000000;stroke-width:0.5;" x="152.530512" xlink:href="#m0e960bf120" y="121.096063"/>
      </g>
     </g>
     <g id="text_11">
      <!-- 11 -->
      <g transform="translate(147.951762 128.174813)scale(0.08 -0.08)">
       <use xlink:href="#DejaVuSansCondensed-49"/>
       <use x="57.226562" xlink:href="#DejaVuSansCondensed-49"/>
      </g>
     </g>
    </g>
    <g id="xtick_12">
     <g id="line2d_12">
      <g>
       <use style="stroke:#000000;stroke-width:0.5;" x="164.79626" xlink:href="#m0e960bf120" y="121.096063"/>
      </g>
     </g>
     <g id="text_12">
      <!-- 12 -->
      <g transform="translate(160.21751 128.174813)scale(0.08 -0.08)">
       <use xlink:href="#DejaVuSansCondensed-49"/>
       <use x="57.226562" xlink:href="#DejaVuSansCondensed-50"/>
      </g>
     </g>
    </g>
    <g id="text_13">
     <!-- Participant -->
     <g transform="translate(78.090896 136.917313)scale(0.08 -0.08)">
      <defs>
       <path d="M 17.71875 64.796875 
L 17.71875 37.40625 
L 28.859375 37.40625 
Q 35.0625 37.40625 38.453125 40.96875 
Q 41.84375 44.53125 41.84375 51.125 
Q 41.84375 57.671875 38.453125 61.234375 
Q 35.0625 64.796875 28.859375 64.796875 
z
M 8.84375 72.90625 
L 28.859375 72.90625 
Q 39.890625 72.90625 45.53125 67.359375 
Q 51.171875 61.8125 51.171875 51.125 
Q 51.171875 40.328125 45.53125 34.8125 
Q 39.890625 29.296875 28.859375 29.296875 
L 17.71875 29.296875 
L 17.71875 0 
L 8.84375 0 
z
" id="DejaVuSansCondensed-80"/>
       <path d="M 30.859375 27.484375 
Q 21.046875 27.484375 17.265625 25 
Q 13.484375 22.515625 13.484375 16.5 
Q 13.484375 11.71875 16.3125 8.90625 
Q 19.140625 6.109375 24.03125 6.109375 
Q 30.765625 6.109375 34.8125 11.40625 
Q 38.875 16.703125 38.875 25.484375 
L 38.875 27.484375 
z
M 46.96875 31.203125 
L 46.96875 0 
L 38.875 0 
L 38.875 8.296875 
Q 36.140625 3.328125 32 0.953125 
Q 27.875 -1.421875 21.875 -1.421875 
Q 14.3125 -1.421875 9.859375 3.296875 
Q 5.421875 8.015625 5.421875 15.921875 
Q 5.421875 25.140625 10.953125 29.828125 
Q 16.5 34.515625 27.546875 34.515625 
L 38.875 34.515625 
L 38.875 35.40625 
Q 38.875 41.609375 35.203125 45 
Q 31.546875 48.390625 24.90625 48.390625 
Q 20.703125 48.390625 16.703125 47.265625 
Q 12.703125 46.140625 8.984375 43.890625 
L 8.984375 52.203125 
Q 13.421875 54.109375 17.59375 55.046875 
Q 21.78125 56 25.734375 56 
Q 36.421875 56 41.6875 49.84375 
Q 46.96875 43.703125 46.96875 31.203125 
z
" id="DejaVuSansCondensed-97"/>
       <path d="M 37.015625 46.296875 
Q 35.640625 47.171875 34.03125 47.578125 
Q 32.421875 48 30.515625 48 
Q 23.640625 48 19.96875 43.046875 
Q 16.3125 38.09375 16.3125 28.8125 
L 16.3125 0 
L 8.15625 0 
L 8.15625 54.6875 
L 16.3125 54.6875 
L 16.3125 46.1875 
Q 18.84375 51.171875 22.9375 53.578125 
Q 27.046875 56 32.859375 56 
Q 33.6875 56 34.71875 55.875 
Q 35.75 55.765625 36.96875 55.515625 
z
" id="DejaVuSansCondensed-114"/>
       <path d="M 16.5 70.21875 
L 16.5 54.6875 
L 33.15625 54.6875 
L 33.15625 47.703125 
L 16.5 47.703125 
L 16.5 18.015625 
Q 16.5 11.328125 18.140625 9.421875 
Q 19.78125 7.515625 24.8125 7.515625 
L 33.15625 7.515625 
L 33.15625 0 
L 24.8125 0 
Q 15.484375 0 11.90625 3.875 
Q 8.34375 7.765625 8.34375 18.015625 
L 8.34375 47.703125 
L 2.4375 47.703125 
L 2.4375 54.6875 
L 8.34375 54.6875 
L 8.34375 70.21875 
z
" id="DejaVuSansCondensed-116"/>
       <path d="M 8.5 54.6875 
L 16.546875 54.6875 
L 16.546875 0 
L 8.5 0 
z
M 8.5 75.984375 
L 16.546875 75.984375 
L 16.546875 64.59375 
L 8.5 64.59375 
z
" id="DejaVuSansCondensed-105"/>
       <path d="M 43.890625 52.59375 
L 43.890625 44.1875 
Q 40.484375 46.296875 37.03125 47.34375 
Q 33.59375 48.390625 30.078125 48.390625 
Q 22.171875 48.390625 17.828125 42.84375 
Q 13.484375 37.3125 13.484375 27.296875 
Q 13.484375 17.28125 17.828125 11.734375 
Q 22.171875 6.203125 30.078125 6.203125 
Q 33.59375 6.203125 37.03125 7.25 
Q 40.484375 8.296875 43.890625 10.40625 
L 43.890625 2.09375 
Q 40.53125 0.34375 36.890625 -0.53125 
Q 33.25 -1.421875 29.203125 -1.421875 
Q 18.0625 -1.421875 11.515625 6.34375 
Q 4.984375 14.109375 4.984375 27.296875 
Q 4.984375 40.671875 11.59375 48.328125 
Q 18.21875 56 29.6875 56 
Q 33.453125 56 37.015625 55.140625 
Q 40.578125 54.296875 43.890625 52.59375 
z
" id="DejaVuSansCondensed-99"/>
       <path d="M 16.3125 8.203125 
L 16.3125 -20.796875 
L 8.15625 -20.796875 
L 8.15625 54.6875 
L 16.3125 54.6875 
L 16.3125 46.390625 
Q 18.84375 51.265625 22.71875 53.625 
Q 26.609375 56 32.03125 56 
Q 41.015625 56 46.609375 48.09375 
Q 52.203125 40.1875 52.203125 27.296875 
Q 52.203125 14.40625 46.609375 6.484375 
Q 41.015625 -1.421875 32.03125 -1.421875 
Q 26.609375 -1.421875 22.71875 0.953125 
Q 18.84375 3.328125 16.3125 8.203125 
z
M 43.796875 27.296875 
Q 43.796875 37.203125 40.125 42.84375 
Q 36.46875 48.484375 30.078125 48.484375 
Q 23.640625 48.484375 19.96875 42.84375 
Q 16.3125 37.203125 16.3125 27.296875 
Q 16.3125 17.390625 19.96875 11.75 
Q 23.640625 6.109375 30.078125 6.109375 
Q 36.46875 6.109375 40.125 11.75 
Q 43.796875 17.390625 43.796875 27.296875 
z
" id="DejaVuSansCondensed-112"/>
       <path d="M 49.421875 33.015625 
L 49.421875 0 
L 41.3125 0 
L 41.3125 32.71875 
Q 41.3125 40.484375 38.578125 44.328125 
Q 35.84375 48.1875 30.421875 48.1875 
Q 23.875 48.1875 20.09375 43.546875 
Q 16.3125 38.921875 16.3125 30.90625 
L 16.3125 0 
L 8.15625 0 
L 8.15625 54.6875 
L 16.3125 54.6875 
L 16.3125 46.1875 
Q 19.1875 51.125 23.109375 53.5625 
Q 27.046875 56 32.234375 56 
Q 40.671875 56 45.046875 50.171875 
Q 49.421875 44.34375 49.421875 33.015625 
z
" id="DejaVuSansCondensed-110"/>
      </defs>
      <use xlink:href="#DejaVuSansCondensed-80"/>
      <use x="49.748047" xlink:href="#DejaVuSansCondensed-97"/>
      <use x="104.875" xlink:href="#DejaVuSansCondensed-114"/>
      <use x="141.837891" xlink:href="#DejaVuSansCondensed-116"/>
      <use x="177.091797" xlink:href="#DejaVuSansCondensed-105"/>
      <use x="202.091797" xlink:href="#DejaVuSansCondensed-99"/>
      <use x="251.554688" xlink:href="#DejaVuSansCondensed-105"/>
      <use x="276.554688" xlink:href="#DejaVuSansCondensed-112"/>
      <use x="333.683594" xlink:href="#DejaVuSansCondensed-97"/>
      <use x="388.810547" xlink:href="#DejaVuSansCondensed-110"/>
      <use x="445.841797" xlink:href="#DejaVuSansCondensed-116"/>
     </g>
    </g>
   </g>
   <g id="matplotlib.axis_2">
    <g id="ytick_1">
     <g id="line2d_13">
      <defs>
       <path d="M 0 0 
L 3 0 
" id="m7bb210435c" style="stroke:#000000;stroke-width:0.5;"/>
      </defs>
      <g>
       <use style="stroke:#000000;stroke-width:0.5;" x="23.740157" xlink:href="#m7bb210435c" y="110.619213"/>
      </g>
     </g>
     <g id="text_14">
      <!-- −80 -->
      <g transform="translate(7.551407 113.658588)scale(0.08 -0.08)">
       <defs>
        <path d="M 9.515625 35.5 
L 65.875 35.5 
L 65.875 27.203125 
L 9.515625 27.203125 
z
" id="DejaVuSansCondensed-8722"/>
       </defs>
       <use xlink:href="#DejaVuSansCondensed-8722"/>
       <use x="75.390625" xlink:href="#DejaVuSansCondensed-56"/>
       <use x="132.617188" xlink:href="#DejaVuSansCondensed-48"/>
      </g>
     </g>
    </g>
    <g id="ytick_2">
     <g id="line2d_14">
      <g>
       <use style="stroke:#000000;stroke-width:0.5;" x="23.740157" xlink:href="#m7bb210435c" y="89.665512"/>
      </g>
     </g>
     <g id="text_15">
      <!-- −60 -->
      <g transform="translate(7.551407 92.704887)scale(0.08 -0.08)">
       <use xlink:href="#DejaVuSansCondensed-8722"/>
       <use x="75.390625" xlink:href="#DejaVuSansCondensed-54"/>
       <use x="132.617188" xlink:href="#DejaVuSansCondensed-48"/>
      </g>
     </g>
    </g>
    <g id="ytick_3">
     <g id="line2d_15">
      <g>
       <use style="stroke:#000000;stroke-width:0.5;" x="23.740157" xlink:href="#m7bb210435c" y="68.711811"/>
      </g>
     </g>
     <g id="text_16">
      <!-- −40 -->
      <g transform="translate(7.551407 71.751186)scale(0.08 -0.08)">
       <use xlink:href="#DejaVuSansCondensed-8722"/>
       <use x="75.390625" xlink:href="#DejaVuSansCondensed-52"/>
       <use x="132.617188" xlink:href="#DejaVuSansCondensed-48"/>
      </g>
     </g>
    </g>
    <g id="ytick_4">
     <g id="line2d_16">
      <g>
       <use style="stroke:#000000;stroke-width:0.5;" x="23.740157" xlink:href="#m7bb210435c" y="47.75811"/>
      </g>
     </g>
     <g id="text_17">
      <!-- −20 -->
      <g transform="translate(7.551407 50.797485)scale(0.08 -0.08)">
       <use xlink:href="#DejaVuSansCondensed-8722"/>
       <use x="75.390625" xlink:href="#DejaVuSansCondensed-50"/>
       <use x="132.617188" xlink:href="#DejaVuSansCondensed-48"/>
      </g>
     </g>
    </g>
    <g id="ytick_5">
     <g id="line2d_17">
      <g>
       <use style="stroke:#000000;stroke-width:0.5;" x="23.740157" xlink:href="#m7bb210435c" y="26.804409"/>
      </g>
     </g>
     <g id="text_18">
      <!-- 0 -->
      <g transform="translate(18.161407 29.843784)scale(0.08 -0.08)">
       <use xlink:href="#DejaVuSansCondensed-48"/>
      </g>
     </g>
    </g>
    <g id="text_19">
     <!-- $\mathcal{L}$(model) $-$ $\mathcal{L}$(full model) -->
     <g transform="translate(4.887657 114.271811)rotate(-90)scale(0.08 -0.08)">
      <defs>
       <path d="M 3.71875 -2.203125 
Q 3.078125 -2.203125 3.078125 -1.515625 
Q 3.078125 -1.125 3.421875 -0.59375 
Q 4.15625 0.59375 5.609375 2.03125 
Q 7.078125 3.46875 7.71875 4.296875 
Q 10.25 7.953125 11.71875 10.796875 
Q 14.265625 16.0625 16.109375 22.90625 
Q 18.84375 33.796875 21.0625 40.578125 
Q 23.296875 47.359375 26.90625 53.421875 
Q 29.734375 58.109375 33.875 61.984375 
Q 38.03125 65.875 43.078125 68.1875 
Q 48.140625 70.515625 53.421875 70.515625 
L 54 70.515625 
Q 56.59375 70.515625 58.34375 69.21875 
Q 60.109375 67.921875 61.015625 65.75 
Q 61.921875 63.578125 61.921875 61.078125 
Q 61.921875 57.28125 60.6875 55.8125 
Q 57.234375 52.046875 52.484375 51.421875 
L 51.90625 51.421875 
Q 51.3125 51.421875 51.3125 52.09375 
Q 51.3125 52.203125 51.5625 53.609375 
Q 51.8125 55.03125 51.8125 56 
Q 51.8125 59.234375 50.1875 61.625 
Q 48.578125 64.015625 45.40625 64.015625 
Q 41.703125 64.015625 41.703125 63.375 
Q 38.96875 61.46875 36.453125 57.046875 
Q 33.9375 52.640625 32.046875 47.484375 
Q 30.171875 42.328125 28.703125 37.125 
Q 27.25 31.9375 26.125 27.390625 
Q 24.90625 22.46875 22.96875 17.9375 
Q 21.046875 13.421875 18.40625 9.421875 
Q 19.578125 9.8125 21.296875 9.8125 
L 21.921875 9.8125 
Q 25.390625 9.8125 28.859375 9.109375 
Q 32.328125 8.40625 37.15625 7.03125 
Q 42 5.671875 45.21875 5 
Q 48.4375 4.34375 52 4.296875 
Q 53.078125 4.296875 53.75 5.265625 
Q 54.4375 6.25 55.09375 7.984375 
Q 55.765625 9.71875 56.203125 10.296875 
Q 57.71875 11.96875 59.90625 13.1875 
Q 62.109375 14.40625 64.3125 14.703125 
L 64.890625 14.703125 
Q 65.1875 14.703125 65.375 14.5 
Q 65.578125 14.3125 65.578125 14.015625 
Q 65.578125 14.015625 65.484375 13.71875 
Q 64.5 9.8125 60.890625 6.03125 
Q 57.28125 2.25 52.65625 0.015625 
Q 48.046875 -2.203125 44.1875 -2.203125 
L 43.609375 -2.203125 
Q 40.140625 -2.203125 36.8125 -1.5625 
Q 33.5 -0.921875 28.65625 0.4375 
Q 23.828125 1.8125 20.375 2.53125 
Q 16.9375 3.265625 13.484375 3.328125 
Q 9.03125 -1.5625 4.296875 -2.203125 
z
" id="Cmsy10-76"/>
       <path d="M 27.9375 75.875 
Q 22.015625 64.65625 19.15625 53.65625 
Q 16.3125 42.671875 16.3125 31.390625 
Q 16.3125 20.125 19.1875 9.0625 
Q 22.078125 -2 27.9375 -13.1875 
L 20.90625 -13.1875 
Q 14.265625 -1.703125 10.984375 9.375 
Q 7.71875 20.453125 7.71875 31.390625 
Q 7.71875 42.28125 10.984375 53.3125 
Q 14.265625 64.359375 20.90625 75.875 
z
" id="DejaVuSansCondensed-40"/>
       <path d="M 46.78125 44.1875 
Q 49.859375 50.25 54.046875 53.125 
Q 58.25 56 63.96875 56 
Q 71.6875 56 75.859375 50.015625 
Q 80.03125 44.046875 80.03125 33.015625 
L 80.03125 0 
L 71.875 0 
L 71.875 32.71875 
Q 71.875 40.578125 69.375 44.375 
Q 66.890625 48.1875 61.71875 48.1875 
Q 55.46875 48.1875 51.796875 43.546875 
Q 48.140625 38.921875 48.140625 30.90625 
L 48.140625 0 
L 40.046875 0 
L 40.046875 32.71875 
Q 40.046875 40.625 37.53125 44.40625 
Q 35.015625 48.1875 29.78125 48.1875 
Q 23.578125 48.1875 19.9375 43.53125 
Q 16.3125 38.875 16.3125 30.90625 
L 16.3125 0 
L 8.15625 0 
L 8.15625 54.6875 
L 16.3125 54.6875 
L 16.3125 46.1875 
Q 19.09375 51.21875 22.953125 53.609375 
Q 26.8125 56 32.125 56 
Q 37.5 56 41.25 52.96875 
Q 45.015625 49.953125 46.78125 44.1875 
z
" id="DejaVuSansCondensed-109"/>
       <path d="M 27.546875 48.390625 
Q 21.046875 48.390625 17.265625 42.75 
Q 13.484375 37.109375 13.484375 27.296875 
Q 13.484375 17.484375 17.234375 11.84375 
Q 21 6.203125 27.546875 6.203125 
Q 34.03125 6.203125 37.78125 11.859375 
Q 41.546875 17.53125 41.546875 27.296875 
Q 41.546875 37.015625 37.78125 42.703125 
Q 34.03125 48.390625 27.546875 48.390625 
z
M 27.546875 56 
Q 38.09375 56 44.109375 48.375 
Q 50.140625 40.765625 50.140625 27.296875 
Q 50.140625 13.875 44.109375 6.21875 
Q 38.09375 -1.421875 27.546875 -1.421875 
Q 16.9375 -1.421875 10.953125 6.21875 
Q 4.984375 13.875 4.984375 27.296875 
Q 4.984375 40.765625 10.953125 48.375 
Q 16.9375 56 27.546875 56 
z
" id="DejaVuSansCondensed-111"/>
       <path d="M 40.875 46.390625 
L 40.875 75.984375 
L 48.96875 75.984375 
L 48.96875 0 
L 40.875 0 
L 40.875 8.203125 
Q 38.328125 3.328125 34.4375 0.953125 
Q 30.5625 -1.421875 25.09375 -1.421875 
Q 16.15625 -1.421875 10.5625 6.484375 
Q 4.984375 14.40625 4.984375 27.296875 
Q 4.984375 40.1875 10.5625 48.09375 
Q 16.15625 56 25.09375 56 
Q 30.5625 56 34.4375 53.625 
Q 38.328125 51.265625 40.875 46.390625 
z
M 13.328125 27.296875 
Q 13.328125 17.390625 16.984375 11.75 
Q 20.65625 6.109375 27.046875 6.109375 
Q 33.5 6.109375 37.1875 11.75 
Q 40.875 17.390625 40.875 27.296875 
Q 40.875 37.203125 37.1875 42.84375 
Q 33.5 48.484375 27.046875 48.484375 
Q 20.65625 48.484375 16.984375 42.84375 
Q 13.328125 37.203125 13.328125 27.296875 
z
" id="DejaVuSansCondensed-100"/>
       <path d="M 50.59375 29.59375 
L 50.59375 25.203125 
L 13.375 25.203125 
Q 13.921875 15.921875 18.4375 11.0625 
Q 22.953125 6.203125 30.953125 6.203125 
Q 35.640625 6.203125 40.015625 7.46875 
Q 44.390625 8.734375 48.6875 11.28125 
L 48.6875 2.78125 
Q 44.34375 0.734375 39.765625 -0.34375 
Q 35.203125 -1.421875 30.515625 -1.421875 
Q 18.703125 -1.421875 11.84375 6.1875 
Q 4.984375 13.8125 4.984375 26.8125 
Q 4.984375 40.234375 11.5 48.109375 
Q 18.015625 56 29.109375 56 
Q 39.015625 56 44.796875 48.890625 
Q 50.59375 41.796875 50.59375 29.59375 
z
M 42.484375 32.234375 
Q 42.390625 39.59375 38.765625 43.984375 
Q 35.15625 48.390625 29.203125 48.390625 
Q 22.40625 48.390625 18.328125 44.140625 
Q 14.265625 39.890625 13.671875 32.171875 
z
" id="DejaVuSansCondensed-101"/>
       <path d="M 8.5 75.984375 
L 16.546875 75.984375 
L 16.546875 0 
L 8.5 0 
z
" id="DejaVuSansCondensed-108"/>
       <path d="M 7.234375 75.875 
L 14.265625 75.875 
Q 20.84375 64.359375 24.109375 53.3125 
Q 27.390625 42.28125 27.390625 31.390625 
Q 27.390625 20.453125 24.109375 9.375 
Q 20.84375 -1.703125 14.265625 -13.1875 
L 7.234375 -13.1875 
Q 13.03125 -2 15.90625 9.0625 
Q 18.796875 20.125 18.796875 31.390625 
Q 18.796875 42.671875 15.90625 53.65625 
Q 13.03125 64.65625 7.234375 75.875 
z
" id="DejaVuSansCondensed-41"/>
       <path id="DejaVuSansCondensed-32"/>
       <path d="M 33.40625 75.984375 
L 33.40625 68.5 
L 25.6875 68.5 
Q 21.296875 68.5 19.609375 66.546875 
Q 17.921875 64.59375 17.921875 59.515625 
L 17.921875 54.6875 
L 31.25 54.6875 
L 31.25 47.703125 
L 17.921875 47.703125 
L 17.921875 0 
L 9.8125 0 
L 9.8125 47.703125 
L 2.046875 47.703125 
L 2.046875 54.6875 
L 9.8125 54.6875 
L 9.8125 58.5 
Q 9.8125 67.625 13.625 71.796875 
Q 17.4375 75.984375 25.734375 75.984375 
z
" id="DejaVuSansCondensed-102"/>
       <path d="M 7.671875 21.578125 
L 7.671875 54.6875 
L 15.71875 54.6875 
L 15.71875 21.921875 
Q 15.71875 14.15625 18.453125 10.265625 
Q 21.1875 6.390625 26.609375 6.390625 
Q 33.203125 6.390625 36.984375 11.03125 
Q 40.765625 15.671875 40.765625 23.6875 
L 40.765625 54.6875 
L 48.875 54.6875 
L 48.875 0 
L 40.765625 0 
L 40.765625 8.40625 
Q 37.84375 3.421875 33.953125 1 
Q 30.078125 -1.421875 24.90625 -1.421875 
Q 16.453125 -1.421875 12.0625 4.4375 
Q 7.671875 10.296875 7.671875 21.578125 
z
M 27.984375 56 
z
" id="DejaVuSansCondensed-117"/>
      </defs>
      <use transform="translate(0 0.015625)" xlink:href="#Cmsy10-76"/>
      <use transform="translate(68.896484 0.015625)" xlink:href="#DejaVuSansCondensed-40"/>
      <use transform="translate(104.003906 0.015625)" xlink:href="#DejaVuSansCondensed-109"/>
      <use transform="translate(191.650391 0.015625)" xlink:href="#DejaVuSansCondensed-111"/>
      <use transform="translate(246.679688 0.015625)" xlink:href="#DejaVuSansCondensed-100"/>
      <use transform="translate(303.808594 0.015625)" xlink:href="#DejaVuSansCondensed-101"/>
      <use transform="translate(359.179688 0.015625)" xlink:href="#DejaVuSansCondensed-108"/>
      <use transform="translate(384.179688 0.015625)" xlink:href="#DejaVuSansCondensed-41"/>
      <use transform="translate(419.287109 0.015625)" xlink:href="#DejaVuSansCondensed-32"/>
      <use transform="translate(447.851562 0.015625)" xlink:href="#DejaVuSansCondensed-8722"/>
      <use transform="translate(523.242188 0.015625)" xlink:href="#DejaVuSansCondensed-32"/>
      <use transform="translate(551.806641 0.015625)" xlink:href="#Cmsy10-76"/>
      <use transform="translate(620.703125 0.015625)" xlink:href="#DejaVuSansCondensed-40"/>
      <use transform="translate(655.810547 0.015625)" xlink:href="#DejaVuSansCondensed-102"/>
      <use transform="translate(687.451172 0.015625)" xlink:href="#DejaVuSansCondensed-117"/>
      <use transform="translate(744.482422 0.015625)" xlink:href="#DejaVuSansCondensed-108"/>
      <use transform="translate(769.482422 0.015625)" xlink:href="#DejaVuSansCondensed-108"/>
      <use transform="translate(794.482422 0.015625)" xlink:href="#DejaVuSansCondensed-32"/>
      <use transform="translate(823.046875 0.015625)" xlink:href="#DejaVuSansCondensed-109"/>
      <use transform="translate(910.693359 0.015625)" xlink:href="#DejaVuSansCondensed-111"/>
      <use transform="translate(965.722656 0.015625)" xlink:href="#DejaVuSansCondensed-100"/>
      <use transform="translate(1022.851562 0.015625)" xlink:href="#DejaVuSansCondensed-101"/>
      <use transform="translate(1078.222656 0.015625)" xlink:href="#DejaVuSansCondensed-108"/>
      <use transform="translate(1103.222656 0.015625)" xlink:href="#DejaVuSansCondensed-41"/>
     </g>
    </g>
   </g>
   <g id="PathCollection_1">
    <defs>
     <path d="M -1 1 
L 1 1 
L 1 -1 
L -1 -1 
z
" id="mf074bf8230" style="stroke:#bfbf00;"/>
    </defs>
    <g clip-path="url(#pda7e90ba39)">
     <use style="fill:#bfbf00;stroke:#bfbf00;" x="29.873031" xlink:href="#mf074bf8230" y="24.297785"/>
     <use style="fill:#bfbf00;stroke:#bfbf00;" x="42.13878" xlink:href="#mf074bf8230" y="40.317793"/>
     <use style="fill:#bfbf00;stroke:#bfbf00;" x="54.404528" xlink:href="#mf074bf8230" y="29.893539"/>
     <use style="fill:#bfbf00;stroke:#bfbf00;" x="66.670276" xlink:href="#mf074bf8230" y="49.285837"/>
     <use style="fill:#bfbf00;stroke:#bfbf00;" x="78.936024" xlink:href="#mf074bf8230" y="42.105066"/>
     <use style="fill:#bfbf00;stroke:#bfbf00;" x="91.201772" xlink:href="#mf074bf8230" y="34.840616"/>
     <use style="fill:#bfbf00;stroke:#bfbf00;" x="103.46752" xlink:href="#mf074bf8230" y="37.849596"/>
     <use style="fill:#bfbf00;stroke:#bfbf00;" x="115.733268" xlink:href="#mf074bf8230" y="33.804814"/>
     <use style="fill:#bfbf00;stroke:#bfbf00;" x="127.999016" xlink:href="#mf074bf8230" y="26.245024"/>
     <use style="fill:#bfbf00;stroke:#bfbf00;" x="140.264764" xlink:href="#mf074bf8230" y="33.402575"/>
     <use style="fill:#bfbf00;stroke:#bfbf00;" x="152.530512" xlink:href="#mf074bf8230" y="28.699127"/>
     <use style="fill:#bfbf00;stroke:#bfbf00;" x="164.79626" xlink:href="#mf074bf8230" y="31.270187"/>
    </g>
   </g>
   <g id="PathCollection_2">
    <defs>
     <path d="M 0 -1 
L -1 1 
L 1 1 
z
" id="mfa0258f4ea" style="stroke:#008000;"/>
    </defs>
    <g clip-path="url(#pda7e90ba39)">
     <use style="fill:#008000;stroke:#008000;" x="29.873031" xlink:href="#mfa0258f4ea" y="44.43473"/>
     <use style="fill:#008000;stroke:#008000;" x="42.13878" xlink:href="#mfa0258f4ea" y="30.674193"/>
     <use style="fill:#008000;stroke:#008000;" x="54.404528" xlink:href="#mfa0258f4ea" y="49.767592"/>
     <use style="fill:#008000;stroke:#008000;" x="66.670276" xlink:href="#mfa0258f4ea" y="57.514558"/>
     <use style="fill:#008000;stroke:#008000;" x="78.936024" xlink:href="#mfa0258f4ea" y="26.271895"/>
     <use style="fill:#008000;stroke:#008000;" x="91.201772" xlink:href="#mfa0258f4ea" y="28.086386"/>
     <use style="fill:#008000;stroke:#008000;" x="103.46752" xlink:href="#mfa0258f4ea" y="22.155955"/>
     <use style="fill:#008000;stroke:#008000;" x="115.733268" xlink:href="#mfa0258f4ea" y="66.345306"/>
     <use style="fill:#008000;stroke:#008000;" x="127.999016" xlink:href="#mfa0258f4ea" y="57.026431"/>
     <use style="fill:#008000;stroke:#008000;" x="140.264764" xlink:href="#mfa0258f4ea" y="27.578523"/>
     <use style="fill:#008000;stroke:#008000;" x="152.530512" xlink:href="#mfa0258f4ea" y="53.509897"/>
     <use style="fill:#008000;stroke:#008000;" x="164.79626" xlink:href="#mfa0258f4ea" y="42.780367"/>
    </g>
   </g>
   <g id="PathCollection_3">
    <defs>
     <path d="M -1 1 
L 1 -1 
M -1 -1 
L 1 1 
" id="ma228fe7ab1" style="stroke:#ff0000;stroke-width:0.5;"/>
    </defs>
    <g clip-path="url(#pda7e90ba39)">
     <use style="fill:#ff0000;stroke:#ff0000;stroke-width:0.5;" x="29.873031" xlink:href="#ma228fe7ab1" y="53.707208"/>
     <use style="fill:#ff0000;stroke:#ff0000;stroke-width:0.5;" x="42.13878" xlink:href="#ma228fe7ab1" y="57.388975"/>
     <use style="fill:#ff0000;stroke:#ff0000;stroke-width:0.5;" x="54.404528" xlink:href="#ma228fe7ab1" y="68.914791"/>
     <use style="fill:#ff0000;stroke:#ff0000;stroke-width:0.5;" x="66.670276" xlink:href="#ma228fe7ab1" y="25.143758"/>
     <use style="fill:#ff0000;stroke:#ff0000;stroke-width:0.5;" x="78.936024" xlink:href="#ma228fe7ab1" y="63.10279"/>
     <use style="fill:#ff0000;stroke:#ff0000;stroke-width:0.5;" x="91.201772" xlink:href="#ma228fe7ab1" y="59.210462"/>
     <use style="fill:#ff0000;stroke:#ff0000;stroke-width:0.5;" x="103.46752" xlink:href="#ma228fe7ab1" y="59.346316"/>
     <use style="fill:#ff0000;stroke:#ff0000;stroke-width:0.5;" x="115.733268" xlink:href="#ma228fe7ab1" y="29.494991"/>
     <use style="fill:#ff0000;stroke:#ff0000;stroke-width:0.5;" x="127.999016" xlink:href="#ma228fe7ab1" y="97.26973"/>
     <use style="fill:#ff0000;stroke:#ff0000;stroke-width:0.5;" x="140.264764" xlink:href="#ma228fe7ab1" y="28.777225"/>
     <use style="fill:#ff0000;stroke:#ff0000;stroke-width:0.5;" x="152.530512" xlink:href="#ma228fe7ab1" y="38.438761"/>
     <use style="fill:#ff0000;stroke:#ff0000;stroke-width:0.5;" x="164.79626" xlink:href="#ma228fe7ab1" y="44.726265"/>
    </g>
   </g>
   <g id="LineCollection_1">
    <path clip-path="url(#pda7e90ba39)" d="M 17.607283 26.804409 
L 177.062008 26.804409 
" style="fill:none;stroke:#0000ff;stroke-width:0.5;"/>
   </g>
   <g id="patch_3">
    <path d="M 23.740157 121.096063 
L 23.740157 16.327559 
" style="fill:none;stroke:#000000;stroke-linecap:square;stroke-linejoin:miter;stroke-width:0.5;"/>
   </g>
   <g id="patch_4">
    <path d="M 170.929134 121.096063 
L 170.929134 16.327559 
" style="fill:none;stroke:#000000;stroke-linecap:square;stroke-linejoin:miter;stroke-width:0.5;"/>
   </g>
   <g id="patch_5">
    <path d="M 23.740157 121.096063 
L 170.929134 121.096063 
" style="fill:none;stroke:#000000;stroke-linecap:square;stroke-linejoin:miter;stroke-width:0.5;"/>
   </g>
   <g id="patch_6">
    <path d="M 23.740157 16.327559 
L 170.929134 16.327559 
" style="fill:none;stroke:#000000;stroke-linecap:square;stroke-linejoin:miter;stroke-width:0.5;"/>
   </g>
   <g id="legend_1">
    <g id="line2d_18">
     <path d="M 41.747146 103.793193 
L 49.747146 103.793193 
" style="fill:none;stroke:#0000ff;stroke-width:0.5;"/>
    </g>
    <g id="text_20">
     <!-- Full model -->
     <g transform="translate(53.747146 106.953193)scale(0.08 -0.08)">
      <defs>
       <path d="M 8.84375 72.90625 
L 46.53125 72.90625 
L 46.53125 64.59375 
L 17.71875 64.59375 
L 17.71875 43.109375 
L 43.75 43.109375 
L 43.75 34.8125 
L 17.71875 34.8125 
L 17.71875 0 
L 8.84375 0 
z
" id="DejaVuSansCondensed-70"/>
      </defs>
      <use xlink:href="#DejaVuSansCondensed-70"/>
      <use x="46.257812" xlink:href="#DejaVuSansCondensed-117"/>
      <use x="103.289062" xlink:href="#DejaVuSansCondensed-108"/>
      <use x="128.289062" xlink:href="#DejaVuSansCondensed-108"/>
      <use x="153.289062" xlink:href="#DejaVuSansCondensed-32"/>
      <use x="181.853516" xlink:href="#DejaVuSansCondensed-109"/>
      <use x="269.5" xlink:href="#DejaVuSansCondensed-111"/>
      <use x="324.529297" xlink:href="#DejaVuSansCondensed-100"/>
      <use x="381.658203" xlink:href="#DejaVuSansCondensed-101"/>
      <use x="437.029297" xlink:href="#DejaVuSansCondensed-108"/>
     </g>
    </g>
    <g id="PathCollection_4">
     <g>
      <use style="fill:#bfbf00;stroke:#bfbf00;" x="45.747146" xlink:href="#mf074bf8230" y="113.051943"/>
     </g>
    </g>
    <g id="text_21">
     <!-- Bias-free -->
     <g transform="translate(53.747146 115.736943)scale(0.08 -0.08)">
      <defs>
       <path d="M 17.71875 34.8125 
L 17.71875 8.109375 
L 31.9375 8.109375 
Q 39.109375 8.109375 42.546875 11.40625 
Q 46 14.703125 46 21.484375 
Q 46 28.328125 42.546875 31.5625 
Q 39.109375 34.8125 31.9375 34.8125 
z
M 17.71875 64.796875 
L 17.71875 42.828125 
L 30.859375 42.828125 
Q 37.359375 42.828125 40.546875 45.53125 
Q 43.75 48.25 43.75 53.8125 
Q 43.75 59.328125 40.546875 62.0625 
Q 37.359375 64.796875 30.859375 64.796875 
z
M 8.84375 72.90625 
L 31.5 72.90625 
Q 41.65625 72.90625 47.140625 68.21875 
Q 52.640625 63.53125 52.640625 54.890625 
Q 52.640625 48.1875 49.828125 44.234375 
Q 47.015625 40.28125 41.546875 39.3125 
Q 48.140625 37.75 51.75 32.78125 
Q 55.375 27.828125 55.375 20.40625 
Q 55.375 10.640625 49.390625 5.3125 
Q 43.40625 0 32.375 0 
L 8.84375 0 
z
" id="DejaVuSansCondensed-66"/>
       <path d="M 39.84375 53.078125 
L 39.84375 44.578125 
Q 36.421875 46.53125 32.734375 47.5 
Q 29.046875 48.484375 25.09375 48.484375 
Q 19.09375 48.484375 16.0625 46.4375 
Q 13.03125 44.390625 13.03125 40.28125 
Q 13.03125 37.15625 15.203125 35.375 
Q 17.390625 33.59375 23.875 31.984375 
L 26.609375 31.296875 
Q 35.25 29.25 38.859375 25.515625 
Q 42.484375 21.78125 42.484375 15.09375 
Q 42.484375 7.46875 37.0625 3.015625 
Q 31.640625 -1.421875 22.171875 -1.421875 
Q 18.21875 -1.421875 13.921875 -0.5625 
Q 9.625 0.296875 4.890625 2 
L 4.890625 11.28125 
Q 9.375 8.6875 13.71875 7.390625 
Q 18.0625 6.109375 22.3125 6.109375 
Q 28.03125 6.109375 31.109375 8.28125 
Q 34.1875 10.453125 34.1875 14.40625 
Q 34.1875 18.0625 31.953125 20.015625 
Q 29.734375 21.96875 22.21875 23.78125 
L 19.4375 24.515625 
Q 11.921875 26.265625 8.5625 29.90625 
Q 5.21875 33.546875 5.21875 39.890625 
Q 5.21875 47.609375 10.15625 51.796875 
Q 15.09375 56 24.125 56 
Q 28.609375 56 32.5625 55.265625 
Q 36.53125 54.546875 39.84375 53.078125 
z
" id="DejaVuSansCondensed-115"/>
       <path d="M 4.390625 31.390625 
L 28.078125 31.390625 
L 28.078125 23.390625 
L 4.390625 23.390625 
z
" id="DejaVuSansCondensed-45"/>
      </defs>
      <use xlink:href="#DejaVuSansCondensed-66"/>
      <use x="61.71875" xlink:href="#DejaVuSansCondensed-105"/>
      <use x="86.71875" xlink:href="#DejaVuSansCondensed-97"/>
      <use x="141.845703" xlink:href="#DejaVuSansCondensed-115"/>
      <use x="188.720703" xlink:href="#DejaVuSansCondensed-45"/>
      <use x="221.191406" xlink:href="#DejaVuSansCondensed-102"/>
      <use x="252.832031" xlink:href="#DejaVuSansCondensed-114"/>
      <use x="287.544922" xlink:href="#DejaVuSansCondensed-101"/>
      <use x="342.916016" xlink:href="#DejaVuSansCondensed-101"/>
     </g>
    </g>
    <g id="PathCollection_5">
     <g>
      <use style="fill:#008000;stroke:#008000;" x="95.509646" xlink:href="#mfa0258f4ea" y="104.268193"/>
     </g>
    </g>
    <g id="text_22">
     <!-- Lapse-free -->
     <g transform="translate(103.509646 106.953193)scale(0.08 -0.08)">
      <defs>
       <path d="M 8.84375 72.90625 
L 17.71875 72.90625 
L 17.71875 8.296875 
L 49.65625 8.296875 
L 49.65625 0 
L 8.84375 0 
z
" id="DejaVuSansCondensed-76"/>
      </defs>
      <use xlink:href="#DejaVuSansCondensed-76"/>
      <use x="50.097656" xlink:href="#DejaVuSansCondensed-97"/>
      <use x="105.224609" xlink:href="#DejaVuSansCondensed-112"/>
      <use x="162.353516" xlink:href="#DejaVuSansCondensed-115"/>
      <use x="209.228516" xlink:href="#DejaVuSansCondensed-101"/>
      <use x="264.599609" xlink:href="#DejaVuSansCondensed-45"/>
      <use x="297.070312" xlink:href="#DejaVuSansCondensed-102"/>
      <use x="328.710938" xlink:href="#DejaVuSansCondensed-114"/>
      <use x="363.423828" xlink:href="#DejaVuSansCondensed-101"/>
      <use x="418.794922" xlink:href="#DejaVuSansCondensed-101"/>
     </g>
    </g>
    <g id="PathCollection_6">
     <g>
      <use style="fill:#ff0000;stroke:#ff0000;stroke-width:0.5;" x="95.509646" xlink:href="#ma228fe7ab1" y="113.051943"/>
     </g>
    </g>
    <g id="text_23">
     <!-- Non-Bayesian -->
     <g transform="translate(103.509646 115.736943)scale(0.08 -0.08)">
      <defs>
       <path d="M 8.84375 72.90625 
L 20.796875 72.90625 
L 49.90625 11.921875 
L 49.90625 72.90625 
L 58.5 72.90625 
L 58.5 0 
L 46.53125 0 
L 17.4375 60.984375 
L 17.4375 0 
L 8.84375 0 
z
" id="DejaVuSansCondensed-78"/>
       <path d="M 28.953125 -5.078125 
Q 25.53125 -14.84375 22.28125 -17.8125 
Q 19.046875 -20.796875 13.578125 -20.796875 
L 7.125 -20.796875 
L 7.125 -13.28125 
L 11.859375 -13.28125 
Q 15.1875 -13.28125 17.03125 -11.515625 
Q 18.890625 -9.765625 21.140625 -3.21875 
L 22.609375 0.875 
L 2.6875 54.6875 
L 11.234375 54.6875 
L 26.609375 11.921875 
L 42 54.6875 
L 50.59375 54.6875 
z
" id="DejaVuSansCondensed-121"/>
      </defs>
      <use xlink:href="#DejaVuSansCondensed-78"/>
      <use x="67.285156" xlink:href="#DejaVuSansCondensed-111"/>
      <use x="122.314453" xlink:href="#DejaVuSansCondensed-110"/>
      <use x="179.345703" xlink:href="#DejaVuSansCondensed-45"/>
      <use x="208.191406" xlink:href="#DejaVuSansCondensed-66"/>
      <use x="269.910156" xlink:href="#DejaVuSansCondensed-97"/>
      <use x="325.037109" xlink:href="#DejaVuSansCondensed-121"/>
      <use x="378.259766" xlink:href="#DejaVuSansCondensed-101"/>
      <use x="433.630859" xlink:href="#DejaVuSansCondensed-115"/>
      <use x="480.505859" xlink:href="#DejaVuSansCondensed-105"/>
      <use x="505.505859" xlink:href="#DejaVuSansCondensed-97"/>
      <use x="560.632812" xlink:href="#DejaVuSansCondensed-110"/>
     </g>
    </g>
   </g>
  </g>
 </g>
 <defs>
  <clipPath id="pda7e90ba39">
   <rect height="104.768504" width="147.188976" x="23.740157" y="16.327559"/>
  </clipPath>
 </defs>
</svg>
